<svg width="16" height="18" viewBox="0 0 16 18" fill="none" xmlns="http://www.w3.org/2000/svg">
<path d="M15.2598 9.20789C14.8516 9.20789 14.5207 9.55853 14.5207 9.99109V6.32121C14.5207 5.88865 14.1898 5.53797 13.7815 5.53797C13.3733 5.53797 13.0424 5.88862 13.0424 6.32121V5.54345C13.0424 5.1109 12.7115 4.76025 12.3032 4.76025C11.895 4.76025 11.5641 5.1109 11.5641 5.54345V6.32121C11.5641 5.88865 11.2331 5.53797 10.8249 5.53797C10.4167 5.53797 10.0857 5.88862 10.0857 6.32121V8.13864C10.0857 7.70608 9.75483 7.3554 9.34658 7.3554C8.93837 7.3554 8.60742 7.70605 8.60742 8.13864V13.2744C8.60742 13.8244 8.76133 14.3622 9.04968 14.8196L9.605 15.7006C9.89335 16.158 10.0473 16.6957 10.0473 17.2458V17.9834H14.5206V17.3744C14.5206 16.7562 14.7149 16.1556 15.0729 15.6674L15.4465 15.158C15.8045 14.6698 15.9989 14.0692 15.9989 13.451V9.99112C15.999 9.55853 15.6681 9.20789 15.2598 9.20789Z" fill="#FFCC1F"/>
<path d="M14.5109 10.0077C14.5109 9.57514 14.8419 9.22449 15.2501 9.22449C15.6583 9.22449 15.9892 9.57514 15.9891 10.0077V13.4676C15.9891 14.0858 15.7947 14.6864 15.4367 15.1746L15.0632 15.684C14.7051 16.1722 14.5108 16.7728 14.5108 17.391V18H12.2934V4.77686C12.7017 4.77686 13.0326 5.1275 13.0326 5.56005V6.33781C13.0326 5.90522 13.3635 5.55458 13.7718 5.55458C14.18 5.55458 14.5109 5.90525 14.5109 6.33781V10.0077Z" fill="#FFD751"/>
<path d="M0 9.99112V13.451C0 14.0692 0.194345 14.6698 0.552372 15.158L0.925945 15.6674C1.28397 16.1556 1.47832 16.7562 1.47832 17.3744V17.9834H5.95162V17.2459C5.95162 16.6958 6.10552 16.1581 6.39388 15.7006L6.9492 14.8197C7.23755 14.3623 7.39145 13.8245 7.39145 13.2744V8.13864C7.39145 7.70608 7.06054 7.3554 6.65229 7.3554C6.24408 7.3554 5.91314 7.70605 5.91314 8.13864V6.32121C5.91314 5.88865 5.58222 5.53797 5.17398 5.53797C4.76576 5.53797 4.43482 5.88862 4.43482 6.32121V5.54345C4.43482 5.1109 4.10391 4.76025 3.69566 4.76025C3.28741 4.76025 2.9565 5.1109 2.9565 5.54345V6.32121C2.9565 5.88865 2.62559 5.53797 2.21734 5.53797C1.8091 5.53797 1.47818 5.88862 1.47818 6.32121V9.99112C1.47818 9.55857 1.14724 9.20792 0.739026 9.20792C0.330946 9.20792 0 9.55857 0 9.99112Z" fill="#FFD751"/>
<path d="M5.96334 17.2625V18H3.72669L3.70738 4.77686C4.11562 4.77686 4.44654 5.1275 4.44654 5.56005V6.33781C4.44654 5.90522 4.77748 5.55458 5.1857 5.55458C5.59394 5.55458 5.92485 5.90525 5.92485 6.33781V8.15524C5.92485 7.72265 6.2558 7.37201 6.66401 7.37201C7.07226 7.37201 7.40317 7.72269 7.40317 8.15524V13.291C7.40317 13.8411 7.24927 14.3789 6.96092 14.8363L6.40559 15.7172C6.11724 16.1747 5.96334 16.7124 5.96334 17.2625Z" fill="#FFCC1F"/>
<path d="M15.2586 9.20801C15.1356 9.20801 15.0191 9.23987 14.9169 9.2967C15.153 9.42739 15.3143 9.68949 15.3143 9.99142V13.2879C15.3143 13.9063 15.1202 14.5068 14.7621 14.9948L14.3884 15.5042C14.0303 15.9926 13.8359 16.7564 13.8359 17.3747V17.9836H14.5192V17.3747C14.5192 16.7564 14.7136 16.1558 15.0716 15.6675L15.4454 15.1581C15.8035 14.6701 15.9975 14.0695 15.9975 13.4512V9.99138C15.9976 9.55883 15.6668 9.20801 15.2586 9.20801Z" fill="#FFB800"/>
<path d="M11.5654 6.32135V12.4618H11.4601C11.1409 12.4618 10.882 12.1876 10.882 11.8493V6.32135C10.882 6.10523 10.7994 5.90938 10.6655 5.76748C10.6125 5.71135 10.5514 5.66393 10.4844 5.62702C10.5865 5.57019 10.7027 5.53833 10.826 5.53833C11.03 5.53833 11.2151 5.62593 11.3487 5.76748C11.4827 5.90938 11.5654 6.10523 11.5654 6.32135Z" fill="#FFB800"/>
<path d="M10.0834 8.13874V12.4619H9.97265C9.65341 12.4619 9.39459 12.1876 9.39459 11.8493V8.13874C9.39459 7.83825 9.23469 7.57724 9 7.44584C9.10249 7.38827 9.21967 7.35571 9.34404 7.35571C9.75232 7.35568 10.0834 7.70646 10.0834 8.13874Z" fill="#FFB800"/>
<path d="M13.0441 5.54366V12.4617H12.8756C12.5564 12.4617 12.2976 12.1875 12.2976 11.8492V5.54366C12.2976 5.32754 12.2149 5.13131 12.0809 4.98979C12.0365 4.94272 11.9863 4.90145 11.9316 4.86742C12.041 4.79935 12.1687 4.76025 12.305 4.76025C12.5093 4.76025 12.6938 4.84785 12.8278 4.98979C12.9614 5.13131 13.0441 5.32754 13.0441 5.54366Z" fill="#FFB800"/>
<path d="M6.65507 7.35547C6.52082 7.35547 6.395 7.39326 6.28634 7.46028C6.50773 7.5954 6.65643 7.84851 6.65643 8.1387V13.2746C6.65643 13.8246 6.50266 14.3623 6.21434 14.82L5.65889 15.7009C5.37057 16.1583 5.2168 16.6959 5.2168 17.2461V17.9837H5.9543V17.2461C5.9543 16.696 6.10807 16.1584 6.39639 15.7009L6.95188 14.82C7.24019 14.3623 7.39397 13.8247 7.39397 13.2746V8.13874C7.39393 7.70629 7.06319 7.35547 6.65507 7.35547Z" fill="#FFB800"/>
<path d="M2.95575 15.271H2.71261C2.46148 15.271 2.23396 15.1168 2.12576 14.8767C1.8397 14.2419 1.42197 13.9088 1.13087 13.7433C0.923067 13.6251 0.793825 13.3953 0.793825 13.1455V9.99142C0.793825 9.68949 0.632562 9.42739 0.396484 9.2967C0.498645 9.23987 0.614795 9.20801 0.738137 9.20801C1.14605 9.20801 1.47713 9.55879 1.47713 9.99142V12.9342C1.4771 12.9342 2.87477 13.5612 2.95575 15.271Z" fill="#FFB800"/>
<path d="M5.91496 6.32135V12.4618H5.80972C5.49047 12.4618 5.23166 12.1876 5.23166 11.8493V6.32135C5.23166 6.10523 5.14899 5.90938 5.01507 5.76748C4.9621 5.71135 4.90098 5.66393 4.83398 5.62702C4.93615 5.57019 5.05229 5.53833 5.17564 5.53833C5.37959 5.53833 5.56476 5.62593 5.69834 5.76748C5.83229 5.90938 5.91496 6.10523 5.91496 6.32135Z" fill="#FFB800"/>
<path d="M4.43271 5.54366V12.4617H4.26426C3.94501 12.4617 3.68623 12.1875 3.68623 11.8492V5.54366C3.68623 5.32754 3.60356 5.13131 3.46961 4.98979C3.42519 4.94272 3.37497 4.90145 3.32031 4.86742C3.42963 4.79935 3.55742 4.76025 3.69372 4.76025C3.89801 4.76025 4.08251 4.84785 4.21643 4.98979C4.35004 5.13131 4.43271 5.32754 4.43271 5.54366Z" fill="#FFB800"/>
<path d="M2.95826 6.32135V12.4618H2.79733C2.47809 12.4618 2.21927 12.1876 2.21927 11.8493V6.32135C2.21927 6.10523 2.1366 5.90938 2.00265 5.76748C1.95721 5.71933 1.90563 5.67735 1.84961 5.64332C1.95827 5.57633 2.08466 5.53833 2.21927 5.53833C2.42323 5.53833 2.60806 5.62593 2.74198 5.76748C2.87559 5.90938 2.95826 6.10523 2.95826 6.32135Z" fill="#FFB800"/>
<path d="M8.00232 1.80619C7.86297 1.80619 7.75 1.68649 7.75 1.53883V0.267365C7.75 0.119703 7.86297 0 8.00232 0C8.14167 0 8.25464 0.119703 8.25464 0.267365V1.53879C8.25464 1.68645 8.14167 1.80619 8.00232 1.80619Z" fill="#FFB800"/>
<path d="M6.00292 2.37203C5.91571 2.37203 5.83092 2.32409 5.78418 2.23828L5.18424 1.13721C5.11456 1.00932 5.1559 0.845783 5.27659 0.771952C5.39731 0.698121 5.55162 0.741921 5.62129 0.869808L6.22123 1.97088C6.29091 2.09877 6.24957 2.26231 6.12888 2.33614C6.0891 2.36048 6.04571 2.37203 6.00292 2.37203Z" fill="#FFB800"/>
<path d="M4.55102 3.91692C4.50819 3.91692 4.46483 3.90537 4.42509 3.88106L3.38598 3.24535C3.26529 3.17152 3.22392 3.00798 3.29363 2.88009C3.36331 2.75221 3.51764 2.70834 3.63833 2.78224L4.67744 3.41795C4.79813 3.49178 4.8395 3.65532 4.76979 3.78321C4.72305 3.86894 4.63823 3.91692 4.55102 3.91692Z" fill="#FFB800"/>
<path d="M11.4518 3.91694C11.3646 3.91694 11.2798 3.869 11.2331 3.78319C11.1634 3.6553 11.2047 3.49177 11.3254 3.41793L12.3645 2.78222C12.4852 2.70836 12.6396 2.75219 12.7092 2.88008C12.7789 3.00796 12.7376 3.1715 12.6169 3.24533L11.5778 3.88105C11.538 3.90539 11.4946 3.91694 11.4518 3.91694Z" fill="#FFB800"/>
<path d="M9.99238 2.37202C9.94955 2.37202 9.90619 2.36046 9.86645 2.33615C9.74576 2.26232 9.70439 2.09878 9.7741 1.9709L10.374 0.869824C10.4437 0.741937 10.598 0.698102 10.7187 0.771968C10.8394 0.845799 10.8808 1.00934 10.8111 1.13722L10.2112 2.2383C10.1644 2.32404 10.0796 2.37202 9.99238 2.37202Z" fill="#FFB800"/>
</svg>
