<svg width="156" height="649" viewBox="0 0 156 649" fill="none" xmlns="http://www.w3.org/2000/svg">
<path d="M119.272 492.979C119.03 494.618 117.505 495.75 115.866 495.508C114.227 495.266 113.095 493.74 113.336 492.101C113.578 490.462 115.103 489.33 116.742 489.572C118.381 489.815 119.514 491.34 119.272 492.979Z" fill="#3897FF"/>
<path d="M122.433 335.543C122.03 338.275 119.488 340.162 116.757 339.758C114.025 339.354 112.137 336.812 112.541 334.08C112.944 331.348 115.485 329.461 118.217 329.865C120.948 330.269 122.836 332.811 122.433 335.543Z" fill="#8E4DD5"/>
<path d="M146.362 278.261C146.04 280.447 144.007 281.956 141.821 281.633C139.636 281.31 138.126 279.276 138.448 277.091C138.771 274.905 140.804 273.396 142.989 273.719C145.175 274.042 146.685 276.076 146.362 278.261Z" fill="#00A98F"/>
<path d="M116.278 42.7579C115.932 43.5103 115.041 43.8376 114.29 43.4889C113.538 43.1402 113.21 42.2476 113.557 41.4952C113.904 40.7428 114.794 40.4155 115.545 40.7642C116.297 41.1129 116.625 42.0055 116.278 42.7579Z" fill="#00A98F"/>
<path d="M143.278 572.759C142.932 573.511 142.041 573.838 141.29 573.49C140.538 573.141 140.21 572.248 140.557 571.496C140.904 570.743 141.794 570.416 142.545 570.765C143.297 571.114 143.625 572.006 143.278 572.759Z" fill="#00A98F"/>
<path d="M128.652 84.6082C127.496 87.1163 124.529 88.2073 122.024 87.045C119.519 85.8827 118.425 82.9072 119.581 80.3992C120.736 77.8911 123.703 76.8001 126.208 77.9624C128.713 79.1247 129.807 82.1002 128.652 84.6082Z" fill="#8E4DD5"/>
<path d="M81.6972 15.0716L80.023 8.20999L83.767 2.23739L76.9154 3.89552L70.9385 0.132568L72.6127 6.99415L68.8688 12.9668L75.7199 11.3089L81.6972 15.0716Z" fill="#FFCC00"/>
<path d="M141.345 119.94L142.242 116.244L145.51 114.314L141.823 113.412L139.896 110.134L138.999 113.829L135.731 115.76L139.417 116.662L141.345 119.94Z" fill="#FFCC00"/>
<path d="M148.111 75.1381L148.751 72.4983L151.086 71.1195L148.452 70.4752L147.075 68.1335L146.435 70.7734L144.1 72.1522L146.734 72.7965L148.111 75.1381Z" fill="#8E4DD5"/>
<path d="M137.964 208.759L140.934 202.501L127.848 204.5L125.201 211.079L137.964 208.759Z" fill="#00A98F"/>
<path d="M143.029 416.356L142.837 409.432L132.081 417.15L132.707 424.214L143.029 416.356Z" fill="#8E4DD5"/>
<path d="M132.824 139.874L127.107 139.47L132.464 148.967L138.336 149.026L132.824 139.874Z" fill="#3897FF"/>
<path d="M128.029 642.796L127.875 639.278L122.35 643.59L122.73 647.165L128.029 642.796Z" fill="#FFCC00"/>
</svg>
