<svg width="140" height="90" viewBox="0 0 140 90" fill="none" xmlns="http://www.w3.org/2000/svg">
<path d="M7.35976 89.803C6.90796 90.1204 6.28428 90.0112 5.96674 89.5591L0.792116 82.1925C0.474575 81.7404 0.583421 81.1167 1.03523 80.7993C1.48704 80.482 2.11072 80.5911 2.42826 81.0432L7.02792 87.5913L13.5725 82.9941C14.0243 82.6768 14.648 82.786 14.9655 83.238C15.2831 83.6901 15.1742 84.3138 14.7224 84.6312L7.35976 89.803ZM7.96207 88.0553L7.76983 89.1569L5.79979 88.812L5.99203 87.7104L7.96207 88.0553Z" fill="url(#paint0_linear_1312_115921)"/>
<rect width="3" height="3" rx="0.5" transform="matrix(-0.706542 -0.707671 -0.706542 0.707671 10.0024 80.4414)" fill="url(#paint1_radial_1312_115921)"/>
<rect width="3" height="3" rx="0.5" transform="matrix(-0.706542 -0.707671 -0.706542 0.707671 11.3853 73.7617)" fill="url(#paint2_radial_1312_115921)"/>
<rect width="3" height="3" rx="0.5" transform="matrix(-0.706542 -0.707671 -0.706542 0.707671 13.0571 66.9492)" fill="url(#paint3_radial_1312_115921)"/>
<rect width="3" height="3" rx="0.5" transform="matrix(-0.706542 -0.707671 -0.706542 0.707671 14.9497 60.1953)" fill="url(#paint4_radial_1312_115921)"/>
<rect width="3" height="3" rx="0.5" transform="matrix(-0.706542 -0.707671 -0.706542 0.707671 17.0806 53.5156)" fill="url(#paint5_radial_1312_115921)"/>
<rect width="3" height="3" rx="0.5" transform="matrix(-0.706542 -0.707671 -0.706542 0.707671 19.4829 46.9258)" fill="url(#paint6_radial_1312_115921)"/>
<rect width="3" height="3" rx="0.5" transform="matrix(-0.706542 -0.707671 -0.706542 0.707671 22.2075 40.4609)" fill="url(#paint7_radial_1312_115921)"/>
<rect width="3" height="3" rx="0.5" transform="matrix(-0.706542 -0.707671 -0.706542 0.707671 25.3149 34.1758)" fill="url(#paint8_radial_1312_115921)"/>
<rect width="3" height="3" rx="0.5" transform="matrix(-0.706542 -0.707671 -0.706542 0.707671 28.9087 28.1562)" fill="url(#paint9_radial_1312_115921)"/>
<rect width="3" height="3" rx="0.5" transform="matrix(-0.706542 -0.707671 -0.706542 0.707671 33.9243 22.0273)" fill="url(#paint10_radial_1312_115921)"/>
<rect width="3" height="3" rx="0.5" transform="matrix(-0.706542 -0.707671 -0.706542 0.707671 39.2075 16.8242)" fill="url(#paint11_radial_1312_115921)"/>
<rect width="3" height="3" rx="0.5" transform="matrix(-0.706542 -0.707671 -0.706542 0.707671 45.0337 12.9375)" fill="url(#paint12_radial_1312_115921)"/>
<rect width="3" height="3" rx="0.5" transform="matrix(-0.706542 -0.707671 -0.706542 0.707671 51.3149 9.83203)" fill="url(#paint13_radial_1312_115921)"/>
<rect width="3" height="3" rx="0.5" transform="matrix(-0.706542 -0.707671 -0.706542 0.707671 57.8853 7.40625)" fill="url(#paint14_radial_1312_115921)"/>
<rect width="3" height="3" rx="0.5" transform="matrix(-0.706542 -0.707671 -0.706542 0.707671 64.6392 5.55469)" fill="url(#paint15_radial_1312_115921)"/>
<rect width="3" height="3" rx="0.5" transform="matrix(-0.706542 -0.707671 -0.706542 0.707671 71.5103 4.19141)" fill="url(#paint16_radial_1312_115921)"/>
<rect width="3" height="3" rx="0.5" transform="matrix(-0.706542 -0.707671 -0.706542 0.707671 78.4458 3.24219)" fill="url(#paint17_radial_1312_115921)"/>
<rect width="3" height="3" rx="0.5" transform="matrix(-0.706542 -0.707671 -0.706542 0.707671 85.4263 2.64453)" fill="url(#paint18_radial_1312_115921)"/>
<rect width="3" height="3" rx="0.5" transform="matrix(-0.706542 -0.707671 -0.706542 0.707671 92.4224 2.35156)" fill="url(#paint19_radial_1312_115921)"/>
<rect width="3" height="3" rx="0.5" transform="matrix(-0.706542 -0.707671 -0.706542 0.707671 99.4282 2.32812)" fill="url(#paint20_radial_1312_115921)"/>
<rect width="3" height="3" rx="0.5" transform="matrix(-0.706542 -0.707671 -0.706542 0.707671 106.424 2.53906)" fill="url(#paint21_radial_1312_115921)"/>
<rect width="3" height="3" rx="0.5" transform="matrix(-0.706542 -0.707671 -0.706542 0.707671 113.417 2.96484)" fill="url(#paint22_radial_1312_115921)"/>
<rect width="3" height="3" rx="0.5" transform="matrix(-0.706542 -0.707671 -0.706542 0.707671 120.393 3.58594)" fill="url(#paint23_radial_1312_115921)"/>
<rect width="3" height="3" rx="0.5" transform="matrix(-0.706542 -0.707671 -0.706542 0.707671 127.346 4.39062)" fill="url(#paint24_radial_1312_115921)"/>
<rect width="3" height="3" rx="0.5" transform="matrix(-0.706542 -0.707671 -0.706542 0.707671 133.729 6.03125)" fill="url(#paint25_radial_1312_115921)"/>
<rect width="3" height="3" rx="0.5" transform="matrix(-0.706542 -0.707671 -0.706542 0.707671 139.719 8.03125)" fill="url(#paint26_radial_1312_115921)"/>
<defs>
<linearGradient id="paint0_linear_1312_115921" x1="6.66155" y1="90.0968" x2="9.00234" y2="77.439" gradientUnits="userSpaceOnUse">
<stop stop-color="#FF474D"/>
<stop offset="1" stop-color="#FFD7D7"/>
</linearGradient>
<radialGradient id="paint1_radial_1312_115921" cx="0" cy="0" r="1" gradientUnits="userSpaceOnUse" gradientTransform="translate(1.5 1.5) rotate(85.3036) scale(2.87506)">
<stop stop-color="#FF474D"/>
<stop offset="1" stop-color="#FFD7D7"/>
</radialGradient>
<radialGradient id="paint2_radial_1312_115921" cx="0" cy="0" r="1" gradientUnits="userSpaceOnUse" gradientTransform="translate(1.5 1.5) rotate(85.3036) scale(2.87506)">
<stop stop-color="#FF474D"/>
<stop offset="1" stop-color="#FFD7D7"/>
</radialGradient>
<radialGradient id="paint3_radial_1312_115921" cx="0" cy="0" r="1" gradientUnits="userSpaceOnUse" gradientTransform="translate(1.5 1.5) rotate(85.3036) scale(2.87506)">
<stop stop-color="#FF474D"/>
<stop offset="1" stop-color="#FFD7D7"/>
</radialGradient>
<radialGradient id="paint4_radial_1312_115921" cx="0" cy="0" r="1" gradientUnits="userSpaceOnUse" gradientTransform="translate(1.5 1.5) rotate(85.3036) scale(2.87506)">
<stop stop-color="#FF474D"/>
<stop offset="1" stop-color="#FFD7D7"/>
</radialGradient>
<radialGradient id="paint5_radial_1312_115921" cx="0" cy="0" r="1" gradientUnits="userSpaceOnUse" gradientTransform="translate(1.5 1.5) rotate(85.3036) scale(2.87506)">
<stop stop-color="#FF474D"/>
<stop offset="1" stop-color="#FFD7D7"/>
</radialGradient>
<radialGradient id="paint6_radial_1312_115921" cx="0" cy="0" r="1" gradientUnits="userSpaceOnUse" gradientTransform="translate(1.5 1.5) rotate(85.3036) scale(2.87506)">
<stop stop-color="#FF474D"/>
<stop offset="1" stop-color="#FFD7D7"/>
</radialGradient>
<radialGradient id="paint7_radial_1312_115921" cx="0" cy="0" r="1" gradientUnits="userSpaceOnUse" gradientTransform="translate(1.5 1.5) rotate(85.3036) scale(2.87506)">
<stop stop-color="#FF474D"/>
<stop offset="1" stop-color="#FFD7D7"/>
</radialGradient>
<radialGradient id="paint8_radial_1312_115921" cx="0" cy="0" r="1" gradientUnits="userSpaceOnUse" gradientTransform="translate(1.5 1.5) rotate(85.3036) scale(2.87506)">
<stop stop-color="#FF474D"/>
<stop offset="1" stop-color="#FFD7D7"/>
</radialGradient>
<radialGradient id="paint9_radial_1312_115921" cx="0" cy="0" r="1" gradientUnits="userSpaceOnUse" gradientTransform="translate(1.5 1.5) rotate(85.3036) scale(2.87506)">
<stop stop-color="#FF474D"/>
<stop offset="1" stop-color="#FFD7D7"/>
</radialGradient>
<radialGradient id="paint10_radial_1312_115921" cx="0" cy="0" r="1" gradientUnits="userSpaceOnUse" gradientTransform="translate(1.5 1.5) rotate(85.3036) scale(2.87506)">
<stop stop-color="#FF474D"/>
<stop offset="1" stop-color="#FFD7D7"/>
</radialGradient>
<radialGradient id="paint11_radial_1312_115921" cx="0" cy="0" r="1" gradientUnits="userSpaceOnUse" gradientTransform="translate(1.5 1.5) rotate(85.3036) scale(2.87506)">
<stop stop-color="#FF474D"/>
<stop offset="1" stop-color="#FFD7D7"/>
</radialGradient>
<radialGradient id="paint12_radial_1312_115921" cx="0" cy="0" r="1" gradientUnits="userSpaceOnUse" gradientTransform="translate(1.5 1.5) rotate(85.3036) scale(2.87506)">
<stop stop-color="#FF474D"/>
<stop offset="1" stop-color="#FFD7D7"/>
</radialGradient>
<radialGradient id="paint13_radial_1312_115921" cx="0" cy="0" r="1" gradientUnits="userSpaceOnUse" gradientTransform="translate(1.5 1.5) rotate(85.3036) scale(2.87506)">
<stop stop-color="#FF474D"/>
<stop offset="1" stop-color="#FFD7D7"/>
</radialGradient>
<radialGradient id="paint14_radial_1312_115921" cx="0" cy="0" r="1" gradientUnits="userSpaceOnUse" gradientTransform="translate(1.5 1.5) rotate(85.3036) scale(2.87506)">
<stop stop-color="#FF474D"/>
<stop offset="1" stop-color="#FFD7D7"/>
</radialGradient>
<radialGradient id="paint15_radial_1312_115921" cx="0" cy="0" r="1" gradientUnits="userSpaceOnUse" gradientTransform="translate(1.5 1.5) rotate(85.3036) scale(2.87506)">
<stop stop-color="#FF474D"/>
<stop offset="1" stop-color="#FFD7D7"/>
</radialGradient>
<radialGradient id="paint16_radial_1312_115921" cx="0" cy="0" r="1" gradientUnits="userSpaceOnUse" gradientTransform="translate(1.5 1.5) rotate(85.3036) scale(2.87506)">
<stop stop-color="#FF474D"/>
<stop offset="1" stop-color="#FFD7D7"/>
</radialGradient>
<radialGradient id="paint17_radial_1312_115921" cx="0" cy="0" r="1" gradientUnits="userSpaceOnUse" gradientTransform="translate(1.5 1.5) rotate(85.3036) scale(2.87506)">
<stop stop-color="#FF474D"/>
<stop offset="1" stop-color="#FFD7D7"/>
</radialGradient>
<radialGradient id="paint18_radial_1312_115921" cx="0" cy="0" r="1" gradientUnits="userSpaceOnUse" gradientTransform="translate(1.5 1.5) rotate(85.3036) scale(2.87506)">
<stop stop-color="#FF474D"/>
<stop offset="1" stop-color="#FFD7D7"/>
</radialGradient>
<radialGradient id="paint19_radial_1312_115921" cx="0" cy="0" r="1" gradientUnits="userSpaceOnUse" gradientTransform="translate(1.5 1.5) rotate(85.3036) scale(2.87506)">
<stop stop-color="#FF474D"/>
<stop offset="1" stop-color="#FFD7D7"/>
</radialGradient>
<radialGradient id="paint20_radial_1312_115921" cx="0" cy="0" r="1" gradientUnits="userSpaceOnUse" gradientTransform="translate(1.5 1.5) rotate(85.3036) scale(2.87506)">
<stop stop-color="#FF474D"/>
<stop offset="1" stop-color="#FFD7D7"/>
</radialGradient>
<radialGradient id="paint21_radial_1312_115921" cx="0" cy="0" r="1" gradientUnits="userSpaceOnUse" gradientTransform="translate(1.5 1.5) rotate(85.3036) scale(2.87506)">
<stop stop-color="#FF474D"/>
<stop offset="1" stop-color="#FFD7D7"/>
</radialGradient>
<radialGradient id="paint22_radial_1312_115921" cx="0" cy="0" r="1" gradientUnits="userSpaceOnUse" gradientTransform="translate(1.5 1.5) rotate(85.3036) scale(2.87506)">
<stop stop-color="#FF474D"/>
<stop offset="1" stop-color="#FFD7D7"/>
</radialGradient>
<radialGradient id="paint23_radial_1312_115921" cx="0" cy="0" r="1" gradientUnits="userSpaceOnUse" gradientTransform="translate(1.5 1.5) rotate(85.3036) scale(2.87506)">
<stop stop-color="#FF474D"/>
<stop offset="1" stop-color="#FFD7D7"/>
</radialGradient>
<radialGradient id="paint24_radial_1312_115921" cx="0" cy="0" r="1" gradientUnits="userSpaceOnUse" gradientTransform="translate(1.5 1.5) rotate(85.3036) scale(2.87506)">
<stop stop-color="#FF474D"/>
<stop offset="1" stop-color="#FFD7D7"/>
</radialGradient>
<radialGradient id="paint25_radial_1312_115921" cx="0" cy="0" r="1" gradientUnits="userSpaceOnUse" gradientTransform="translate(1.5 1.5) rotate(85.3036) scale(2.87506)">
<stop stop-color="#FF474D"/>
<stop offset="1" stop-color="#FFD7D7"/>
</radialGradient>
<radialGradient id="paint26_radial_1312_115921" cx="0" cy="0" r="1" gradientUnits="userSpaceOnUse" gradientTransform="translate(1.5 1.5) rotate(85.3036) scale(2.87506)">
<stop stop-color="#FF474D"/>
<stop offset="1" stop-color="#FFD7D7"/>
</radialGradient>
</defs>
</svg>
