<svg width="87" height="91" viewBox="0 0 87 91" fill="none" xmlns="http://www.w3.org/2000/svg">
<g filter="url(#filter0_f_1312_115983)">
<ellipse cx="22.9323" cy="22.9354" rx="22.9323" ry="22.9354" transform="matrix(0.955166 -0.296089 0.296004 0.955181 15.0928 32.0547)" fill="#212121" fill-opacity="0.1"/>
</g>
<circle cx="30" cy="30" r="30" transform="matrix(0.977118 -0.212698 0.212637 0.977131 1 13)" fill="#C5EDDC"/>
<path d="M33.0588 25.4635L34.2945 31.142L20.9551 34.0457C19.9119 34.2727 18.4612 31.7139 18.2347 30.6729C18.0081 29.6318 18.6762 28.5942 19.7194 28.3672L33.0588 25.4635Z" fill="#285059"/>
<path d="M48.34 27.7911L45.7854 23.8658L37.9107 22.0978L32.9955 25.1987L19.8119 33.4899C19.4127 33.7413 19.252 34.2419 19.432 34.6771C19.61 35.1117 20.0761 35.3549 20.5355 35.2549L20.5373 35.2545L34.5127 32.1706L47.7272 29.2544C48.0364 29.1862 48.2925 28.9727 48.4152 28.6807C48.5363 28.3901 48.5085 28.0574 48.34 27.7911Z" fill="#3DCE9E"/>
<path d="M48.4203 28.6817C48.5413 28.391 48.5136 28.0583 48.345 27.792L45.7905 23.8667L37.9157 22.0987L33.0006 25.1996L34.5178 32.1715L47.7323 29.2554C48.0414 29.1871 48.2976 28.9736 48.4203 28.6817Z" fill="#21A28C"/>
<path d="M49.3268 26.8807L53.4459 45.809C53.5612 46.3389 53.2346 46.8462 52.7035 46.9618L26.0246 52.7693C24.4504 53.112 22.9037 52.1203 22.5618 50.5493L18.2368 30.6746C18.4634 31.7156 19.5022 32.3816 20.5453 32.1545L48.1726 26.1407C48.7037 26.0251 49.2115 26.3506 49.3268 26.8807Z" fill="#3F6A73"/>
<path d="M49.3234 26.8786L53.4424 45.807C53.5578 46.3369 53.2312 46.8442 52.7001 46.9598L38.4123 50.07L33.8813 29.2488L48.1691 26.1386C48.7002 26.023 49.208 26.3486 49.3234 26.8786Z" fill="#285059"/>
<path d="M42.6678 19.5063C42.4185 19.4483 42.1549 19.494 41.9368 19.6325L37.9139 22.0988C38.5176 23.6326 39.7529 24.6458 41.0555 25.032C42.6671 25.5083 44.4539 25.1266 45.7887 23.8668L43.2749 19.9336C43.1384 19.7165 42.9187 19.563 42.6678 19.5063Z" fill="#3DCE9E"/>
<path d="M51.4647 41.284L45.7117 42.5363C43.0965 43.1056 40.5082 41.4455 39.9404 38.8363C39.3726 36.2272 41.0369 33.6414 43.6522 33.0721L49.4052 31.8198C50.9739 31.4783 52.5273 32.4742 52.868 34.0398L53.6918 37.8254C54.0325 39.3911 53.0335 40.9425 51.4647 41.284Z" fill="#3F6A73"/>
<path d="M44.8789 38.7522C45.4029 38.6381 45.7354 38.1218 45.6216 37.5989C45.5079 37.076 44.9908 36.7446 44.4668 36.8587C43.9428 36.9727 43.6103 37.4891 43.7241 38.0119C43.8379 38.5348 44.3549 38.8662 44.8789 38.7522Z" fill="#FFBB33"/>
<defs>
<filter id="filter0_f_1312_115983" x="0.847656" y="4.23047" width="85.8765" height="85.8833" filterUnits="userSpaceOnUse" color-interpolation-filters="sRGB">
<feFlood flood-opacity="0" result="BackgroundImageFix"/>
<feBlend mode="normal" in="SourceGraphic" in2="BackgroundImageFix" result="shape"/>
<feGaussianBlur stdDeviation="10" result="effect1_foregroundBlur_1312_115983"/>
</filter>
</defs>
</svg>
