<svg width="81" height="44" viewBox="0 0 81 44" fill="none" xmlns="http://www.w3.org/2000/svg">
<path d="M8.77091 33.1284C8.68795 30.9208 6.83109 29.1984 4.62351 29.2813C2.41593 29.3642 0.693584 31.221 0.776545 33.4286C0.859505 35.6362 2.71635 37.3586 4.92394 37.2757C7.13152 37.1928 8.85387 35.336 8.77091 33.1284Z" fill="#8E4DD5"/>
<path d="M23.7597 0.634225L21.26 7.23273L24.2477 13.6251L17.6492 11.1254L11.2568 14.1132L13.7561 7.51467L10.7689 1.12232L17.3674 3.62194L23.7597 0.634225Z" fill="#FFCC00"/>
<path d="M79.5703 29.8843L77.0709 36.4828L80.0582 42.8752L73.4596 40.3756L67.0674 43.3633L69.5668 36.7648L66.5794 30.3724L73.1777 32.8717L79.5703 29.8843Z" fill="#00A98F"/>
</svg>
