<svg width="50" height="59" viewBox="0 0 50 59" fill="none" xmlns="http://www.w3.org/2000/svg">
<path d="M0.983337 5.36545C1.12941 7.55305 3.02097 9.20794 5.20823 9.06174C7.3955 8.91554 9.05022 7.02361 8.90414 4.83601C8.75807 2.6484 6.86651 0.993519 4.67925 1.13972C2.49198 1.28592 0.837261 3.17784 0.983337 5.36545Z" fill="#3897FF"/>
<path d="M36.4945 34.597L38.7739 28.4769L35.7007 22.714L42.205 24.8003L48.374 21.8672L46.0946 27.9877L49.1678 33.7502L42.6635 31.6642L36.4945 34.597Z" fill="white"/>
<path d="M24.1451 50.039L18.813 52.6498L16.9663 58.2929L14.3561 52.9598L8.71387 51.1133L14.046 48.5025L15.8926 42.8594L18.5028 48.192L24.1451 50.039Z" fill="#00A98F"/>
</svg>
