<svg width="254" height="192" viewBox="0 0 254 192" fill="none" xmlns="http://www.w3.org/2000/svg">
<rect x="0.0507812" y="12.4153" width="17.5579" height="17.5579" rx="3.9334" transform="rotate(-45 0.0507812 12.4153)" fill="url(#paint0_radial_1312_115469)" fill-opacity="0.6"/>
<rect x="32.7539" y="12.4153" width="17.5579" height="17.5579" rx="3.9334" transform="rotate(-45 32.7539 12.4153)" fill="url(#paint1_radial_1312_115469)" fill-opacity="0.6"/>
<rect x="65.4492" y="12.4153" width="17.5579" height="17.5579" rx="3.9334" transform="rotate(-45 65.4492 12.4153)" fill="url(#paint2_radial_1312_115469)" fill-opacity="0.6"/>
<rect x="98.1445" y="12.4153" width="17.5579" height="17.5579" rx="3.9334" transform="rotate(-45 98.1445 12.4153)" fill="url(#paint3_radial_1312_115469)" fill-opacity="0.6"/>
<rect x="130.848" y="12.4153" width="17.5579" height="17.5579" rx="3.9334" transform="rotate(-45 130.848 12.4153)" fill="url(#paint4_radial_1312_115469)" fill-opacity="0.6"/>
<rect x="163.543" y="12.4153" width="17.5579" height="17.5579" rx="3.9334" transform="rotate(-45 163.543 12.4153)" fill="url(#paint5_radial_1312_115469)" fill-opacity="0.6"/>
<rect x="196.238" y="12.4153" width="17.5579" height="17.5579" rx="3.9334" transform="rotate(-45 196.238 12.4153)" fill="url(#paint6_radial_1312_115469)" fill-opacity="0.6"/>
<rect x="228.941" y="12.4153" width="17.5579" height="17.5579" rx="3.9334" transform="rotate(-45 228.941 12.4153)" fill="url(#paint7_radial_1312_115469)" fill-opacity="0.6"/>
<rect x="0.0507812" y="79.2832" width="17.5579" height="17.5579" rx="3.9334" transform="rotate(-45 0.0507812 79.2832)" fill="url(#paint8_radial_1312_115469)" fill-opacity="0.6"/>
<rect x="32.7539" y="79.2832" width="17.5579" height="17.5579" rx="3.9334" transform="rotate(-45 32.7539 79.2832)" fill="url(#paint9_radial_1312_115469)" fill-opacity="0.6"/>
<rect x="65.4492" y="79.2832" width="17.5579" height="17.5579" rx="3.9334" transform="rotate(-45 65.4492 79.2832)" fill="url(#paint10_radial_1312_115469)" fill-opacity="0.6"/>
<rect x="98.1445" y="79.2832" width="17.5579" height="17.5579" rx="3.9334" transform="rotate(-45 98.1445 79.2832)" fill="url(#paint11_radial_1312_115469)" fill-opacity="0.6"/>
<rect x="130.848" y="79.2832" width="17.5579" height="17.5579" rx="3.9334" transform="rotate(-45 130.848 79.2832)" fill="url(#paint12_radial_1312_115469)" fill-opacity="0.6"/>
<rect x="163.543" y="79.2832" width="17.5579" height="17.5579" rx="3.9334" transform="rotate(-45 163.543 79.2832)" fill="url(#paint13_radial_1312_115469)" fill-opacity="0.6"/>
<rect x="196.238" y="79.2832" width="17.5579" height="17.5579" rx="3.9334" transform="rotate(-45 196.238 79.2832)" fill="url(#paint14_radial_1312_115469)" fill-opacity="0.6"/>
<rect x="228.941" y="79.2832" width="17.5579" height="17.5579" rx="3.9334" transform="rotate(-45 228.941 79.2832)" fill="url(#paint15_radial_1312_115469)" fill-opacity="0.6"/>
<rect x="0.0507812" y="146.151" width="17.5579" height="17.5579" rx="3.9334" transform="rotate(-45 0.0507812 146.151)" fill="url(#paint16_radial_1312_115469)" fill-opacity="0.6"/>
<rect x="32.7539" y="146.151" width="17.5579" height="17.5579" rx="3.9334" transform="rotate(-45 32.7539 146.151)" fill="url(#paint17_radial_1312_115469)" fill-opacity="0.6"/>
<rect x="65.4492" y="146.151" width="17.5579" height="17.5579" rx="3.9334" transform="rotate(-45 65.4492 146.151)" fill="url(#paint18_radial_1312_115469)" fill-opacity="0.6"/>
<rect x="98.1445" y="146.151" width="17.5579" height="17.5579" rx="3.9334" transform="rotate(-45 98.1445 146.151)" fill="url(#paint19_radial_1312_115469)" fill-opacity="0.6"/>
<rect x="130.848" y="146.151" width="17.5579" height="17.5579" rx="3.9334" transform="rotate(-45 130.848 146.151)" fill="url(#paint20_radial_1312_115469)" fill-opacity="0.6"/>
<rect x="163.543" y="146.151" width="17.5579" height="17.5579" rx="3.9334" transform="rotate(-45 163.543 146.151)" fill="url(#paint21_radial_1312_115469)" fill-opacity="0.6"/>
<rect x="196.238" y="146.151" width="17.5579" height="17.5579" rx="3.9334" transform="rotate(-45 196.238 146.151)" fill="url(#paint22_radial_1312_115469)" fill-opacity="0.6"/>
<rect x="228.941" y="146.151" width="17.5579" height="17.5579" rx="3.9334" transform="rotate(-45 228.941 146.151)" fill="url(#paint23_radial_1312_115469)" fill-opacity="0.6"/>
<rect x="0.0507812" y="45.8492" width="17.5579" height="17.5579" rx="3.9334" transform="rotate(-45 0.0507812 45.8492)" fill="url(#paint24_radial_1312_115469)" fill-opacity="0.6"/>
<rect x="32.7539" y="45.8492" width="17.5579" height="17.5579" rx="3.9334" transform="rotate(-45 32.7539 45.8492)" fill="url(#paint25_radial_1312_115469)" fill-opacity="0.6"/>
<rect x="65.4492" y="45.8492" width="17.5579" height="17.5579" rx="3.9334" transform="rotate(-45 65.4492 45.8492)" fill="url(#paint26_radial_1312_115469)" fill-opacity="0.6"/>
<rect x="98.1445" y="45.8492" width="17.5579" height="17.5579" rx="3.9334" transform="rotate(-45 98.1445 45.8492)" fill="url(#paint27_radial_1312_115469)" fill-opacity="0.6"/>
<rect x="130.848" y="45.8492" width="17.5579" height="17.5579" rx="3.9334" transform="rotate(-45 130.848 45.8492)" fill="url(#paint28_radial_1312_115469)" fill-opacity="0.6"/>
<rect x="163.543" y="45.8492" width="17.5579" height="17.5579" rx="3.9334" transform="rotate(-45 163.543 45.8492)" fill="url(#paint29_radial_1312_115469)" fill-opacity="0.6"/>
<rect x="196.238" y="45.8492" width="17.5579" height="17.5579" rx="3.9334" transform="rotate(-45 196.238 45.8492)" fill="url(#paint30_radial_1312_115469)" fill-opacity="0.6"/>
<rect x="228.941" y="45.8492" width="17.5579" height="17.5579" rx="3.9334" transform="rotate(-45 228.941 45.8492)" fill="url(#paint31_radial_1312_115469)" fill-opacity="0.6"/>
<rect x="0.0507812" y="112.717" width="17.5579" height="17.5579" rx="3.9334" transform="rotate(-45 0.0507812 112.717)" fill="url(#paint32_radial_1312_115469)" fill-opacity="0.6"/>
<rect x="32.7539" y="112.717" width="17.5579" height="17.5579" rx="3.9334" transform="rotate(-45 32.7539 112.717)" fill="url(#paint33_radial_1312_115469)" fill-opacity="0.6"/>
<rect x="65.4492" y="112.717" width="17.5579" height="17.5579" rx="3.9334" transform="rotate(-45 65.4492 112.717)" fill="url(#paint34_radial_1312_115469)" fill-opacity="0.6"/>
<rect x="98.1445" y="112.717" width="17.5579" height="17.5579" rx="3.9334" transform="rotate(-45 98.1445 112.717)" fill="url(#paint35_radial_1312_115469)" fill-opacity="0.6"/>
<rect x="130.848" y="112.717" width="17.5579" height="17.5579" rx="3.9334" transform="rotate(-45 130.848 112.717)" fill="url(#paint36_radial_1312_115469)" fill-opacity="0.6"/>
<rect x="163.543" y="112.717" width="17.5579" height="17.5579" rx="3.9334" transform="rotate(-45 163.543 112.717)" fill="url(#paint37_radial_1312_115469)" fill-opacity="0.6"/>
<rect x="196.238" y="112.717" width="17.5579" height="17.5579" rx="3.9334" transform="rotate(-45 196.238 112.717)" fill="url(#paint38_radial_1312_115469)" fill-opacity="0.6"/>
<rect x="228.941" y="112.717" width="17.5579" height="17.5579" rx="3.9334" transform="rotate(-45 228.941 112.717)" fill="url(#paint39_radial_1312_115469)" fill-opacity="0.6"/>
<rect x="0.0507812" y="179.585" width="17.5579" height="17.5579" rx="3.9334" transform="rotate(-45 0.0507812 179.585)" fill="url(#paint40_radial_1312_115469)" fill-opacity="0.6"/>
<rect x="32.7539" y="179.585" width="17.5579" height="17.5579" rx="3.9334" transform="rotate(-45 32.7539 179.585)" fill="url(#paint41_radial_1312_115469)" fill-opacity="0.6"/>
<rect x="65.4492" y="179.585" width="17.5579" height="17.5579" rx="3.9334" transform="rotate(-45 65.4492 179.585)" fill="url(#paint42_radial_1312_115469)" fill-opacity="0.6"/>
<rect x="98.1445" y="179.585" width="17.5579" height="17.5579" rx="3.9334" transform="rotate(-45 98.1445 179.585)" fill="url(#paint43_radial_1312_115469)" fill-opacity="0.6"/>
<rect x="130.848" y="179.585" width="17.5579" height="17.5579" rx="3.9334" transform="rotate(-45 130.848 179.585)" fill="url(#paint44_radial_1312_115469)" fill-opacity="0.6"/>
<rect x="163.543" y="179.585" width="17.5579" height="17.5579" rx="3.9334" transform="rotate(-45 163.543 179.585)" fill="url(#paint45_radial_1312_115469)" fill-opacity="0.6"/>
<rect x="196.238" y="179.585" width="17.5579" height="17.5579" rx="3.9334" transform="rotate(-45 196.238 179.585)" fill="url(#paint46_radial_1312_115469)" fill-opacity="0.6"/>
<rect x="228.941" y="179.585" width="17.5579" height="17.5579" rx="3.9334" transform="rotate(-45 228.941 179.585)" fill="url(#paint47_radial_1312_115469)" fill-opacity="0.6"/>
<defs>
<radialGradient id="paint0_radial_1312_115469" cx="0" cy="0" r="1" gradientUnits="userSpaceOnUse" gradientTransform="translate(8.82972 21.1942) rotate(85.3036) scale(16.8266)">
<stop stop-color="white"/>
<stop offset="1" stop-color="#FAFAFA"/>
</radialGradient>
<radialGradient id="paint1_radial_1312_115469" cx="0" cy="0" r="1" gradientUnits="userSpaceOnUse" gradientTransform="translate(41.5328 21.1942) rotate(85.3036) scale(16.8266)">
<stop stop-color="white"/>
<stop offset="1" stop-color="#FAFAFA"/>
</radialGradient>
<radialGradient id="paint2_radial_1312_115469" cx="0" cy="0" r="1" gradientUnits="userSpaceOnUse" gradientTransform="translate(74.2282 21.1942) rotate(85.3036) scale(16.8266)">
<stop stop-color="white"/>
<stop offset="1" stop-color="#FAFAFA"/>
</radialGradient>
<radialGradient id="paint3_radial_1312_115469" cx="0" cy="0" r="1" gradientUnits="userSpaceOnUse" gradientTransform="translate(106.923 21.1942) rotate(85.3036) scale(16.8266)">
<stop stop-color="white"/>
<stop offset="1" stop-color="#FAFAFA"/>
</radialGradient>
<radialGradient id="paint4_radial_1312_115469" cx="0" cy="0" r="1" gradientUnits="userSpaceOnUse" gradientTransform="translate(139.627 21.1942) rotate(85.3036) scale(16.8266)">
<stop stop-color="white"/>
<stop offset="1" stop-color="#FAFAFA"/>
</radialGradient>
<radialGradient id="paint5_radial_1312_115469" cx="0" cy="0" r="1" gradientUnits="userSpaceOnUse" gradientTransform="translate(172.322 21.1942) rotate(85.3036) scale(16.8266)">
<stop stop-color="white"/>
<stop offset="1" stop-color="#FAFAFA"/>
</radialGradient>
<radialGradient id="paint6_radial_1312_115469" cx="0" cy="0" r="1" gradientUnits="userSpaceOnUse" gradientTransform="translate(205.017 21.1942) rotate(85.3036) scale(16.8266)">
<stop stop-color="white"/>
<stop offset="1" stop-color="#FAFAFA"/>
</radialGradient>
<radialGradient id="paint7_radial_1312_115469" cx="0" cy="0" r="1" gradientUnits="userSpaceOnUse" gradientTransform="translate(237.72 21.1942) rotate(85.3036) scale(16.8266)">
<stop stop-color="white"/>
<stop offset="1" stop-color="#FAFAFA"/>
</radialGradient>
<radialGradient id="paint8_radial_1312_115469" cx="0" cy="0" r="1" gradientUnits="userSpaceOnUse" gradientTransform="translate(8.82972 88.0621) rotate(85.3036) scale(16.8266)">
<stop stop-color="white"/>
<stop offset="1" stop-color="#FAFAFA"/>
</radialGradient>
<radialGradient id="paint9_radial_1312_115469" cx="0" cy="0" r="1" gradientUnits="userSpaceOnUse" gradientTransform="translate(41.5328 88.0621) rotate(85.3036) scale(16.8266)">
<stop stop-color="white"/>
<stop offset="1" stop-color="#FAFAFA"/>
</radialGradient>
<radialGradient id="paint10_radial_1312_115469" cx="0" cy="0" r="1" gradientUnits="userSpaceOnUse" gradientTransform="translate(74.2282 88.0621) rotate(85.3036) scale(16.8266)">
<stop stop-color="white"/>
<stop offset="1" stop-color="#FAFAFA"/>
</radialGradient>
<radialGradient id="paint11_radial_1312_115469" cx="0" cy="0" r="1" gradientUnits="userSpaceOnUse" gradientTransform="translate(106.923 88.0621) rotate(85.3036) scale(16.8266)">
<stop stop-color="white"/>
<stop offset="1" stop-color="#FAFAFA"/>
</radialGradient>
<radialGradient id="paint12_radial_1312_115469" cx="0" cy="0" r="1" gradientUnits="userSpaceOnUse" gradientTransform="translate(139.627 88.0621) rotate(85.3036) scale(16.8266)">
<stop stop-color="white"/>
<stop offset="1" stop-color="#FAFAFA"/>
</radialGradient>
<radialGradient id="paint13_radial_1312_115469" cx="0" cy="0" r="1" gradientUnits="userSpaceOnUse" gradientTransform="translate(172.322 88.0621) rotate(85.3036) scale(16.8266)">
<stop stop-color="white"/>
<stop offset="1" stop-color="#FAFAFA"/>
</radialGradient>
<radialGradient id="paint14_radial_1312_115469" cx="0" cy="0" r="1" gradientUnits="userSpaceOnUse" gradientTransform="translate(205.017 88.0621) rotate(85.3036) scale(16.8266)">
<stop stop-color="white"/>
<stop offset="1" stop-color="#FAFAFA"/>
</radialGradient>
<radialGradient id="paint15_radial_1312_115469" cx="0" cy="0" r="1" gradientUnits="userSpaceOnUse" gradientTransform="translate(237.72 88.0621) rotate(85.3036) scale(16.8266)">
<stop stop-color="white"/>
<stop offset="1" stop-color="#FAFAFA"/>
</radialGradient>
<radialGradient id="paint16_radial_1312_115469" cx="0" cy="0" r="1" gradientUnits="userSpaceOnUse" gradientTransform="translate(8.82972 154.93) rotate(85.3036) scale(16.8266)">
<stop stop-color="white"/>
<stop offset="1" stop-color="#FAFAFA"/>
</radialGradient>
<radialGradient id="paint17_radial_1312_115469" cx="0" cy="0" r="1" gradientUnits="userSpaceOnUse" gradientTransform="translate(41.5328 154.93) rotate(85.3036) scale(16.8266)">
<stop stop-color="white"/>
<stop offset="1" stop-color="#FAFAFA"/>
</radialGradient>
<radialGradient id="paint18_radial_1312_115469" cx="0" cy="0" r="1" gradientUnits="userSpaceOnUse" gradientTransform="translate(74.2282 154.93) rotate(85.3036) scale(16.8266)">
<stop stop-color="white"/>
<stop offset="1" stop-color="#FAFAFA"/>
</radialGradient>
<radialGradient id="paint19_radial_1312_115469" cx="0" cy="0" r="1" gradientUnits="userSpaceOnUse" gradientTransform="translate(106.923 154.93) rotate(85.3036) scale(16.8266)">
<stop stop-color="white"/>
<stop offset="1" stop-color="#FAFAFA"/>
</radialGradient>
<radialGradient id="paint20_radial_1312_115469" cx="0" cy="0" r="1" gradientUnits="userSpaceOnUse" gradientTransform="translate(139.627 154.93) rotate(85.3036) scale(16.8266)">
<stop stop-color="white"/>
<stop offset="1" stop-color="#FAFAFA"/>
</radialGradient>
<radialGradient id="paint21_radial_1312_115469" cx="0" cy="0" r="1" gradientUnits="userSpaceOnUse" gradientTransform="translate(172.322 154.93) rotate(85.3036) scale(16.8266)">
<stop stop-color="white"/>
<stop offset="1" stop-color="#FAFAFA"/>
</radialGradient>
<radialGradient id="paint22_radial_1312_115469" cx="0" cy="0" r="1" gradientUnits="userSpaceOnUse" gradientTransform="translate(205.017 154.93) rotate(85.3036) scale(16.8266)">
<stop stop-color="white"/>
<stop offset="1" stop-color="#FAFAFA"/>
</radialGradient>
<radialGradient id="paint23_radial_1312_115469" cx="0" cy="0" r="1" gradientUnits="userSpaceOnUse" gradientTransform="translate(237.72 154.93) rotate(85.3036) scale(16.8266)">
<stop stop-color="white"/>
<stop offset="1" stop-color="#FAFAFA"/>
</radialGradient>
<radialGradient id="paint24_radial_1312_115469" cx="0" cy="0" r="1" gradientUnits="userSpaceOnUse" gradientTransform="translate(8.82972 54.6282) rotate(85.3036) scale(16.8266)">
<stop stop-color="white"/>
<stop offset="1" stop-color="#FAFAFA"/>
</radialGradient>
<radialGradient id="paint25_radial_1312_115469" cx="0" cy="0" r="1" gradientUnits="userSpaceOnUse" gradientTransform="translate(41.5328 54.6282) rotate(85.3036) scale(16.8266)">
<stop stop-color="white"/>
<stop offset="1" stop-color="#FAFAFA"/>
</radialGradient>
<radialGradient id="paint26_radial_1312_115469" cx="0" cy="0" r="1" gradientUnits="userSpaceOnUse" gradientTransform="translate(74.2282 54.6282) rotate(85.3036) scale(16.8266)">
<stop stop-color="white"/>
<stop offset="1" stop-color="#FAFAFA"/>
</radialGradient>
<radialGradient id="paint27_radial_1312_115469" cx="0" cy="0" r="1" gradientUnits="userSpaceOnUse" gradientTransform="translate(106.923 54.6282) rotate(85.3036) scale(16.8266)">
<stop stop-color="white"/>
<stop offset="1" stop-color="#FAFAFA"/>
</radialGradient>
<radialGradient id="paint28_radial_1312_115469" cx="0" cy="0" r="1" gradientUnits="userSpaceOnUse" gradientTransform="translate(139.627 54.6282) rotate(85.3036) scale(16.8266)">
<stop stop-color="white"/>
<stop offset="1" stop-color="#FAFAFA"/>
</radialGradient>
<radialGradient id="paint29_radial_1312_115469" cx="0" cy="0" r="1" gradientUnits="userSpaceOnUse" gradientTransform="translate(172.322 54.6282) rotate(85.3036) scale(16.8266)">
<stop stop-color="white"/>
<stop offset="1" stop-color="#FAFAFA"/>
</radialGradient>
<radialGradient id="paint30_radial_1312_115469" cx="0" cy="0" r="1" gradientUnits="userSpaceOnUse" gradientTransform="translate(205.017 54.6282) rotate(85.3036) scale(16.8266)">
<stop stop-color="white"/>
<stop offset="1" stop-color="#FAFAFA"/>
</radialGradient>
<radialGradient id="paint31_radial_1312_115469" cx="0" cy="0" r="1" gradientUnits="userSpaceOnUse" gradientTransform="translate(237.72 54.6282) rotate(85.3036) scale(16.8266)">
<stop stop-color="white"/>
<stop offset="1" stop-color="#FAFAFA"/>
</radialGradient>
<radialGradient id="paint32_radial_1312_115469" cx="0" cy="0" r="1" gradientUnits="userSpaceOnUse" gradientTransform="translate(8.82972 121.496) rotate(85.3036) scale(16.8266)">
<stop stop-color="white"/>
<stop offset="1" stop-color="#FAFAFA"/>
</radialGradient>
<radialGradient id="paint33_radial_1312_115469" cx="0" cy="0" r="1" gradientUnits="userSpaceOnUse" gradientTransform="translate(41.5328 121.496) rotate(85.3036) scale(16.8266)">
<stop stop-color="white"/>
<stop offset="1" stop-color="#FAFAFA"/>
</radialGradient>
<radialGradient id="paint34_radial_1312_115469" cx="0" cy="0" r="1" gradientUnits="userSpaceOnUse" gradientTransform="translate(74.2282 121.496) rotate(85.3036) scale(16.8266)">
<stop stop-color="white"/>
<stop offset="1" stop-color="#FAFAFA"/>
</radialGradient>
<radialGradient id="paint35_radial_1312_115469" cx="0" cy="0" r="1" gradientUnits="userSpaceOnUse" gradientTransform="translate(106.923 121.496) rotate(85.3036) scale(16.8266)">
<stop stop-color="white"/>
<stop offset="1" stop-color="#FAFAFA"/>
</radialGradient>
<radialGradient id="paint36_radial_1312_115469" cx="0" cy="0" r="1" gradientUnits="userSpaceOnUse" gradientTransform="translate(139.627 121.496) rotate(85.3036) scale(16.8266)">
<stop stop-color="white"/>
<stop offset="1" stop-color="#FAFAFA"/>
</radialGradient>
<radialGradient id="paint37_radial_1312_115469" cx="0" cy="0" r="1" gradientUnits="userSpaceOnUse" gradientTransform="translate(172.322 121.496) rotate(85.3036) scale(16.8266)">
<stop stop-color="white"/>
<stop offset="1" stop-color="#FAFAFA"/>
</radialGradient>
<radialGradient id="paint38_radial_1312_115469" cx="0" cy="0" r="1" gradientUnits="userSpaceOnUse" gradientTransform="translate(205.017 121.496) rotate(85.3036) scale(16.8266)">
<stop stop-color="white"/>
<stop offset="1" stop-color="#FAFAFA"/>
</radialGradient>
<radialGradient id="paint39_radial_1312_115469" cx="0" cy="0" r="1" gradientUnits="userSpaceOnUse" gradientTransform="translate(237.72 121.496) rotate(85.3036) scale(16.8266)">
<stop stop-color="white"/>
<stop offset="1" stop-color="#FAFAFA"/>
</radialGradient>
<radialGradient id="paint40_radial_1312_115469" cx="0" cy="0" r="1" gradientUnits="userSpaceOnUse" gradientTransform="translate(8.82972 188.364) rotate(85.3036) scale(16.8266)">
<stop stop-color="white"/>
<stop offset="1" stop-color="#FAFAFA"/>
</radialGradient>
<radialGradient id="paint41_radial_1312_115469" cx="0" cy="0" r="1" gradientUnits="userSpaceOnUse" gradientTransform="translate(41.5328 188.364) rotate(85.3036) scale(16.8266)">
<stop stop-color="white"/>
<stop offset="1" stop-color="#FAFAFA"/>
</radialGradient>
<radialGradient id="paint42_radial_1312_115469" cx="0" cy="0" r="1" gradientUnits="userSpaceOnUse" gradientTransform="translate(74.2282 188.364) rotate(85.3036) scale(16.8266)">
<stop stop-color="white"/>
<stop offset="1" stop-color="#FAFAFA"/>
</radialGradient>
<radialGradient id="paint43_radial_1312_115469" cx="0" cy="0" r="1" gradientUnits="userSpaceOnUse" gradientTransform="translate(106.923 188.364) rotate(85.3036) scale(16.8266)">
<stop stop-color="white"/>
<stop offset="1" stop-color="#FAFAFA"/>
</radialGradient>
<radialGradient id="paint44_radial_1312_115469" cx="0" cy="0" r="1" gradientUnits="userSpaceOnUse" gradientTransform="translate(139.627 188.364) rotate(85.3036) scale(16.8266)">
<stop stop-color="white"/>
<stop offset="1" stop-color="#FAFAFA"/>
</radialGradient>
<radialGradient id="paint45_radial_1312_115469" cx="0" cy="0" r="1" gradientUnits="userSpaceOnUse" gradientTransform="translate(172.322 188.364) rotate(85.3036) scale(16.8266)">
<stop stop-color="white"/>
<stop offset="1" stop-color="#FAFAFA"/>
</radialGradient>
<radialGradient id="paint46_radial_1312_115469" cx="0" cy="0" r="1" gradientUnits="userSpaceOnUse" gradientTransform="translate(205.017 188.364) rotate(85.3036) scale(16.8266)">
<stop stop-color="white"/>
<stop offset="1" stop-color="#FAFAFA"/>
</radialGradient>
<radialGradient id="paint47_radial_1312_115469" cx="0" cy="0" r="1" gradientUnits="userSpaceOnUse" gradientTransform="translate(237.72 188.364) rotate(85.3036) scale(16.8266)">
<stop stop-color="white"/>
<stop offset="1" stop-color="#FAFAFA"/>
</radialGradient>
</defs>
</svg>
