<svg width="88" height="80" viewBox="0 0 88 80" fill="none" xmlns="http://www.w3.org/2000/svg">
<path d="M65.5452 15.9542C63.4887 17.3497 62.9528 20.1481 64.3482 22.2046C65.7436 24.2612 68.542 24.7971 70.5986 23.4017C72.6551 22.0062 73.191 19.2078 71.7956 17.1513C70.4002 15.0947 67.6018 14.5588 65.5452 15.9542Z" fill="#8E4DD5"/>
<path d="M31.4579 38.8053C30.3153 39.5805 30.0176 41.1352 30.7928 42.2777C31.5681 43.4203 33.1227 43.718 34.2653 42.9428C35.4078 42.1675 35.7055 40.6129 34.9303 39.4703C34.155 38.3278 32.6004 38.0301 31.4579 38.8053Z" fill="#8E4DD5"/>
<path d="M28.8532 21.0073L36.3059 19.5237L40.4381 13.1466L41.9217 20.5992L48.2988 24.7314L40.8464 26.2154L36.714 32.5922L35.2303 25.1395L28.8532 21.0073Z" fill="#FFCC00"/>
<path d="M3.73385 36.0803L10.7542 36.7895L16.1571 32.2511L15.4479 39.2714L19.9863 44.6743L12.9661 43.9655L7.56309 48.5036L8.27226 41.4832L3.73385 36.0803Z" fill="#3897FF"/>
<path d="M23.433 73.3045L27.2786 71.2882L28.5144 67.1256L30.5308 70.9714L34.6934 72.207L30.8478 74.2234L29.6119 78.386L27.5956 74.5405L23.433 73.3045Z" fill="#00A98F"/>
</svg>
