<svg width="16" height="16" viewBox="0 0 16 16" fill="none" xmlns="http://www.w3.org/2000/svg">
<path d="M8 16.0005C3.58878 16.0005 0 12.4117 0 8.00049C0 3.58927 3.58878 0.000488281 8 0.000488281C12.4112 0.000488281 16 3.58927 16 8.00049C16 12.4117 12.4112 16.0005 8 16.0005Z" fill="#FFD23B"/>
<path d="M8 0.000488281V16.0005C12.4112 16.0005 16 12.4117 16 8.00049C16 3.58927 12.4112 0.000488281 8 0.000488281Z" fill="#FFB24A"/>
<path d="M8.00423 13.3758C6.69361 13.3758 5.46098 12.6774 4.78742 11.5531C4.65436 11.331 4.72655 11.0431 4.94861 10.9101C5.1707 10.777 5.45855 10.8492 5.59161 11.0713C6.09679 11.9145 7.02126 12.4383 8.00423 12.4383C8.98997 12.4383 9.91578 11.9122 10.4203 11.0653C10.5528 10.843 10.8405 10.77 11.0629 10.9026C11.2853 11.0351 11.3582 11.3228 11.2257 11.5452C10.553 12.6744 9.31857 13.3758 8.00423 13.3758Z" fill="#2D3E53"/>
<path d="M9.30272 7.25236C9.02716 7.25236 8.80376 7.02896 8.80376 6.75339V6.68689C8.80376 6.39343 8.56501 6.15468 8.27154 6.15468H7.74304C7.44957 6.15468 7.21082 6.39343 7.21082 6.68689V6.74624C7.21082 7.0218 6.98742 7.24521 6.71186 7.24521C6.4363 7.24521 6.21289 7.0218 6.21289 6.74624V6.68689C6.21289 5.84318 6.89933 5.15674 7.74304 5.15674H8.27154C9.11525 5.15674 9.80169 5.84318 9.80169 6.68689V6.75339C9.80169 7.02899 9.57828 7.25236 9.30272 7.25236Z" fill="#2D3E53"/>
<path fill-rule="evenodd" clip-rule="evenodd" d="M3.26809 5.06299H6.46716C6.60885 5.06299 6.73082 5.11908 6.82304 5.22664C6.91526 5.33421 6.95204 5.46333 6.93038 5.60336C6.84622 6.14767 6.76216 6.59576 6.67825 7.22619C6.61172 7.72613 6.19138 8.09422 5.687 8.09422C5.14059 8.09422 4.59418 8.09422 4.04778 8.09422C3.54346 8.09422 3.12321 7.72625 3.05655 7.22641C2.97249 6.59582 2.88862 6.14761 2.8048 5.60305C2.78327 5.46305 2.82012 5.33405 2.9123 5.22655C3.00452 5.11905 3.12643 5.06299 3.26809 5.06299Z" fill="#4E5D6F"/>
<path d="M5.68498 8.563H4.04576C3.30066 8.563 2.68838 8.02694 2.58991 7.28837C2.53597 6.88403 2.48094 6.54837 2.42769 6.22381C2.39882 6.0479 2.36901 5.86605 2.33951 5.6744C2.29722 5.39977 2.3736 5.13236 2.55448 4.9214C2.73551 4.71039 2.98819 4.59424 3.26607 4.59424H6.46513C6.74313 4.59424 6.99592 4.71049 7.17685 4.92158C7.35785 5.13271 7.4341 5.40027 7.39157 5.67505C7.36238 5.86387 7.33288 6.04321 7.30435 6.21665C7.2506 6.54321 7.19507 6.88093 7.14088 7.28806C7.04257 8.02681 6.43026 8.563 5.68498 8.563ZM3.26607 5.53174C3.29488 5.7188 3.32432 5.89834 3.35282 6.07199C3.40716 6.40343 3.46341 6.74615 3.51916 7.16446C3.55479 7.43162 3.77626 7.6255 4.04576 7.6255H5.68498C5.95454 7.6255 6.17601 7.43156 6.21157 7.16437C6.2677 6.74293 6.32442 6.39802 6.37929 6.06446C6.40748 5.89324 6.4366 5.71615 6.4651 5.53174H3.26607ZM6.4706 5.53205H6.47095H6.4706Z" fill="#2D3E53"/>
<path d="M8.26425 5.15674H8V6.15468H8.26425C8.55772 6.15468 8.79647 6.39343 8.79647 6.68689V6.75339C8.79647 7.02896 9.01987 7.25236 9.29543 7.25236C9.57099 7.25236 9.7944 7.02896 9.7944 6.75339V6.68689C9.7944 5.84318 9.10796 5.15674 8.26425 5.15674Z" fill="#16202D"/>
<path fill-rule="evenodd" clip-rule="evenodd" d="M9.52004 5.06299H12.7191C12.8608 5.06299 12.9828 5.11908 13.075 5.22664C13.1672 5.33421 13.204 5.46333 13.1823 5.60336C13.0982 6.14767 13.0141 6.59576 12.9302 7.22619C12.8637 7.72613 12.4433 8.09422 11.939 8.09422C11.3925 8.09422 10.8461 8.09422 10.2997 8.09422C9.79542 8.09422 9.37516 7.72625 9.30851 7.22641C9.22444 6.59582 9.14057 6.14761 9.05676 5.60305C9.03523 5.46305 9.07207 5.33405 9.16426 5.22655C9.25648 5.11905 9.37838 5.06299 9.52004 5.06299Z" fill="#2D3948"/>
<path d="M11.9408 8.563H10.3016C9.55652 8.563 8.94424 8.02694 8.84577 7.28837C8.79183 6.88403 8.7368 6.54837 8.68355 6.22381C8.65468 6.0479 8.62487 5.86605 8.59537 5.6744C8.55308 5.39971 8.62946 5.13227 8.8104 4.92136C8.9914 4.71039 9.24408 4.59424 9.52196 4.59424H12.721C12.999 4.59424 13.2518 4.71049 13.4327 4.92158C13.6137 5.13271 13.69 5.40027 13.6475 5.67505C13.6183 5.86387 13.5888 6.04321 13.5602 6.21665C13.5065 6.54321 13.451 6.88093 13.3968 7.28806C13.2984 8.02681 12.6861 8.563 11.9408 8.563ZM9.52193 5.53174C9.55074 5.7188 9.58018 5.89834 9.60868 6.07199C9.66302 6.40343 9.71927 6.74615 9.77502 7.16446C9.81065 7.43162 10.0321 7.6255 10.3016 7.6255H11.9408C12.2104 7.6255 12.4319 7.43156 12.4674 7.16437C12.5236 6.74293 12.5803 6.39802 12.6352 6.06446C12.6633 5.89324 12.6925 5.71615 12.721 5.53174H9.52193ZM12.7265 5.53205H12.7268H12.7265Z" fill="#16202D"/>
<path d="M11.0588 10.9026C10.8363 10.77 10.5486 10.843 10.4162 11.0653C9.91156 11.9122 8.98575 12.4382 8 12.4382V13.3757C9.31434 13.3757 10.5488 12.6743 11.2215 11.5452C11.354 11.3228 11.2812 11.0351 11.0588 10.9026Z" fill="#16202D"/>
</svg>
