<svg width="188" height="27" viewBox="0 0 188 27" fill="none" xmlns="http://www.w3.org/2000/svg">
<path d="M0.123047 0.643092H11.6613C13.9422 0.643092 15.7809 1.28765 17.1773 2.57676C18.5738 3.85426 19.272 5.65437 19.272 7.9771C19.272 9.97465 18.6494 11.7167 17.4042 13.2032C16.1591 14.6782 14.2448 15.4156 11.6613 15.4156H3.59674V26.2337H0.123047V0.643092ZM15.7634 7.99452C15.7634 6.11311 15.0652 4.83561 13.6687 4.16202C12.9007 3.802 11.8475 3.62199 10.5092 3.62199H3.59674V12.489H10.5092C12.0686 12.489 13.3312 12.158 14.2971 11.496C15.2746 10.8341 15.7634 9.66689 15.7634 7.99452Z" fill="#C4C4C4"/>
<path d="M18.2483 0.643092H22.2981L29.6644 12.9419L37.0307 0.643092H41.0979L31.41 15.9208V26.2337H27.9363V15.9208L18.2483 0.643092Z" fill="#C4C4C4"/>
<path d="M45.1614 0.643092H50.1363L57.5027 22.2793L64.8166 0.643092H69.7392V26.2337H66.44V11.1302C66.44 10.6076 66.4517 9.74237 66.4749 8.53456C66.4982 7.32674 66.5098 6.03182 66.5098 4.6498L59.1959 26.2337H55.7571L48.3908 4.6498V5.43372C48.3908 6.06085 48.4024 7.01898 48.4257 8.30809C48.4606 9.58559 48.478 10.5263 48.478 11.1302V26.2337H45.1614V0.643092Z" fill="#C4C4C4"/>
<path d="M66.44 0.643092H70.5421L83.4943 21.3734V0.643092H86.7934V26.2337H82.9008L69.6437 4.6498L69.7566 26.2337H66.44V13.4384V0.643092Z" fill="#C4C4C4"/>
<path d="M110.596 0.643092V3.69167H101.955V26.2337H98.4291V3.69167H89.7885V0.643092H110.596Z" fill="#C4C4C4"/>
<path d="M116.059 17.9764C116.141 19.4281 116.484 20.6069 117.089 21.5128C118.241 23.2084 120.272 24.0562 123.181 24.0562C124.485 24.0562 125.672 23.8704 126.742 23.4987C128.814 22.7787 129.849 21.4896 129.849 19.6314C129.849 18.2377 129.413 17.2448 128.54 16.6525C127.656 16.0718 126.271 15.5666 124.386 15.1369L120.912 14.353C118.643 13.842 117.037 13.2787 116.094 12.6632C114.465 11.5947 113.651 9.99787 113.651 7.87258C113.651 5.57308 114.448 3.68586 116.042 2.21093C117.636 0.736001 119.894 -0.00146484 122.815 -0.00146484C125.503 -0.00146484 127.784 0.648899 129.657 1.94963C131.543 3.23874 132.485 5.30596 132.485 8.15131H129.221C129.047 6.7809 128.674 5.72986 128.104 4.9982C127.045 3.66264 125.247 2.99485 122.71 2.99485C120.662 2.99485 119.19 3.42456 118.294 4.28397C117.398 5.14337 116.95 6.14215 116.95 7.28028C116.95 8.53456 117.473 9.45203 118.521 10.0327C119.207 10.4044 120.761 10.8689 123.181 11.4263L126.777 12.2451C128.511 12.64 129.849 13.18 130.792 13.8652C132.421 15.0614 133.236 16.7977 133.236 19.0739C133.236 21.9077 132.2 23.9342 130.129 25.1537C128.069 26.3731 125.672 26.9828 122.937 26.9828C119.748 26.9828 117.252 26.1699 115.448 24.5439C113.645 22.9297 112.76 20.7405 112.795 17.9764H116.059Z" fill="#C4C4C4"/>
<path d="M66.4102 0.640381L69.7579 0.640372V26.2794L66.4102 26.2794V0.640381Z" fill="#C4C4C4"/>
<path d="M137.753 26.9641C137.219 26.9641 136.761 26.7758 136.379 26.3993C136.001 26.0173 135.812 25.56 135.812 25.0275C135.812 24.5003 136.001 24.0484 136.379 23.6718C136.761 23.2952 137.219 23.1069 137.753 23.1069C138.271 23.1069 138.723 23.2952 139.112 23.6718C139.5 24.0484 139.694 24.5003 139.694 25.0275C139.694 25.3825 139.602 25.708 139.419 26.0039C139.241 26.2944 139.006 26.5284 138.715 26.7059C138.424 26.8781 138.103 26.9641 137.753 26.9641Z" fill="#898989"/>
<path d="M148.133 26.9964C146.861 26.9964 145.767 26.7274 144.85 26.1895C143.939 25.6461 143.239 24.893 142.748 23.93C142.263 22.9671 142.02 21.8589 142.02 20.6054C142.02 19.3358 142.266 18.2222 142.756 17.2646C143.252 16.3017 143.956 15.5512 144.867 15.0133C145.778 14.4699 146.861 14.1982 148.117 14.1982C149.201 14.1982 150.149 14.3946 150.963 14.7873C151.777 15.18 152.421 15.7314 152.896 16.4416C153.37 17.1517 153.632 17.9855 153.68 18.9431H150.43C150.338 18.3244 150.095 17.8268 149.702 17.4502C149.314 17.0683 148.804 16.8773 148.174 16.8773C147.64 16.8773 147.174 17.0226 146.775 17.3131C146.381 17.5982 146.074 18.0151 145.853 18.5638C145.632 19.1125 145.522 19.7769 145.522 20.557C145.522 21.3478 145.629 22.0202 145.845 22.5743C146.066 23.1284 146.376 23.5507 146.775 23.8412C147.174 24.1318 147.64 24.277 148.174 24.277C148.567 24.277 148.92 24.1963 149.233 24.0349C149.551 23.8735 149.812 23.6395 150.017 23.3329C150.227 23.0209 150.365 22.647 150.43 22.2112H153.68C153.626 23.158 153.367 23.9919 152.904 24.7128C152.446 25.4282 151.812 25.9877 151.004 26.3912C150.195 26.7947 149.238 26.9964 148.133 26.9964Z" fill="#898989"/>
<path d="M161.497 26.9964C160.241 26.9964 159.155 26.7301 158.239 26.1975C157.328 25.6596 156.624 24.9118 156.128 23.9542C155.632 22.9913 155.384 21.875 155.384 20.6054C155.384 19.325 155.632 18.2061 156.128 17.2485C156.624 16.2855 157.328 15.5378 158.239 15.0052C159.155 14.4672 160.241 14.1982 161.497 14.1982C162.753 14.1982 163.837 14.4672 164.748 15.0052C165.664 15.5378 166.37 16.2855 166.866 17.2485C167.362 18.2061 167.61 19.325 167.61 20.6054C167.61 21.875 167.362 22.9913 166.866 23.9542C166.37 24.9118 165.664 25.6596 164.748 26.1975C163.837 26.7301 162.753 26.9964 161.497 26.9964ZM161.513 24.3335C162.085 24.3335 162.562 24.1721 162.944 23.8493C163.327 23.5212 163.616 23.0747 163.81 22.5098C164.009 21.9449 164.109 21.3021 164.109 20.5812C164.109 19.8603 164.009 19.2174 163.81 18.6526C163.616 18.0877 163.327 17.6412 162.944 17.3131C162.562 16.9849 162.085 16.8208 161.513 16.8208C160.936 16.8208 160.451 16.9849 160.058 17.3131C159.67 17.6412 159.376 18.0877 159.176 18.6526C158.982 19.2174 158.885 19.8603 158.885 20.5812C158.885 21.3021 158.982 21.9449 159.176 22.5098C159.376 23.0747 159.67 23.5212 160.058 23.8493C160.451 24.1721 160.936 24.3335 161.513 24.3335Z" fill="#898989"/>
<path d="M169.85 26.7543V14.3596H173.133V16.5465H173.278C173.537 15.8202 173.968 15.2473 174.572 14.8277C175.176 14.408 175.898 14.1982 176.739 14.1982C177.591 14.1982 178.316 14.4107 178.914 14.8357C179.512 15.2553 179.911 15.8256 180.111 16.5465H180.24C180.493 15.8363 180.952 15.2688 181.615 14.8438C182.283 14.4134 183.073 14.1982 183.984 14.1982C185.143 14.1982 186.083 14.5667 186.806 15.3038C187.533 16.0354 187.897 17.0737 187.897 18.4186V26.7543H184.461V19.0964C184.461 18.4078 184.278 17.8914 183.911 17.5471C183.544 17.2028 183.086 17.0306 182.536 17.0306C181.911 17.0306 181.423 17.2297 181.073 17.6278C180.722 18.0205 180.547 18.5396 180.547 19.1852V26.7543H177.208V19.0238C177.208 18.4159 177.033 17.9317 176.682 17.5713C176.337 17.2108 175.882 17.0306 175.316 17.0306C174.933 17.0306 174.588 17.1275 174.281 17.3211C173.979 17.5094 173.739 17.7757 173.561 18.12C173.383 18.4589 173.294 18.857 173.294 19.3143V26.7543H169.85Z" fill="#898989"/>
</svg>
