<svg width="945" height="393" viewBox="0 0 945 393" fill="none" xmlns="http://www.w3.org/2000/svg">
<path d="M512.417 311.155C510.762 311.077 509.484 309.672 509.562 308.017C509.64 306.362 511.046 305.083 512.701 305.161C514.356 305.239 515.634 306.644 515.555 308.299C515.477 309.954 514.072 311.232 512.417 311.155Z" fill="#3897FF"/>
<path d="M597.775 291.215C595.017 291.086 592.886 288.745 593.017 285.986C593.147 283.228 595.489 281.097 598.248 281.226C601.006 281.356 603.136 283.697 603.006 286.455C602.875 289.214 600.533 291.345 597.775 291.215Z" fill="#8E4DD5"/>
<path d="M678.158 286.188C675.951 286.084 674.247 284.211 674.351 282.004C674.455 279.798 676.329 278.093 678.536 278.197C680.742 278.3 682.447 280.173 682.342 282.38C682.238 284.586 680.364 286.291 678.158 286.188Z" fill="#00A98F"/>
<path d="M2.91877 383.131C1.53958 383.066 0.474427 381.895 0.539688 380.516C0.604948 379.137 1.77591 378.072 3.1551 378.136C4.53429 378.201 5.59944 379.372 5.53418 380.751C5.46892 382.13 4.29797 383.196 2.91877 383.131Z" fill="#00A98F"/>
<path d="M916.569 174.831C915.003 174.291 914.174 172.584 914.719 171.019C915.263 169.455 916.975 168.624 918.541 169.164C920.107 169.704 920.936 171.411 920.391 172.976C919.846 174.541 918.135 175.371 916.569 174.831Z" fill="#00A98F"/>
<path d="M910.127 142.063C909.344 141.793 908.93 140.94 909.202 140.157C909.474 139.375 910.33 138.96 911.113 139.23C911.896 139.5 912.311 140.353 912.038 141.136C911.766 141.918 910.91 142.333 910.127 142.063Z" fill="#00A98F"/>
<path d="M904.631 212.011C902.021 211.111 900.64 208.267 901.548 205.659C902.455 203.051 905.307 201.667 907.918 202.567C910.528 203.467 911.909 206.311 911.001 208.92C910.094 211.528 907.242 212.912 904.631 212.011Z" fill="#8E4DD5"/>
<path d="M939.098 53.8132C937.27 53.183 936.304 51.1921 936.939 49.3664C937.575 47.5408 939.571 46.5718 941.398 47.2021C943.226 47.8323 944.192 49.8232 943.557 51.6488C942.922 53.4745 940.925 54.4435 939.098 53.8132Z" fill="#8E4DD5"/>
<path d="M910.625 60.1648C908.015 59.2644 906.634 56.4203 907.542 53.8122C908.449 51.2042 911.301 49.8199 913.912 50.7203C916.522 51.6207 917.903 54.4648 916.995 57.0728C916.088 59.6809 913.236 61.0652 910.625 60.1648Z" fill="#3897FF"/>
<path d="M913.343 100.139L920.004 97.7913L926.32 100.923L923.989 94.2701L927.139 87.9487L920.478 90.2968L914.162 87.1651L916.493 93.8175L913.343 100.139Z" fill="#FFCC00"/>
<path d="M870.736 228.156L874.503 228.681L876.748 231.741L877.279 227.982L880.35 225.738L876.583 225.213L874.337 222.153L873.806 225.911L870.736 228.156Z" fill="#FFCC00"/>
<path d="M284.738 340.91L288.505 341.435L290.751 344.495L291.282 340.737L294.352 338.493L290.585 337.968L288.34 334.908L287.809 338.666L284.738 340.91Z" fill="#FFCC00"/>
<path d="M920.297 239.954L922.988 240.329L924.592 242.515L924.971 239.831L927.164 238.228L924.474 237.853L922.87 235.667L922.49 238.351L920.297 239.954Z" fill="#8E4DD5"/>
<path d="M907.75 13.6657L910.441 14.0407L912.045 16.2264L912.424 13.5418L914.617 11.939L911.927 11.564L910.323 9.37823L909.943 12.0626L907.75 13.6657Z" fill="#00A98F"/>
<path d="M143.589 348.511L146.279 348.886L147.883 351.072L148.262 348.387L150.456 346.784L147.765 346.409L146.161 344.224L145.782 346.908L143.589 348.511Z" fill="#8E4DD5"/>
<path d="M753.596 261.407L760.118 263.74L756.829 250.917L750.019 248.937L753.596 261.407Z" fill="#00A98F"/>
<path d="M411.445 319.669L412.508 324.116L418.387 317.887L417.027 313.4L411.445 319.669Z" fill="#00A98F"/>
<path d="M842.992 259.757L842.827 254.028L833.909 260.303L834.434 266.152L842.992 259.757Z" fill="#3897FF"/>
<path d="M940.481 118.685L940.306 115.305L935.205 118.883L935.591 122.339L940.481 118.685Z" fill="#3897FF"/>
</svg>
