<svg width="230" height="45" viewBox="0 0 230 45" fill="none" xmlns="http://www.w3.org/2000/svg">
<path d="M74.9941 31.0065H79.7924V16.7521H86.8925V12.278H68.1836V16.7521H74.9941V31.0065Z" fill="#C4C4C4"/>
<path d="M88.4632 31.0065H104.775V26.5948H93.3032V23.8793H103.498V19.788H93.3032V16.7521H104.645V12.278H88.4632V31.0065Z" fill="#C4C4C4"/>
<path d="M125.249 26.7208C125.665 25.8456 125.625 24.2695 125.625 24.2695H120.199C119.73 25.1539 118.511 27.3511 116.453 27.3511C113.951 27.3511 111.991 24.9561 111.991 21.6423C111.991 18.3285 113.951 16.1326 116.453 16.1326C118.511 16.1326 119.73 18.0527 120.199 18.9371H125.625C125.625 18.9371 125.355 17.5646 124.997 16.7521C123.439 13.2194 121.039 11.7578 116.453 11.7578C110.356 11.7578 106.213 15.2434 106.213 21.6423C106.213 28.0412 110.356 31.5268 116.453 31.5268C121.039 31.5268 124.113 29.1158 125.249 26.7208Z" fill="#C4C4C4"/>
<path d="M128.28 31.0065H133.987V23.0653H139.094V31.0065H144.821V12.278H139.094V18.9371H133.987V12.278H128.28V31.0065Z" fill="#C4C4C4"/>
<path d="M169.773 31.008H174.905L175.899 27.3525H182.179L183.113 31.008H188.4L181.364 12.2795H176.783L169.773 31.008ZM177.433 23.3865L179.022 18.6004L180.612 23.3865H177.433Z" fill="#909599"/>
<path d="M188.123 27.1004C189.251 30.1238 191.224 31.5282 196.253 31.5282C201.751 31.5282 203.471 28.953 203.471 25.4154C203.471 21.6437 200.143 20.0637 195.557 19.4134C194.396 19.17 193.072 18.6004 193.506 17.1745C193.745 16.391 194.741 15.7558 195.792 15.7558C197.491 15.7558 198.624 17.4038 199.067 17.9761L202.794 17.9308C202.794 17.9308 202.584 15.4222 201.405 14.2432C199.735 12.5717 198.606 12.0992 195.792 11.9743C191.825 11.7983 188.191 14.0223 188.191 17.6899C188.191 20.4732 189.546 22.7883 195.33 23.9068C197.754 24.375 198.501 25.0513 198.249 26.092C198.031 26.9867 197.582 27.3525 196.253 27.3525C194.195 27.3525 193.1 25.4675 192.788 25.0513H187.642C187.642 25.0513 187.86 26.3943 188.123 27.1004Z" fill="#909599"/>
<path d="M204.81 31.008H210.497L210.244 12.2795H204.81V31.008Z" fill="#909599"/>
<path d="M210.497 31.008H215.628L216.622 27.3525H222.902L223.836 31.008H229.123L222.087 12.2795H217.506L210.497 31.008ZM218.156 23.3865L219.745 18.6004L221.335 23.3865H218.156Z" fill="#909599"/>
<path d="M146.998 31.0796V12.3512H148.77V31.0796H146.998Z" fill="#909599"/>
<path d="M155.397 14.7442H155.345V31.0796H153.573V12.3512H155.579L166.419 28.7126H166.471V12.3512H168.243V31.0796H166.184L155.397 14.7442Z" fill="#909599"/>
<path d="M43.5534 17.0153L47.9728 19.4103L44.1847 12.8557L24.8655 44.9985L17.7944 32.5195V22.8137L0.748047 8.06576H27.7697L35.0933 12.0994L31.9366 17.2674L26.2545 14.3683H18.4258L24.4867 19.7885V32.5195L44.1847 -0.00146484L65.1455 36.5532L40.1441 22.3095L43.5534 17.0153Z" fill="#C4C4C4"/>
</svg>
