<svg width="223" height="33" viewBox="0 0 223 33" fill="none" xmlns="http://www.w3.org/2000/svg">
<path d="M78.7453 32.337H83.6278V17.1863H90.0147V13.3327H72.3848V17.1863H78.7453V32.337Z" fill="#C4C4C4"/>
<path d="M93.743 26.8996H101.894C102.395 21.5679 99.7692 18.5857 95.7377 18.6116C92.0397 18.6354 89.4119 21.4095 89.4119 25.6591C89.4119 29.9086 91.0927 32.6537 95.8433 32.6537C99.4854 32.6537 100.621 31.4508 101.545 30.1838L99.8819 28.0094C99.486 28.3262 97.7081 29.5137 96.5567 29.4164C95.0877 29.2923 93.8486 28.2458 93.743 26.8996ZM98.0914 24.6033H93.743C93.875 23.1252 94.63 22.1257 95.9172 22.1257C97.2044 22.1257 98.065 23.1516 98.0914 24.6033Z" fill="#C4C4C4"/>
<path d="M115.357 29.928L112.367 27.6123C112.05 28.1402 111.512 28.9048 110.113 28.9048C109.675 28.9048 107.939 28.9048 107.939 25.6591C107.939 22.4134 109.346 22.1292 110.113 22.1257C110.881 22.1222 112.05 23.0724 112.367 23.6003L115.229 21.6141C114.718 20.5908 112.689 18.5588 109.675 18.5588C106.66 18.5588 103.975 21.4095 103.975 25.6591C103.975 29.9086 107.044 32.7593 109.675 32.6537C113.37 32.6537 114.462 31.5908 115.357 29.928Z" fill="#C4C4C4"/>
<path d="M117.144 32.337H121.816V25.4743C121.816 23.6267 121.977 22.1257 123.798 22.1257C125.593 22.1257 125.722 23.5739 125.722 25.4215V32.337L129.937 32.3898V25.4743C129.937 21.3831 129.865 18.6116 125.722 18.6116C123.452 18.6116 122.344 19.773 121.816 20.776V12.2769L117.144 14.3234V32.337Z" fill="#C4C4C4"/>
<path d="M149.959 27.9554L145.72 25.7382C145.219 26.6093 144.456 28.5461 142.395 28.582C140.335 28.6178 138.942 25.7382 138.942 22.8612C138.942 19.9842 139.849 17.539 142.395 17.4541C144.352 17.3888 145.603 19.9086 146.104 20.7796L149.959 19.1923C148.956 16.3945 146.215 13.1424 142.395 12.9773C137.357 12.7595 134.086 16.4472 134.086 22.8612C134.086 29.2752 137.301 32.9731 142.395 32.9177C145.928 32.8792 148.956 30.7533 149.959 27.9554Z" fill="#909599"/>
<path d="M152.112 32.6537H156.784V25.9494C156.784 23.8114 158.211 22.1122 160.003 22.5181C160.798 22.698 161.195 23.2099 161.707 23.7215L162.73 19.6285C162.202 19.4701 161.033 18.9284 160.214 18.9284C158.05 18.9284 157.047 20.5121 156.784 21.1455V19.1923H152.112V32.6537Z" fill="#909599"/>
<path d="M173.752 32.6537H176.088H177.566V25.923V19.1923H172.962V26.1078C172.962 27.9554 172.763 29.3494 170.915 29.3494C169.121 29.3494 169.125 27.9554 169.125 26.1078V19.1923H164.904V26.1078C164.904 30.199 165.702 32.9177 169.846 32.9177C172.116 32.9177 173.224 31.7563 173.752 30.7533V32.6537Z" fill="#909599"/>
<path d="M181.159 32.6537H185.83V25.791C185.83 23.9434 185.848 22.5181 187.669 22.5181C189.464 22.5181 189.736 23.8906 189.736 25.7382V32.6537H194.265V25.7382C194.265 21.647 192.529 18.2215 188.565 19.045C187.259 19.3163 186.358 20.0897 185.83 21.0927V19.1923H181.159V32.6537Z" fill="#909599"/>
<path d="M208.168 29.928L205.177 27.6123C204.861 28.1402 204.323 28.9048 202.924 28.9048C202.485 28.9048 200.75 28.9048 200.75 25.6591C200.75 22.4134 202.157 22.1292 202.924 22.1257C203.691 22.1222 204.861 23.0724 205.177 23.6003L208.04 21.6141C207.528 20.5908 205.5 18.5588 202.485 18.5588C199.471 18.5588 196.785 21.4095 196.785 25.6591C196.785 29.9086 199.855 32.7593 202.485 32.6537C206.18 32.6537 207.272 31.5908 208.168 29.928Z" fill="#909599"/>
<path d="M209.955 32.337H214.627V25.4743C214.627 23.6267 214.788 22.1257 216.609 22.1257C218.403 22.1257 218.533 23.5739 218.533 25.4215V32.337L222.748 32.3898V25.4743C222.748 21.3831 222.676 18.6116 218.533 18.6116C216.263 18.6116 215.154 19.773 214.627 20.776V12.2769L209.955 14.3234V32.337Z" fill="#909599"/>
<path d="M64.5291 22.0736V32.9985H32.3209V11.4866H21.3971V32.9985H10.8112V11.4866H0V-0.00146484H32.3209V11.4866H43.132V-0.00146484H64.5291V11.4866H43.132V22.0736H64.5291Z" fill="#C4C4C4"/>
</svg>
