<svg width="213" height="25" viewBox="0 0 213 25" fill="none" xmlns="http://www.w3.org/2000/svg">
<path d="M13.2786 19.1752L16.3651 5.94688H14.4989V1.0941H24.6917V5.94688H23.0407L18.0161 24.4593H7.28493L2.54743 5.94688H0.896484V1.0941H11.6635V5.94688H9.76135L12.6326 19.1752H13.2786Z" fill="#C4C4C4"/>
<path d="M42.1875 17.8811C42.1875 18.8397 42.0559 19.7503 41.7927 20.6131C41.5535 21.4758 41.0869 22.2307 40.393 22.8777C39.7231 23.5247 38.8019 24.04 37.6295 24.4234C36.4571 24.8068 34.9617 24.9985 33.1432 24.9985C31.8273 24.9985 30.6429 24.8547 29.5901 24.5672C28.5373 24.3036 27.6401 23.8123 26.8983 23.0934C26.1566 22.3744 25.5824 21.4039 25.1756 20.1817C24.7689 18.9356 24.5655 17.3539 24.5655 15.4368C24.5655 13.6394 24.7569 12.1297 25.1397 10.9075C25.5465 9.66136 26.1327 8.65485 26.8983 7.88799C27.6879 7.12113 28.645 6.56995 29.7695 6.23445C30.918 5.87499 32.234 5.69526 33.7175 5.69526C35.2966 5.69526 36.6246 5.87499 37.7013 6.23445C38.778 6.56995 39.6393 7.08519 40.2854 7.78015C40.9553 8.45116 41.4338 9.30189 41.721 10.3324C42.032 11.3389 42.1875 12.5011 42.1875 13.8192V16.4433H31.241C31.241 17.2581 31.2769 17.9171 31.3487 18.4203C31.4444 18.8996 31.588 19.2711 31.7794 19.5347C31.9947 19.7743 32.2699 19.9421 32.6049 20.0379C32.9398 20.1098 33.3705 20.1458 33.8969 20.1458C34.7822 20.1458 35.4043 19.9421 35.7632 19.5347C36.1221 19.1273 36.3016 18.5761 36.3016 17.8811H42.1875ZM33.7175 10.4761C33.2389 10.4761 32.8441 10.5121 32.5331 10.584C32.222 10.6559 31.9708 10.7997 31.7794 11.0153C31.588 11.2071 31.4444 11.4826 31.3487 11.8421C31.2769 12.1776 31.241 12.621 31.241 13.1721H36.158C36.158 12.621 36.1221 12.1776 36.0503 11.8421C35.9785 11.4826 35.847 11.2071 35.6555 11.0153C35.488 10.7997 35.2488 10.6559 34.9377 10.584C34.6267 10.5121 34.2199 10.4761 33.7175 10.4761Z" fill="#C4C4C4"/>
<path d="M51.5871 9.43369C52.0657 8.13962 52.8074 7.19303 53.8123 6.59392C54.8172 5.99481 56.0614 5.69526 57.5449 5.69526C58.3584 5.69526 59.1001 5.79111 59.7701 5.98283C60.4639 6.17454 61.0621 6.51004 61.5646 6.98933C62.067 7.44465 62.4499 8.06773 62.7131 8.85855C63.0002 9.62541 63.1437 10.596 63.1437 11.7702V19.6425H64.8665V24.4593H55.2838V19.6425H56.7194V13.5316C56.7194 12.7168 56.5758 12.1297 56.2887 11.7702C56.0016 11.4108 55.4752 11.231 54.7096 11.231C54.0157 11.231 53.4414 11.4347 52.9868 11.8421C52.5322 12.2495 52.3049 12.9565 52.3049 13.963V19.6425H53.7405V24.4593H44.1579V19.6425H45.8806V11.0513H44.3014V6.23445H51.5871V9.43369Z" fill="#C4C4C4"/>
<path d="M67.2563 6.23445V2.13044L73.6806 -0.00146484V6.23445H77.126V11.0513H73.6806V18.2406C73.6806 18.7918 73.7763 19.1872 73.9677 19.4268C74.1831 19.6665 74.5778 19.7863 75.1521 19.7863C75.4631 19.7863 75.846 19.7743 76.3006 19.7503C76.7791 19.7024 77.2218 19.6425 77.6285 19.5706V24.3515C77.2218 24.4474 76.5757 24.5432 75.6904 24.6391C74.8291 24.7589 73.9318 24.8188 72.9987 24.8188C71.8502 24.8188 70.9051 24.7229 70.1634 24.5312C69.4216 24.3635 68.8354 24.0519 68.4047 23.5966C67.9741 23.1173 67.675 22.4583 67.5075 21.6196C67.34 20.7808 67.2563 19.7024 67.2563 18.3844V11.0513H65.5335V6.23445H67.2563Z" fill="#C4C4C4"/>
<path d="M86.495 6.23445V18.5641C86.495 19.5466 86.9497 20.0379 87.8589 20.0379C88.8159 20.0379 89.4739 19.8342 89.8328 19.4268C90.2157 19.0194 90.4071 18.4683 90.4071 17.7733V11.0513H88.469V6.23445H96.8314V18.6719C96.8314 19.0793 96.8793 19.343 96.975 19.4628C97.0946 19.5826 97.3458 19.6425 97.7287 19.6425H98.5541V24.4593H94.2832C93.2783 24.4593 92.5007 24.2556 91.9504 23.8482C91.424 23.4169 91.1488 22.638 91.1249 21.5117C90.6942 22.5662 90.0003 23.4169 89.0433 24.0639C88.1101 24.687 86.842 24.9985 85.2389 24.9985C84.4493 24.9985 83.7315 24.9027 83.0855 24.711C82.4634 24.5432 81.925 24.2556 81.4704 23.8482C81.0397 23.4169 80.6928 22.8537 80.4296 22.1588C80.1904 21.4398 80.0707 20.5412 80.0707 19.4628V11.0513H78.3839V6.23445H86.495Z" fill="#C4C4C4"/>
<path d="M101.819 19.6425V11.0513H100.24V6.23445H108.243V8.85855C108.602 7.73222 109.164 6.92942 109.93 6.45013C110.696 5.94688 111.76 5.69526 113.124 5.69526C113.698 5.69526 114.273 5.74318 114.847 5.83904C115.421 5.9349 115.876 6.04274 116.211 6.16256V13.5316H111.33V11.3389C111.258 11.3149 111.138 11.2909 110.971 11.267C110.827 11.219 110.624 11.1951 110.361 11.1951C110.097 11.1951 109.834 11.231 109.571 11.3029C109.332 11.3748 109.116 11.5306 108.925 11.7702C108.734 12.0099 108.566 12.3573 108.423 12.8127C108.303 13.244 108.243 13.8312 108.243 14.574V19.6425H110.684V24.4593H100.096V19.6425H101.819Z" fill="#C4C4C4"/>
<path d="M135.453 17.8811C135.453 18.8397 135.321 19.7503 135.058 20.6131C134.819 21.4758 134.352 22.2307 133.658 22.8777C132.988 23.5247 132.067 24.04 130.895 24.4234C129.722 24.8068 128.227 24.9985 126.409 24.9985C125.093 24.9985 123.908 24.8547 122.855 24.5672C121.803 24.3036 120.905 23.8123 120.164 23.0934C119.422 22.3744 118.848 21.4039 118.441 20.1817C118.034 18.9356 117.831 17.3539 117.831 15.4368C117.831 13.6394 118.022 12.1297 118.405 10.9075C118.812 9.66136 119.398 8.65485 120.164 7.88799C120.953 7.12113 121.91 6.56995 123.035 6.23445C124.183 5.87499 125.499 5.69526 126.983 5.69526C128.562 5.69526 129.89 5.87499 130.967 6.23445C132.043 6.56995 132.905 7.08519 133.551 7.78015C134.221 8.45116 134.699 9.30189 134.986 10.3324C135.297 11.3389 135.453 12.5011 135.453 13.8192V16.4433H124.506C124.506 17.2581 124.542 17.9171 124.614 18.4203C124.71 18.8996 124.853 19.2711 125.045 19.5347C125.26 19.7743 125.535 19.9421 125.87 20.0379C126.205 20.1098 126.636 20.1458 127.162 20.1458C128.048 20.1458 128.67 19.9421 129.029 19.5347C129.387 19.1273 129.567 18.5761 129.567 17.8811H135.453ZM126.983 10.4761C126.504 10.4761 126.109 10.5121 125.798 10.584C125.487 10.6559 125.236 10.7997 125.045 11.0153C124.853 11.2071 124.71 11.4826 124.614 11.8421C124.542 12.1776 124.506 12.621 124.506 13.1721H129.423C129.423 12.621 129.387 12.1776 129.316 11.8421C129.244 11.4826 129.112 11.2071 128.921 11.0153C128.753 10.7997 128.514 10.6559 128.203 10.584C127.892 10.5121 127.485 10.4761 126.983 10.4761Z" fill="#C4C4C4"/>
<path d="M151.241 1.0941C152.27 1.0941 153.179 1.18996 153.969 1.38167C154.782 1.57339 155.464 1.90889 156.014 2.38817C156.565 2.8435 156.971 3.46657 157.235 4.25739C157.522 5.02425 157.665 5.99481 157.665 7.16906C157.665 8.4871 157.462 9.52955 157.055 10.2964C156.648 11.0633 156.062 11.6264 155.296 11.9859C156.636 12.3454 157.57 13.0044 158.096 13.963C158.646 14.8976 158.921 16.1557 158.921 17.7373C158.921 19.0554 158.742 20.1458 158.383 21.0085C158.024 21.8712 157.486 22.5662 156.768 23.0934C156.05 23.5966 155.141 23.9561 154.04 24.1718C152.964 24.3635 151.695 24.4593 150.236 24.4593H137.603V19.6066H139.505V5.94688H137.603V1.0941H151.241ZM146.216 14.7178V19.6066H149.949C150.212 19.6066 150.451 19.5826 150.667 19.5347C150.882 19.4628 151.073 19.3429 151.241 19.1752C151.408 18.9835 151.528 18.7319 151.6 18.4203C151.695 18.0848 151.743 17.6535 151.743 17.1262C151.743 16.3115 151.636 15.7124 151.42 15.3289C151.205 14.9215 150.691 14.7178 149.877 14.7178H146.216ZM146.216 10.0088H149.267C149.793 10.0088 150.152 9.84109 150.344 9.50559C150.535 9.14612 150.631 8.59494 150.631 7.85205C150.631 7.20501 150.535 6.72572 150.344 6.41419C150.176 6.10265 149.817 5.94688 149.267 5.94688H146.216V10.0088Z" fill="#909599"/>
<path d="M178.353 17.8811C178.353 18.8397 178.221 19.7503 177.958 20.6131C177.719 21.4758 177.252 22.2307 176.558 22.8777C175.888 23.5247 174.967 24.04 173.795 24.4234C172.622 24.8068 171.127 24.9985 169.308 24.9985C167.993 24.9985 166.808 24.8547 165.755 24.5672C164.703 24.3036 163.805 23.8123 163.064 23.0934C162.322 22.3744 161.748 21.4039 161.341 20.1817C160.934 18.9356 160.731 17.3539 160.731 15.4368C160.731 13.6394 160.922 12.1297 161.305 10.9075C161.712 9.66136 162.298 8.65485 163.064 7.88799C163.853 7.12113 164.81 6.56995 165.935 6.23445C167.083 5.87499 168.399 5.69526 169.883 5.69526C171.462 5.69526 172.79 5.87499 173.867 6.23445C174.943 6.56995 175.805 7.08519 176.451 7.78015C177.121 8.45116 177.599 9.30189 177.886 10.3324C178.197 11.3389 178.353 12.5011 178.353 13.8192V16.4433H167.406C167.406 17.2581 167.442 17.9171 167.514 18.4203C167.61 18.8996 167.753 19.2711 167.945 19.5347C168.16 19.7743 168.435 19.9421 168.77 20.0379C169.105 20.1098 169.536 20.1458 170.062 20.1458C170.947 20.1458 171.57 19.9421 171.928 19.5347C172.287 19.1273 172.467 18.5761 172.467 17.8811H178.353ZM169.883 10.4761C169.404 10.4761 169.009 10.5121 168.698 10.584C168.387 10.6559 168.136 10.7997 167.945 11.0153C167.753 11.2071 167.61 11.4826 167.514 11.8421C167.442 12.1776 167.406 12.621 167.406 13.1721H172.323C172.323 12.621 172.287 12.1776 172.216 11.8421C172.144 11.4826 172.012 11.2071 171.821 11.0153C171.653 10.7997 171.414 10.6559 171.103 10.584C170.792 10.5121 170.385 10.4761 169.883 10.4761Z" fill="#909599"/>
<path d="M194.428 24.4593C193.543 24.4593 191.588 24.4593 191.588 24.4593V22.103C191.588 22.103 190.229 23.8363 189.296 24.3155C188.363 24.7709 187.106 24.9985 185.527 24.9985C183.685 24.9985 182.357 24.5432 181.543 23.6326C180.73 22.7219 180.323 21.3679 180.323 19.5706C180.323 18.4443 180.443 17.4857 180.682 16.6949C180.945 15.8801 181.352 15.2211 181.902 14.7178C182.477 14.2146 183.218 13.8551 184.127 13.6394C185.037 13.3998 186.161 13.28 187.501 13.28H190.552V11.914C190.552 11.4347 190.432 11.1112 190.193 10.9434C189.954 10.7517 189.268 10.445 188.721 10.6559C188.446 10.7621 188.317 10.8711 188.115 11.1069C187.86 11.4048 187.839 11.9859 187.839 11.9859H181.281C181.281 11.9859 181.451 9.5396 182.29 8.41395C183.298 7.06122 184.161 6.40409 185.763 6.01877C187.107 5.69526 187.824 5.69526 189.332 5.69526C190.767 5.69526 191.964 5.80309 192.921 6.01877C193.902 6.23445 194.691 6.58194 195.289 7.06122C195.887 7.51655 196.318 8.12764 196.581 8.8945C196.845 9.63739 196.976 10.56 196.976 11.6624V18.6719C196.976 19.0793 196.966 19.6345 196.966 19.6345C196.966 19.6345 197.491 19.6425 197.873 19.6425H198.699V24.4593H194.428ZM188.147 20.0379C188.913 20.0379 189.499 19.8462 189.906 19.4628C190.336 19.0793 190.552 18.636 190.552 18.1328V16.6589H189.116C188.566 16.6589 188.135 16.7069 187.824 16.8027C187.537 16.8986 187.31 17.0304 187.142 17.1981C186.975 17.3659 186.867 17.5696 186.819 17.8092C186.795 18.0249 186.783 18.2646 186.783 18.5282C186.783 19.1033 186.891 19.4987 187.106 19.7144C187.322 19.9301 187.669 20.0379 188.147 20.0379Z" fill="#909599"/>
<path d="M201.774 6.23445V1.90603L208.199 -0.00146484V6.23445H211.644V11.0513H208.199V18.2406C208.199 18.7918 208.294 19.1872 208.486 19.4268C208.701 19.6665 209.096 19.7863 209.67 19.7863C209.981 19.7863 210.364 19.7743 210.819 19.7503C211.297 19.7024 211.74 19.6425 212.146 19.5706V24.3515C211.74 24.4474 211.094 24.5432 210.208 24.6391C209.347 24.7589 208.45 24.8188 207.517 24.8188C206.368 24.8188 205.423 24.7229 204.681 24.5312C203.94 24.3635 203.353 24.0519 202.923 23.5966C202.492 23.1173 202.193 22.4583 202.025 21.6196C201.858 20.7808 201.774 19.7024 201.774 18.3844V11.0513H200.051V6.23445H201.774Z" fill="#909599"/>
</svg>
