<svg width="24" height="16" viewBox="0 0 24 16" fill="none" xmlns="http://www.w3.org/2000/svg">
<path d="M24 0H0V16H24V0Z" fill="#2A2FAF"/>
<path d="M24 0V16H12V0H24Z" fill="#1318A5"/>
<path d="M0 0H12V8H0V0Z" fill="#2A2FAF"/>
<path fill-rule="evenodd" clip-rule="evenodd" d="M0.13905 0L24 15.5022V16H23.2123L0 0.9192V0H0.13905Z" fill="#E92B2B"/>
<path fill-rule="evenodd" clip-rule="evenodd" d="M22.4354 16L0 1.424V0.9192L23.2123 16H22.4354ZM0.916028 0L24 14.9974V15.5022L0.13905 0H0.916028Z" fill="#FBFBFB"/>
<path fill-rule="evenodd" clip-rule="evenodd" d="M0 15.5022V16H0.787672L24 0.9192V0H23.8609L0 15.5022Z" fill="#E92B2B"/>
<path fill-rule="evenodd" clip-rule="evenodd" d="M24 1.424V0.9192L0.787672 16H1.56464L24 1.424ZM0 14.9974V15.5022L23.8609 0H23.0839L0 14.9974Z" fill="#FBFBFB"/>
<path d="M24 0.9192V1.424L12 9.22026V8.71547L24 0.9192Z" fill="#F0F0F0"/>
<path d="M23.0839 0H23.8609L12 7.70592V7.20112L23.0839 0Z" fill="#F0F0F0"/>
<path fill-rule="evenodd" clip-rule="evenodd" d="M1.34657 0L24 14.7116V15.721L0 0.13493V0H1.34657Z" fill="#FBFBFB"/>
<path fill-rule="evenodd" clip-rule="evenodd" d="M0 14.7116V15.721L24 0.13493V0H22.6534L0 14.7116Z" fill="#FBFBFB"/>
<path d="M24 0V0.13493L12 7.92797V6.91856L22.6534 0H24Z" fill="#F0F0F0"/>
<path fill-rule="evenodd" clip-rule="evenodd" d="M13.2857 0H10.7143V6.7368H0V9.2632H10.7143V16H13.2857V9.2632H24V6.7368H13.2857V0Z" fill="#E92B2B"/>
<path d="M13.2857 9.2632V16H12V0H13.2857V6.7368H24V9.2632H13.2857Z" fill="#C60000"/>
<path fill-rule="evenodd" clip-rule="evenodd" d="M0 6.3158H10.2857V0H11.1429V6.7368V7.1579H10.7143H0V6.3158ZM10.2857 16V9.6842H0V8.8421H10.7143H11.1429V9.2632V16H10.2857ZM24 9.6842H13.7143V16H12.8571V9.2632V8.8421H13.2857H24V9.6842ZM13.7143 0V6.3158H24V7.1579H13.2857H12.8571V6.7368V0H13.7143Z" fill="#FBFBFB"/>
<path fill-rule="evenodd" clip-rule="evenodd" d="M24 9.6842H13.7143V16H12.8571V9.2632V8.8421H13.2857H24V9.6842ZM13.7143 0V6.3158H24V7.1579H13.2857H12.8571V6.7368V0H13.7143Z" fill="#F0F0F0"/>
</svg>
