<svg width="145" height="139" viewBox="0 0 145 139" fill="none" xmlns="http://www.w3.org/2000/svg">
<path d="M102.257 94.4573C104.025 92.8838 104.179 90.1685 102.6 88.3924C101.021 86.6164 98.3073 86.4521 96.5385 88.0256C94.7698 89.599 94.616 92.3143 96.195 94.0904C97.7741 95.8665 100.488 96.0307 102.257 94.4573Z" fill="#8E4DD5"/>
<path d="M74.4902 94.2763C75.3259 93.5329 75.3986 92.2499 74.6525 91.4108C73.9065 90.5716 72.6242 90.494 71.7885 91.2374C70.9528 91.9808 70.8802 93.2638 71.6262 94.1029C72.3723 94.9421 73.6546 95.0197 74.4902 94.2763Z" fill="#8E4DD5"/>
<path d="M125.543 36.0743L116.434 39.1531L112.313 47.8435L109.202 38.7154L100.502 34.5586L109.611 31.4793L113.732 22.7893L116.843 31.9175L125.543 36.0743Z" fill="#00A98F"/>
<path d="M114.646 62.725L110.345 64.3306L108.249 68.4159L106.99 64.2788L103.029 62.5454L107.33 60.9396L109.427 56.8545L110.685 60.9917L114.646 62.725Z" fill="#00A98F"/>
<path d="M79.5928 75.2584C80.314 74.0986 79.957 72.5697 78.7953 71.8435C77.6336 71.1173 76.1072 71.4688 75.386 72.6286C74.6648 73.7883 75.0218 75.3172 76.1835 76.0434C77.3452 76.7697 78.8716 76.4182 79.5928 75.2584Z" fill="white"/>
<path d="M42.9353 108.729C43.3453 108.069 43.1423 107.2 42.4818 106.787C41.8213 106.374 40.9534 106.574 40.5433 107.233C40.1332 107.893 40.3362 108.762 40.9968 109.175C41.6573 109.588 42.5252 109.388 42.9353 108.729Z" fill="#00A98F"/>
<path d="M105.776 22.0052L95.6444 22.2905L88.8129 29.759L88.4891 19.6186L81 12.7534L91.1315 12.4676L97.9633 4.99962L98.2871 15.14L105.776 22.0052Z" fill="#3897FF"/>
<path d="M75.3452 74.5391L69.435 76.6262L66.8332 82.3193L64.7142 76.407L59 73.7813L64.9102 71.6942L67.5119 66.0011L69.631 71.9129L75.3452 74.5391Z" fill="#FFCC00"/>
<path d="M56.703 103.086L54.4932 105.458L54.6539 108.706L52.2801 106.481L49.041 106.63L51.2509 104.259L51.0902 101.01L53.4638 103.235L56.703 103.086Z" fill="#FFCC00"/>
<path d="M38.7556 114.928L36.9942 116.818L37.1223 119.407L35.2302 117.634L32.6484 117.752L34.4099 115.862L34.2818 113.273L36.1737 115.047L38.7556 114.928Z" fill="#8E4DD5"/>
<path d="M91.3524 64.7218L88.2831 69.9502L83.3263 59.1402L86.7862 54.001L91.3524 64.7218Z" fill="#00A98F"/>
<path d="M70.9247 110.441L67.8439 106.576L77.465 105.985L80.3658 110.12L70.9247 110.441Z" fill="#3897FF"/>
<path d="M45.0641 119.961L43.1059 117.505L49.2212 117.129L51.065 119.757L45.0641 119.961Z" fill="#FFCC00"/>
</svg>
