<svg width="107" height="123" viewBox="0 0 107 123" fill="none" xmlns="http://www.w3.org/2000/svg">
<path d="M62.3502 53.4126C60.9711 51.5279 58.319 51.1219 56.4266 52.5058C54.5342 53.8897 54.118 56.5394 55.4971 58.4241C56.8762 60.3088 59.5283 60.7147 61.4207 59.3309C63.3131 57.947 63.7293 55.2973 62.3502 53.4126Z" fill="#8E4DD5"/>
<path d="M80.5913 74.3311C79.9397 73.4407 78.6867 73.2488 77.7926 73.9027C76.8984 74.5565 76.7018 75.8085 77.3534 76.6989C78.005 77.5894 79.258 77.7812 80.1522 77.1274C81.0463 76.4735 81.2429 75.2216 80.5913 74.3311Z" fill="#8E4DD5"/>
<path d="M27.4339 47.0001L29.0321 53.8073L35.0377 57.3916L28.2147 59.012L24.6035 65.0219L23.005 58.2148L16.9998 54.6303L23.8228 53.0099L27.4339 47.0001Z" fill="#8E4DD5"/>
<path d="M46.2545 38L47.4274 42.3744L51.2424 44.8166L47.0614 45.6641L44.9873 49.3909L43.8142 45.0166L39.9994 42.5742L44.1804 41.7268L46.2545 38Z" fill="#00A98F"/>
<path d="M62.3935 67.5358C61.3223 66.7186 59.7873 66.9257 58.9651 67.9983C58.1428 69.0709 58.3447 70.6029 59.4159 71.4201C60.4871 72.2372 62.022 72.0302 62.8443 70.9576C63.6665 69.8849 63.4647 68.353 62.3935 67.5358Z" fill="white"/>
<path d="M63.094 111.317C62.6799 110.673 61.8193 110.486 61.1718 110.9C60.5243 111.313 60.3351 112.171 60.7492 112.816C61.1633 113.46 62.0239 113.647 62.6714 113.234C63.3189 112.82 63.5081 111.962 63.094 111.317Z" fill="#00A98F"/>
<path d="M22.4325 21L21.7613 30.9764L28.4541 38.3865L18.4656 37.7523L11.0205 44.4621L11.6912 34.4859L4.99892 27.0756L14.9875 27.7098L22.4325 21Z" fill="#3897FF"/>
<path d="M73.2001 86L74.378 88.9728L77.3406 90.2042L74.3534 91.3779L73.1152 94.3274L71.9373 91.3546L68.9747 90.1232L71.9617 88.9495L73.2001 86Z" fill="#FFCC00"/>
<path d="M77.1155 106.571L78.0544 108.941L80.4158 109.922L78.0347 110.858L77.0479 113.209L76.1089 110.839L73.7476 109.858L76.1284 108.922L77.1155 106.571Z" fill="#8E4DD5"/>
<path d="M59.9571 68.0797L64.8032 71.5848L53.7221 75.4375L49.0002 71.5572L59.9571 68.0797Z" fill="#00A98F"/>
<path d="M73.7004 59.9261L72.4995 55.2007L81.3898 58.5751L82.3192 63.4705L73.7004 59.9261Z" fill="#3897FF"/>
<path d="M90.3417 99.6687L87.3241 100.374L89.5771 94.7656L92.6995 94.2349L90.3417 99.6687Z" fill="#FFCC00"/>
</svg>
