<svg width="55" height="102" viewBox="0 0 55 102" fill="none" xmlns="http://www.w3.org/2000/svg">
<path d="M1.3263 61.8848C1.34389 64.0208 3.09643 65.7385 5.2407 65.7215C7.38498 65.7045 9.109 63.9591 9.09141 61.8231C9.07383 59.6872 7.32129 57.9694 5.17702 57.9865C3.03274 58.0035 1.30871 59.7488 1.3263 61.8848Z" fill="#8E4DD5"/>
<path d="M17.9468 43.1368C17.9551 44.146 18.7831 44.9576 19.7963 44.9495C20.8094 44.9415 21.6239 44.1168 21.6156 43.1076C21.6073 42.0984 20.7793 41.2869 19.7662 41.2949C18.7531 41.3029 17.9385 42.1276 17.9468 43.1368Z" fill="#8E4DD5"/>
<path d="M35.9079 101.022L39.2296 93.0065L35.7764 85.0449L43.8237 88.3556L51.8154 84.9175L48.4942 92.9329L51.947 100.894L43.8997 97.5838L35.9079 101.022Z" fill="#FFCC00"/>
<path d="M15.5141 89.151L16.9792 85.2763L15.4505 81.4255L19.0077 83.029L22.5381 81.3692L21.0732 85.2438L22.6017 89.0947L19.0445 87.4912L15.5141 89.151Z" fill="#00A98F"/>
<path d="M27.8296 57.9005C28.1887 59.0793 29.4391 59.7453 30.6224 59.3879C31.8058 59.0305 32.474 57.7851 32.115 56.6062C31.7559 55.4274 30.5055 54.7615 29.3222 55.1189C28.1388 55.4762 27.4706 56.7216 27.8296 57.9005Z" fill="white"/>
<path d="M26.8803 13.122C27.0845 13.7922 27.7954 14.1709 28.4683 13.9677C29.1411 13.7645 29.5211 13.0564 29.3169 12.3861C29.1128 11.7158 28.4018 11.3372 27.729 11.5404C27.0561 11.7436 26.6762 12.4517 26.8803 13.122Z" fill="#00A98F"/>
<path d="M30.8422 55.4443L32.9365 50.1908L30.6163 45.0414L35.8902 47.1153L41.0684 44.795L38.9741 50.0485L41.2943 55.1978L36.0207 53.1243L30.8422 55.4443Z" fill="#FFCC00"/>
<path d="M22.5316 25.8231L22.2343 22.9135L19.933 21.0927L22.8543 20.8027L24.6777 18.5147L24.975 21.4243L27.2763 23.2451L24.3553 23.5352L22.5316 25.8231Z" fill="#FFCC00"/>
<path d="M25.1546 6.59929L24.9176 4.28013L23.0834 2.82885L25.4118 2.5977L26.8652 0.773987L27.1022 3.09314L28.9365 4.54442L26.6082 4.77562L25.1546 6.59929Z" fill="#8E4DD5"/>
<path d="M27.9975 72.147L26.2707 66.9563L36.5566 70.013L37.9908 75.416L27.9975 72.147Z" fill="#00A98F"/>
<path d="M9.08855 31.1112L13.5434 31.3153L8.2284 38.2L3.69689 37.713L9.08855 31.1112Z" fill="#3897FF"/>
<path d="M17.9883 7.89358L20.8198 8.02333L17.4416 12.3993L14.5613 12.0897L17.9883 7.89358Z" fill="#FFCC00"/>
</svg>
