<svg width="99" height="100" viewBox="0 0 99 100" fill="none" xmlns="http://www.w3.org/2000/svg">
<path d="M41.5704 64.2861C43.0505 65.6984 45.4001 65.6391 46.8184 64.1537C48.2366 62.6682 48.1865 60.3191 46.7063 58.9068C45.2262 57.4945 42.8767 57.5537 41.4584 59.0392C40.0402 60.5246 40.0903 62.8737 41.5704 64.2861Z" fill="#8E4DD5"/>
<path d="M39.7654 40.3578C40.4647 41.0251 41.5748 40.9971 42.2449 40.2952C42.915 39.5934 42.8913 38.4835 42.192 37.8162C41.4927 37.1489 40.3826 37.1769 39.7125 37.8788C39.0424 38.5806 39.0661 39.6905 39.7654 40.3578Z" fill="#8E4DD5"/>
<path d="M78.5663 95.7558L75.2712 88.1271L67.4951 85.1917L75.1375 81.8673L78.1035 74.0806L81.3989 81.709L89.1747 84.6447L81.5322 87.9691L78.5663 95.7558Z" fill="#FFCC00"/>
<path d="M60.1685 76.2959L58.4819 72.7048L54.8151 71.1877L58.2897 69.8116L59.5029 66.2778L61.1897 69.8687L64.8563 71.386L61.3817 72.7621L60.1685 76.2959Z" fill="#00A98F"/>
<path d="M56.5081 43.409C57.5579 43.9483 58.8496 43.5328 59.393 42.4809C59.9365 41.4291 59.526 40.1392 58.4761 39.5999C57.4263 39.0606 56.1346 39.4761 55.5912 40.5279C55.0477 41.5798 55.4582 42.8696 56.5081 43.409Z" fill="white"/>
<path d="M16.2386 24.3079C16.6937 24.8011 17.4646 24.8318 17.9604 24.3764C18.4562 23.921 18.4891 23.1521 18.034 22.6589C17.5789 22.1657 16.808 22.135 16.3123 22.5904C15.8165 23.0458 15.7835 23.8147 16.2386 24.3079Z" fill="#00A98F"/>
<path d="M55.2924 47.2464L53.0775 42.3033L47.9903 40.4644L52.933 38.2218L54.791 33.1147L57.0059 38.0578L62.0932 39.8967L57.1509 42.1393L55.2924 47.2464Z" fill="#FFCC00"/>
<path d="M17.774 37.0741L16.3064 34.6881L13.5635 34.0755L15.9626 32.6094L16.583 29.8767L18.0506 32.2627L20.7935 32.8753L18.3947 34.3414L17.774 37.0741Z" fill="#FFCC00"/>
<path d="M12.0353 19.4001L10.8655 17.4983L8.67917 17.01L10.5914 15.8414L11.0859 13.6633L12.2557 15.5651L14.442 16.0534L12.53 17.222L12.0353 19.4001Z" fill="#8E4DD5"/>
<path d="M64.3562 56.8193L62.4995 52.5317L71.4794 54.3646L73.103 58.8546L64.3562 56.8193Z" fill="#3897FF"/>
<path d="M25.591 38.4281L28.7021 35.5018L29.8906 43.7467L26.5339 46.5372L25.591 38.4281Z" fill="#3897FF"/>
<path d="M6.38973 23.4998L8.88613 22.4331L7.79371 27.6139L5.18041 28.5459L6.38973 23.4998Z" fill="#FFCC00"/>
</svg>
