<svg width="124" height="156" viewBox="0 0 124 156" fill="none" xmlns="http://www.w3.org/2000/svg">
<path d="M18.399 99.5068C17.2981 97.5916 17.9584 95.1469 19.874 94.0466C21.7896 92.9463 24.2351 93.6069 25.3361 95.5221C26.4371 97.4373 25.7767 99.8819 23.8611 100.982C21.9455 102.083 19.5 101.422 18.399 99.5068Z" fill="#8E4DD5"/>
<path d="M43.3453 107.915C42.7948 106.957 43.125 105.735 44.0828 105.185C45.0406 104.634 46.2633 104.965 46.8138 105.922C47.3643 106.88 47.0341 108.102 46.0763 108.652C45.1185 109.203 43.8958 108.872 43.3453 107.915Z" fill="#8E4DD5"/>
<path d="M14.4998 39.1806L21.8494 44.7614L22.9723 53.9189L28.5537 46.5723L37.7139 45.4512L30.3646 39.8702L29.2414 30.7129L23.66 38.0595L14.4998 39.1806Z" fill="#00A98F"/>
<path d="M16.0867 67.2299L19.5453 69.8561L20.0737 74.1655L22.7002 70.7084L27.0107 70.1808L23.5523 67.5545L23.0237 63.2452L20.3972 66.7023L16.0867 67.2299Z" fill="#00A98F"/>
<path d="M44.5311 88.9933C44.2227 87.7139 45.0068 86.4305 46.2824 86.1267C47.558 85.8228 48.8422 86.6137 49.1506 87.8932C49.459 89.1726 48.6749 90.456 47.3992 90.7598C46.1236 91.0636 44.8395 90.2728 44.5311 88.9933Z" fill="white"/>
<path d="M67.8538 130.799C67.6784 130.072 68.1242 129.342 68.8495 129.169C69.5748 128.997 70.305 129.446 70.4803 130.174C70.6557 130.901 70.2099 131.631 69.4846 131.804C68.7592 131.977 68.0291 131.527 67.8538 130.799Z" fill="#00A98F"/>
<path d="M38.5205 16.5819L47.6801 19.9584L51.6519 28.8932L55.0194 19.7136L63.9336 15.7342L54.7744 12.3573L50.8022 3.42291L47.4347 12.6026L38.5205 16.5819Z" fill="#3897FF"/>
<path d="M38.7278 83.8304L43.4371 87.5098L44.082 93.4394L47.7631 88.746L53.7056 88.1115L48.9962 84.4322L48.3514 78.5026L44.6704 83.1955L38.7278 83.8304Z" fill="#FFCC00"/>
<path d="M57.0136 121.413L58.3135 124.256L57.192 127.167L60.021 125.87L62.9253 127.005L61.6254 124.162L62.7469 121.251L59.918 122.547L57.0136 121.413Z" fill="#FFCC00"/>
<path d="M69.7987 137.739L70.8349 140.004L69.9409 142.325L72.1959 141.292L74.5107 142.196L73.4746 139.93L74.3686 137.61L72.1137 138.643L69.7987 137.739Z" fill="#8E4DD5"/>
<path d="M36.8342 62.8479L37.992 68.6225L45.9487 60.072L44.405 54.263L36.8342 62.8479Z" fill="#00A98F"/>
<path d="M41.8583 123.732L45.8233 121.159L37.2417 117.655L33.3593 120.529L41.8583 123.732Z" fill="#3897FF"/>
<path d="M62.5438 140.381L65.064 138.746L59.6094 136.518L57.1417 138.346L62.5438 140.381Z" fill="#FFCC00"/>
</svg>
