<svg width="191" height="198" viewBox="0 0 191 198" fill="none" xmlns="http://www.w3.org/2000/svg">
<path d="M53.3818 132.34C51.5018 129.954 51.9126 126.496 54.2992 124.617C56.6858 122.738 60.1444 123.149 62.0243 125.535C63.9043 127.921 63.4935 131.378 61.1069 133.257C58.7203 135.137 55.2617 134.726 53.3818 132.34Z" fill="#8E4DD5"/>
<path d="M87.6446 138.197C86.7901 137.113 86.9775 135.541 88.0632 134.686C89.149 133.831 90.7218 134.017 91.5763 135.102C92.4308 136.186 92.2434 137.758 91.1577 138.613C90.072 139.468 88.4991 139.282 87.6446 138.197Z" fill="#8E4DD5"/>
<path d="M37.7536 56.0789L48.212 61.8448L51.3691 73.3595L57.1361 62.905L68.6543 59.7498L58.1964 53.9835L55.0388 42.4693L49.2718 52.9237L37.7536 56.0789Z" fill="#00A98F"/>
<path d="M45.5983 91.5657L50.3521 94.1866L51.7871 99.4205L54.4085 94.6685L59.644 93.2343L54.8905 90.6133L53.4552 85.3795L50.8338 90.1315L45.5983 91.5657Z" fill="#00A98F"/>
<path d="M85.4635 113.916C84.832 112.344 85.5907 110.564 87.1581 109.939C88.7256 109.314 90.5082 110.081 91.1397 111.653C91.7712 113.224 91.0125 115.004 89.4451 115.629C87.8776 116.254 86.095 115.487 85.4635 113.916Z" fill="white"/>
<path d="M123.495 162.84C123.186 162.071 123.559 161.199 124.329 160.893C125.098 160.586 125.973 160.96 126.281 161.729C126.59 162.498 126.217 163.369 125.447 163.676C124.678 163.983 123.804 163.609 123.495 162.84Z" fill="#00A98F"/>
<path d="M64.5182 22.8013L76.7242 25.372L83.4019 35.9316L85.9576 23.7019L96.4897 17.0184L84.2841 14.4472L77.606 3.88809L75.0504 16.1178L64.5182 22.8013Z" fill="#3897FF"/>
<path d="M77.328 108.455L83.9378 112.219L85.8447 119.566L89.6135 112.976L96.9795 111.08L90.3698 107.317L88.4629 99.9687L84.6941 106.558L77.328 108.455Z" fill="#FFCC00"/>
<path d="M107.855 153.198L109.926 156.388L109.085 160.089L112.273 158.028L115.979 158.878L113.909 155.688L114.75 151.987L111.562 154.048L107.855 153.198Z" fill="#FFCC00"/>
<path d="M126.603 171.188L128.378 173.922L127.657 177.095L130.389 175.328L133.566 176.057L131.791 173.323L132.512 170.15L129.78 171.916L126.603 171.188Z" fill="#8E4DD5"/>
<path d="M71.1067 82.3616L73.3575 89.2149L81.7406 77.0251L79.0173 70.2112L71.1067 82.3616Z" fill="#00A98F"/>
<path d="M88.6658 158.442L93.1169 154.615L81.7739 151.821L77.4825 156.003L88.6658 158.442Z" fill="#3897FF"/>
<path d="M117.997 175.654L120.899 173.409L113.332 171.566L110.541 174.028L117.997 175.654Z" fill="#FFCC00"/>
</svg>
