<svg width="113" height="40" viewBox="0 0 113 40" fill="none" xmlns="http://www.w3.org/2000/svg">
<rect opacity="0.88" width="113" height="40" rx="8" fill="url(#paint0_radial_1312_115691)"/>
<path d="M27.0713 8.29614H13.1781C10.5146 8.29614 8.34766 10.4496 8.34766 13.0965V26.9032C8.34766 29.5501 10.5146 31.7036 13.1781 31.7036H27.0713C29.7348 31.7036 31.9017 29.5501 31.9017 26.9032V13.0965C31.9017 10.4496 29.7348 8.29614 27.0713 8.29614ZM15.6002 26.3324C15.3874 26.6987 15 26.9036 14.6022 26.9037C14.4072 26.9037 14.2097 26.8544 14.0291 26.7508C13.4799 26.4357 13.291 25.7353 13.6081 25.1895L13.8343 24.8002H16.4903L15.6002 26.3324ZM13.4311 23.8858C12.7969 23.8858 12.281 23.3731 12.281 22.7429C12.281 22.1127 12.7969 21.6 13.4311 21.6H15.6935L18.7967 16.2586L17.9557 14.811C17.6386 14.2652 17.8274 13.5648 18.3766 13.2497H18.3766C18.9258 12.9346 19.6306 13.1223 19.9477 13.6681L20.1247 13.9728L20.3017 13.6681C20.6189 13.1223 21.3237 12.9346 21.8728 13.2497C22.1388 13.4024 22.3291 13.6488 22.4086 13.9437C22.4882 14.2386 22.4473 14.5467 22.2937 14.811L18.3495 21.6H20.8374L22.1654 23.8858H13.4311ZM26.8183 23.8858H25.8839L26.6413 25.1895C26.9584 25.7352 26.7695 26.4356 26.2204 26.7507C26.0431 26.8524 25.8464 26.9044 25.6471 26.9044C25.5472 26.9044 25.4467 26.8914 25.3476 26.8649C25.0508 26.7859 24.8028 26.5968 24.6492 26.3323L20.6559 19.4588L21.9839 17.1729L24.5559 21.6H26.8183C27.4525 21.6 27.9684 22.1127 27.9684 22.7429C27.9684 23.3731 27.4525 23.8858 26.8183 23.8858Z" fill="white"/>
<path d="M39.9024 15.2962H39.2417L41.1526 10.0921H41.8031L43.714 15.2962H43.0533L41.4982 10.9154H41.4575L39.9024 15.2962ZM40.1463 13.2633H42.8094V13.8224H40.1463V13.2633Z" fill="white"/>
<path d="M47.1457 11.3931L45.7024 15.2962H45.0925L43.6492 11.3931H44.2997L45.3771 14.5034H45.4178L46.4952 11.3931H47.1457Z" fill="white"/>
<path d="M48.967 15.3877C48.7197 15.3877 48.4952 15.3411 48.2936 15.2479C48.0921 15.1531 47.932 15.0167 47.8134 14.8388C47.6948 14.6592 47.6355 14.4424 47.6355 14.1883C47.6355 13.9647 47.6796 13.7834 47.7676 13.6445C47.8557 13.5039 47.9735 13.3938 48.1209 13.3142C48.2682 13.2345 48.4309 13.1752 48.6087 13.1363C48.7883 13.0956 48.9687 13.0634 49.15 13.0397C49.3872 13.0092 49.5794 12.9864 49.7268 12.9711C49.8759 12.9542 49.9843 12.9262 50.0521 12.8873C50.1215 12.8483 50.1563 12.7805 50.1563 12.684V12.6636C50.1563 12.4129 50.0877 12.2181 49.9504 12.0792C49.8149 11.9403 49.6091 11.8708 49.333 11.8708C49.0467 11.8708 48.8222 11.9335 48.6596 12.0589C48.4969 12.1842 48.3826 12.3181 48.3165 12.4604L47.7473 12.2571C47.849 12.0199 47.9845 11.8353 48.1539 11.7031C48.325 11.5693 48.5113 11.4761 48.7129 11.4236C48.9162 11.3694 49.1161 11.3423 49.3126 11.3423C49.438 11.3423 49.582 11.3575 49.7446 11.388C49.9089 11.4168 50.0673 11.477 50.2198 11.5684C50.3739 11.6599 50.5018 11.798 50.6035 11.9826C50.7051 12.1673 50.756 12.4146 50.756 12.7246V15.2962H50.1563V14.7677H50.1258C50.0851 14.8524 50.0173 14.943 49.9225 15.0395C49.8276 15.1361 49.7014 15.2183 49.5439 15.286C49.3863 15.3538 49.194 15.3877 48.967 15.3877ZM49.0585 14.849C49.2957 14.849 49.4956 14.8024 49.6582 14.7092C49.8225 14.616 49.9462 14.4958 50.0292 14.3484C50.1139 14.201 50.1563 14.046 50.1563 13.8834V13.3345C50.1308 13.365 50.0749 13.3929 49.9885 13.4183C49.9038 13.4421 49.8056 13.4632 49.6938 13.4819C49.5837 13.4988 49.4761 13.5141 49.3711 13.5276C49.2677 13.5395 49.1839 13.5496 49.1195 13.5581C48.9636 13.5784 48.818 13.6115 48.6824 13.6572C48.5486 13.7012 48.4402 13.7682 48.3572 13.8579C48.2759 13.946 48.2352 14.0663 48.2352 14.2188C48.2352 14.4271 48.3123 14.5847 48.4664 14.6914C48.6223 14.7965 48.8197 14.849 49.0585 14.849Z" fill="white"/>
<path d="M51.8505 15.2962V11.3931H52.4502V15.2962H51.8505ZM52.1555 10.7426C52.0386 10.7426 51.9378 10.7028 51.8531 10.6232C51.7701 10.5435 51.7286 10.4478 51.7286 10.336C51.7286 10.2242 51.7701 10.1285 51.8531 10.0489C51.9378 9.96925 52.0386 9.92944 52.1555 9.92944C52.2723 9.92944 52.3723 9.96925 52.4553 10.0489C52.54 10.1285 52.5824 10.2242 52.5824 10.336C52.5824 10.4478 52.54 10.5435 52.4553 10.6232C52.3723 10.7028 52.2723 10.7426 52.1555 10.7426Z" fill="white"/>
<path d="M54.1483 10.0921V15.2962H53.5486V10.0921H54.1483Z" fill="white"/>
<path d="M56.3952 15.3877C56.1479 15.3877 55.9234 15.3411 55.7219 15.2479C55.5203 15.1531 55.3602 15.0167 55.2416 14.8388C55.123 14.6592 55.0637 14.4424 55.0637 14.1883C55.0637 13.9647 55.1078 13.7834 55.1958 13.6445C55.2839 13.5039 55.4017 13.3938 55.5491 13.3142C55.6964 13.2345 55.8591 13.1752 56.0369 13.1363C56.2165 13.0956 56.3969 13.0634 56.5782 13.0397C56.8154 13.0092 57.0076 12.9864 57.155 12.9711C57.3041 12.9542 57.4125 12.9262 57.4803 12.8873C57.5497 12.8483 57.5845 12.7805 57.5845 12.684V12.6636C57.5845 12.4129 57.5159 12.2181 57.3786 12.0792C57.2431 11.9403 57.0373 11.8708 56.7612 11.8708C56.4749 11.8708 56.2504 11.9335 56.0878 12.0589C55.9251 12.1842 55.8108 12.3181 55.7447 12.4604L55.1755 12.2571C55.2772 12.0199 55.4127 11.8353 55.5821 11.7031C55.7532 11.5693 55.9395 11.4761 56.1411 11.4236C56.3444 11.3694 56.5443 11.3423 56.7408 11.3423C56.8662 11.3423 57.0102 11.3575 57.1728 11.388C57.3371 11.4168 57.4955 11.477 57.648 11.5684C57.8021 11.6599 57.93 11.798 58.0317 11.9826C58.1333 12.1673 58.1842 12.4146 58.1842 12.7246V15.2962H57.5845V14.7677H57.554C57.5133 14.8524 57.4456 14.943 57.3507 15.0395C57.2558 15.1361 57.1296 15.2183 56.9721 15.286C56.8145 15.3538 56.6222 15.3877 56.3952 15.3877ZM56.4867 14.849C56.7239 14.849 56.9238 14.8024 57.0864 14.7092C57.2507 14.616 57.3744 14.4958 57.4574 14.3484C57.5421 14.201 57.5845 14.046 57.5845 13.8834V13.3345C57.5591 13.365 57.5031 13.3929 57.4168 13.4183C57.332 13.4421 57.2338 13.4632 57.122 13.4819C57.0119 13.4988 56.9043 13.5141 56.7993 13.5276C56.6959 13.5395 56.6121 13.5496 56.5477 13.5581C56.3919 13.5784 56.2462 13.6115 56.1106 13.6572C55.9768 13.7012 55.8684 13.7682 55.7854 13.8579C55.7041 13.946 55.6634 14.0663 55.6634 14.2188C55.6634 14.4271 55.7405 14.5847 55.8946 14.6914C56.0505 14.7965 56.2479 14.849 56.4867 14.849Z" fill="white"/>
<path d="M59.36 15.2962V10.0921H59.9597V12.0131H60.0106C60.0546 11.9454 60.1156 11.859 60.1935 11.7539C60.2731 11.6472 60.3866 11.5523 60.534 11.4693C60.6831 11.3846 60.8847 11.3423 61.1388 11.3423C61.4674 11.3423 61.7571 11.4244 62.0078 11.5888C62.2586 11.7531 62.4542 11.986 62.5948 12.2876C62.7354 12.5891 62.8057 12.9449 62.8057 13.3548C62.8057 13.7682 62.7354 14.1265 62.5948 14.4297C62.4542 14.7312 62.2594 14.965 62.0104 15.131C61.7614 15.2954 61.4742 15.3775 61.149 15.3775C60.8982 15.3775 60.6975 15.336 60.5467 15.253C60.396 15.1683 60.2799 15.0726 60.1986 14.9659C60.1173 14.8574 60.0546 14.7677 60.0106 14.6965H59.9394V15.2962H59.36ZM59.9496 13.3447C59.9496 13.6394 59.9928 13.8995 60.0792 14.1248C60.1656 14.3484 60.2918 14.5237 60.4578 14.6508C60.6238 14.7761 60.8271 14.8388 61.0676 14.8388C61.3184 14.8388 61.5276 14.7727 61.6953 14.6406C61.8647 14.5068 61.9917 14.3272 62.0765 14.1019C62.1628 13.8749 62.206 13.6225 62.206 13.3447C62.206 13.0702 62.1637 12.8229 62.079 12.6027C61.996 12.3807 61.8698 12.2054 61.7004 12.0767C61.5327 11.9462 61.3218 11.881 61.0676 11.881C60.8237 11.881 60.6187 11.9428 60.4527 12.0665C60.2867 12.1885 60.1613 12.3596 60.0766 12.5798C59.9919 12.7983 59.9496 13.0533 59.9496 13.3447Z" fill="white"/>
<path d="M64.3228 10.0921V15.2962H63.7231V10.0921H64.3228Z" fill="white"/>
<path d="M67.0576 15.3775C66.6815 15.3775 66.3571 15.2945 66.0844 15.1285C65.8133 14.9608 65.6041 14.727 65.4567 14.4271C65.311 14.1256 65.2382 13.7749 65.2382 13.3751C65.2382 12.9753 65.311 12.623 65.4567 12.3181C65.6041 12.0114 65.8091 11.7726 66.0717 11.6015C66.3359 11.4287 66.6443 11.3423 66.9966 11.3423C67.1999 11.3423 67.4006 11.3762 67.5988 11.4439C67.7971 11.5117 67.9775 11.6218 68.1401 11.7743C68.3027 11.925 68.4323 12.1249 68.5289 12.374C68.6254 12.623 68.6737 12.9296 68.6737 13.2938V13.5479H65.6651V13.0296H68.0639C68.0639 12.8093 68.0198 12.6128 67.9317 12.44C67.8453 12.2672 67.7217 12.1309 67.5607 12.0309C67.4015 11.931 67.2135 11.881 66.9966 11.881C66.7578 11.881 66.5511 11.9403 66.3766 12.0589C66.2038 12.1758 66.0708 12.3282 65.9776 12.5163C65.8845 12.7043 65.8379 12.9059 65.8379 13.121V13.4666C65.8379 13.7614 65.8887 14.0113 65.9903 14.2162C66.0937 14.4195 66.2368 14.5745 66.4198 14.6813C66.6027 14.7863 66.8153 14.8388 67.0576 14.8388C67.2151 14.8388 67.3574 14.8168 67.4845 14.7727C67.6132 14.727 67.7242 14.6592 67.8174 14.5694C67.9106 14.478 67.9826 14.3645 68.0334 14.2289L68.6127 14.3916C68.5518 14.5881 68.4493 14.7609 68.3053 14.91C68.1613 15.0573 67.9834 15.1725 67.7716 15.2555C67.5599 15.3369 67.3219 15.3775 67.0576 15.3775Z" fill="white"/>
<path d="M73.1841 15.3775C72.8318 15.3775 72.5226 15.2937 72.2566 15.1259C71.9924 14.9582 71.7857 14.7236 71.6366 14.4221C71.4892 14.1205 71.4155 13.7682 71.4155 13.365C71.4155 12.9584 71.4892 12.6035 71.6366 12.3003C71.7857 11.997 71.9924 11.7616 72.2566 11.5938C72.5226 11.4261 72.8318 11.3423 73.1841 11.3423C73.5365 11.3423 73.8448 11.4261 74.1091 11.5938C74.375 11.7616 74.5817 11.997 74.7291 12.3003C74.8782 12.6035 74.9527 12.9584 74.9527 13.365C74.9527 13.7682 74.8782 14.1205 74.7291 14.4221C74.5817 14.7236 74.375 14.9582 74.1091 15.1259C73.8448 15.2937 73.5365 15.3775 73.1841 15.3775ZM73.1841 14.8388C73.4518 14.8388 73.672 14.7702 73.8448 14.633C74.0176 14.4958 74.1455 14.3153 74.2285 14.0917C74.3115 13.8681 74.353 13.6259 74.353 13.365C74.353 13.1041 74.3115 12.861 74.2285 12.6357C74.1455 12.4104 74.0176 12.2283 73.8448 12.0894C73.672 11.9504 73.4518 11.881 73.1841 11.881C72.9165 11.881 72.6962 11.9504 72.5235 12.0894C72.3507 12.2283 72.2228 12.4104 72.1398 12.6357C72.0567 12.861 72.0152 13.1041 72.0152 13.365C72.0152 13.6259 72.0567 13.8681 72.1398 14.0917C72.2228 14.3153 72.3507 14.4958 72.5235 14.633C72.6962 14.7702 72.9165 14.8388 73.1841 14.8388Z" fill="white"/>
<path d="M76.4678 12.9482V15.2962H75.8681V11.3931H76.4475V12.003H76.4983C76.5898 11.8048 76.7287 11.6455 76.9151 11.5252C77.1014 11.4033 77.342 11.3423 77.6367 11.3423C77.901 11.3423 78.1322 11.3965 78.3305 11.5049C78.5287 11.6116 78.6828 11.7743 78.7929 11.9928C78.903 12.2096 78.9581 12.4841 78.9581 12.8161V15.2962H78.3584V12.8568C78.3584 12.5501 78.2788 12.3113 78.1195 12.1402C77.9603 11.9674 77.7418 11.881 77.4639 11.881C77.2725 11.881 77.1014 11.9225 76.9506 12.0055C76.8016 12.0885 76.6838 12.2096 76.5974 12.3689C76.511 12.5281 76.4678 12.7212 76.4678 12.9482Z" fill="white"/>
<path d="M83.7639 11.3931V11.9013H81.7412V11.3931H83.7639ZM82.3307 10.458H82.9304V14.1781C82.9304 14.3475 82.955 14.4746 83.0041 14.5593C83.055 14.6423 83.1193 14.6982 83.1973 14.727C83.2769 14.7541 83.3607 14.7677 83.4488 14.7677C83.5149 14.7677 83.5691 14.7643 83.6114 14.7575C83.6538 14.749 83.6877 14.7422 83.7131 14.7372L83.8351 15.2759C83.7944 15.2911 83.7377 15.3064 83.6648 15.3216C83.592 15.3385 83.4996 15.347 83.3878 15.347C83.2184 15.347 83.0524 15.3106 82.8898 15.2378C82.7288 15.1649 82.595 15.0539 82.4883 14.9049C82.3833 14.7558 82.3307 14.5678 82.3307 14.3408V10.458Z" fill="white"/>
<path d="M85.3495 12.9482V15.2962H84.7498V10.0921H85.3495V12.003H85.4004C85.4918 11.8014 85.6291 11.6413 85.812 11.5227C85.9967 11.4024 86.2423 11.3423 86.5489 11.3423C86.8149 11.3423 87.0478 11.3956 87.2477 11.5024C87.4476 11.6074 87.6026 11.7692 87.7127 11.9877C87.8246 12.2046 87.8805 12.4807 87.8805 12.8161V15.2962H87.2808V12.8568C87.2808 12.5468 87.2003 12.307 87.0394 12.1376C86.8801 11.9665 86.659 11.881 86.3761 11.881C86.1796 11.881 86.0034 11.9225 85.8476 12.0055C85.6934 12.0885 85.5715 12.2096 85.4817 12.3689C85.3936 12.5281 85.3495 12.7212 85.3495 12.9482Z" fill="white"/>
<path d="M90.614 15.3775C90.2379 15.3775 89.9135 15.2945 89.6408 15.1285C89.3697 14.9608 89.1605 14.727 89.0131 14.4271C88.8675 14.1256 88.7946 13.7749 88.7946 13.3751C88.7946 12.9753 88.8675 12.623 89.0131 12.3181C89.1605 12.0114 89.3655 11.7726 89.6281 11.6015C89.8923 11.4287 90.2007 11.3423 90.553 11.3423C90.7563 11.3423 90.9571 11.3762 91.1553 11.4439C91.3535 11.5117 91.5339 11.6218 91.6965 11.7743C91.8591 11.925 91.9887 12.1249 92.0853 12.374C92.1819 12.623 92.2301 12.9296 92.2301 13.2938V13.5479H89.2215V13.0296H91.6203C91.6203 12.8093 91.5762 12.6128 91.4881 12.44C91.4018 12.2672 91.2781 12.1309 91.1172 12.0309C90.9579 11.931 90.7699 11.881 90.553 11.881C90.3142 11.881 90.1075 11.9403 89.933 12.0589C89.7602 12.1758 89.6272 12.3282 89.5341 12.5163C89.4409 12.7043 89.3943 12.9059 89.3943 13.121V13.4666C89.3943 13.7614 89.4451 14.0113 89.5468 14.2162C89.6501 14.4195 89.7933 14.5745 89.9762 14.6813C90.1592 14.7863 90.3718 14.8388 90.614 14.8388C90.7716 14.8388 90.9139 14.8168 91.0409 14.7727C91.1697 14.727 91.2806 14.6592 91.3738 14.5694C91.467 14.478 91.539 14.3645 91.5898 14.2289L92.1692 14.3916C92.1082 14.5881 92.0057 14.7609 91.8617 14.91C91.7177 15.0573 91.5398 15.1725 91.3281 15.2555C91.1163 15.3369 90.8783 15.3775 90.614 15.3775Z" fill="white"/>
<path d="M40.8312 28.6666H39.3218L42.07 20.8604H43.8157L46.5677 28.6666H45.0583L42.9733 22.4613H42.9123L40.8312 28.6666ZM40.8807 25.6058H44.9973V26.7417H40.8807V25.6058Z" fill="white"/>
<path d="M47.5349 30.8621V22.8119H48.8918V23.7801H48.9718C49.043 23.6378 49.1434 23.4866 49.273 23.3265C49.4025 23.1639 49.5779 23.0254 49.799 22.911C50.02 22.7941 50.3021 22.7357 50.6451 22.7357C51.0974 22.7357 51.5053 22.8513 51.8687 23.0826C52.2346 23.3113 52.5243 23.6505 52.7377 24.1003C52.9537 24.5475 53.0617 25.0964 53.0617 25.7469C53.0617 26.3898 52.9562 26.9361 52.7453 27.3859C52.5344 27.8356 52.2473 28.1787 51.8839 28.415C51.5205 28.6513 51.1089 28.7695 50.6489 28.7695C50.3135 28.7695 50.0353 28.7136 49.8142 28.6018C49.5931 28.49 49.4153 28.3553 49.2806 28.1977C49.1484 28.0377 49.0455 27.8865 48.9718 27.7442H48.9147V30.8621H47.5349ZM48.888 25.7393C48.888 26.1179 48.9413 26.4495 49.0481 26.7341C49.1573 27.0187 49.3136 27.241 49.5169 27.4011C49.7227 27.5587 49.9717 27.6374 50.264 27.6374C50.5689 27.6374 50.8243 27.5561 51.0301 27.3935C51.2359 27.2283 51.3909 27.0034 51.4951 26.7188C51.6019 26.4317 51.6552 26.1052 51.6552 25.7393C51.6552 25.3759 51.6031 25.0532 51.4989 24.7711C51.3948 24.489 51.2397 24.268 51.0339 24.1079C50.8281 23.9478 50.5714 23.8678 50.264 23.8678C49.9692 23.8678 49.7189 23.9453 49.5131 24.1003C49.3073 24.2553 49.151 24.4725 49.0443 24.752C48.9401 25.0316 48.888 25.3606 48.888 25.7393Z" fill="white"/>
<path d="M54.2433 30.8621V22.8119H55.6002V23.7801H55.6803C55.7514 23.6378 55.8518 23.4866 55.9814 23.3265C56.111 23.1639 56.2863 23.0254 56.5074 22.911C56.7285 22.7941 57.0105 22.7357 57.3536 22.7357C57.8059 22.7357 58.2137 22.8513 58.5771 23.0826C58.943 23.3113 59.2327 23.6505 59.4462 24.1003C59.6621 24.5475 59.7701 25.0964 59.7701 25.7469C59.7701 26.3898 59.6647 26.9361 59.4538 27.3859C59.2429 27.8356 58.9557 28.1787 58.5924 28.415C58.229 28.6513 57.8173 28.7695 57.3574 28.7695C57.022 28.7695 56.7437 28.7136 56.5226 28.6018C56.3016 28.49 56.1237 28.3553 55.989 28.1977C55.8569 28.0377 55.754 27.8865 55.6803 27.7442H55.6231V30.8621H54.2433ZM55.5964 25.7393C55.5964 26.1179 55.6498 26.4495 55.7565 26.7341C55.8658 27.0187 56.0221 27.241 56.2253 27.4011C56.4312 27.5587 56.6802 27.6374 56.9724 27.6374C57.2773 27.6374 57.5327 27.5561 57.7386 27.3935C57.9444 27.2283 58.0994 27.0034 58.2036 26.7188C58.3103 26.4317 58.3637 26.1052 58.3637 25.7393C58.3637 25.3759 58.3116 25.0532 58.2074 24.7711C58.1032 24.489 57.9482 24.268 57.7424 24.1079C57.5365 23.9478 57.2799 23.8678 56.9724 23.8678C56.6777 23.8678 56.4274 23.9453 56.2215 24.1003C56.0157 24.2553 55.8594 24.4725 55.7527 24.752C55.6485 25.0316 55.5964 25.3606 55.5964 25.7393Z" fill="white"/>
<path d="M67.9175 23.0063C67.8819 22.6734 67.732 22.4143 67.4677 22.2288C67.206 22.0433 66.8655 21.9505 66.4462 21.9505C66.1514 21.9505 65.8986 21.995 65.6877 22.0839C65.4768 22.1729 65.3154 22.2936 65.2036 22.446C65.0918 22.5985 65.0346 22.7725 65.0321 22.9682C65.0321 23.1308 65.0689 23.2719 65.1426 23.3913C65.2188 23.5107 65.3218 23.6124 65.4514 23.6962C65.5809 23.7775 65.7245 23.8462 65.8821 23.9021C66.0396 23.958 66.1984 24.005 66.3585 24.0431L67.0903 24.226C67.3851 24.2947 67.6684 24.3874 67.9403 24.5043C68.2148 24.6212 68.46 24.7686 68.676 24.9464C68.8945 25.1243 69.0673 25.339 69.1944 25.5906C69.3214 25.8422 69.3849 26.1369 69.3849 26.4749C69.3849 26.9323 69.2681 27.3351 69.0343 27.6832C68.8005 28.0288 68.4625 28.2994 68.0204 28.4951C67.5808 28.6882 67.0484 28.7847 66.4233 28.7847C65.816 28.7847 65.2887 28.6907 64.8415 28.5027C64.3968 28.3146 64.0487 28.0402 63.7971 27.6794C63.5481 27.3185 63.4134 26.8789 63.3931 26.3605H64.7843C64.8047 26.6324 64.8885 26.8586 65.0359 27.039C65.1833 27.2194 65.3751 27.3541 65.6114 27.443C65.8503 27.532 66.1171 27.5765 66.4119 27.5765C66.7194 27.5765 66.9887 27.5307 67.2199 27.4392C67.4537 27.3452 67.6367 27.2156 67.7688 27.0505C67.901 26.8827 67.9683 26.6871 67.9708 26.4635C67.9683 26.2602 67.9086 26.0925 67.7917 25.9603C67.6748 25.8257 67.5109 25.7138 67.3 25.6249C67.0916 25.5334 66.8477 25.4521 66.5682 25.381L65.6801 25.1523C65.0372 24.9871 64.5289 24.7368 64.1554 24.4014C63.7844 24.0634 63.5989 23.6149 63.5989 23.0559C63.5989 22.5959 63.7234 22.1932 63.9724 21.8476C64.224 21.502 64.5658 21.2339 64.9978 21.0433C65.4298 20.8502 65.9189 20.7537 66.4652 20.7537C67.0192 20.7537 67.5045 20.8502 67.9213 21.0433C68.3406 21.2339 68.6696 21.4995 68.9085 21.84C69.1474 22.1779 69.2706 22.5667 69.2782 23.0063H67.9175Z" fill="white"/>
<path d="M73.5082 22.8119V23.8792H70.1425V22.8119H73.5082ZM70.9734 21.4093H72.3532V26.9056C72.3532 27.0911 72.3812 27.2334 72.4371 27.3325C72.4955 27.4291 72.5718 27.4951 72.6658 27.5307C72.7598 27.5663 72.864 27.5841 72.9783 27.5841C73.0647 27.5841 73.1435 27.5777 73.2147 27.565C73.2884 27.5523 73.3443 27.5409 73.3824 27.5307L73.6149 28.6094C73.5412 28.6348 73.4357 28.6628 73.2985 28.6933C73.1638 28.7238 72.9987 28.7415 72.803 28.7466C72.4574 28.7568 72.1461 28.7047 71.8692 28.5903C71.5922 28.4735 71.3724 28.293 71.2098 28.0491C71.0497 27.8052 70.9709 27.5002 70.9734 27.1343V21.4093Z" fill="white"/>
<path d="M77.153 28.7809C76.5813 28.7809 76.0858 28.6551 75.6665 28.4036C75.2472 28.152 74.922 27.8001 74.6907 27.3478C74.462 26.8954 74.3477 26.3669 74.3477 25.7621C74.3477 25.1573 74.462 24.6275 74.6907 24.1727C74.922 23.7178 75.2472 23.3646 75.6665 23.1131C76.0858 22.8615 76.5813 22.7357 77.153 22.7357C77.7248 22.7357 78.2203 22.8615 78.6395 23.1131C79.0588 23.3646 79.3828 23.7178 79.6115 24.1727C79.8427 24.6275 79.9584 25.1573 79.9584 25.7621C79.9584 26.3669 79.8427 26.8954 79.6115 27.3478C79.3828 27.8001 79.0588 28.152 78.6395 28.4036C78.2203 28.6551 77.7248 28.7809 77.153 28.7809ZM77.1606 27.6756C77.4707 27.6756 77.7298 27.5904 77.9382 27.4202C78.1466 27.2474 78.3016 27.0161 78.4032 26.7265C78.5074 26.4368 78.5595 26.1141 78.5595 25.7583C78.5595 25.4 78.5074 25.076 78.4032 24.7864C78.3016 24.4941 78.1466 24.2616 77.9382 24.0888C77.7298 23.916 77.4707 23.8296 77.1606 23.8296C76.843 23.8296 76.5787 23.916 76.3678 24.0888C76.1595 24.2616 76.0032 24.4941 75.899 24.7864C75.7974 25.076 75.7465 25.4 75.7465 25.7583C75.7465 26.1141 75.7974 26.4368 75.899 26.7265C76.0032 27.0161 76.1595 27.2474 76.3678 27.4202C76.5787 27.5904 76.843 27.6756 77.1606 27.6756Z" fill="white"/>
<path d="M81.1295 28.6666V22.8119H82.4674V23.7877H82.5283C82.6351 23.4497 82.818 23.1893 83.0772 23.0063C83.339 22.8208 83.6375 22.7281 83.9729 22.7281C84.0492 22.7281 84.1343 22.7319 84.2283 22.7395C84.3249 22.7446 84.4049 22.7535 84.4685 22.7662V24.0355C84.41 24.0151 84.3173 23.9973 84.1902 23.9821C84.0657 23.9643 83.945 23.9554 83.8281 23.9554C83.5765 23.9554 83.3504 24.0101 83.1496 24.1193C82.9514 24.226 82.7952 24.3747 82.6808 24.5653C82.5665 24.7559 82.5093 24.9757 82.5093 25.2247V28.6666H81.1295Z" fill="white"/>
<path d="M87.736 28.7809C87.149 28.7809 86.642 28.659 86.2151 28.415C85.7908 28.1685 85.4642 27.8204 85.2355 27.3706C85.0068 26.9183 84.8925 26.386 84.8925 25.7736C84.8925 25.1713 85.0068 24.6428 85.2355 24.1879C85.4668 23.7305 85.7895 23.3748 86.2037 23.1207C86.6179 22.864 87.1045 22.7357 87.6635 22.7357C88.0244 22.7357 88.3649 22.7941 88.6851 22.911C89.0078 23.0254 89.2924 23.2033 89.5389 23.4447C89.7879 23.6861 89.9836 23.9935 90.1259 24.3671C90.2682 24.7381 90.3393 25.1802 90.3393 25.6935V26.1166H85.5405V25.1866H89.0167C89.0141 24.9223 88.957 24.6872 88.8451 24.4814C88.7333 24.2731 88.5771 24.1092 88.3763 23.9897C88.1781 23.8703 87.9469 23.8106 87.6826 23.8106C87.4005 23.8106 87.1528 23.8792 86.9393 24.0164C86.7259 24.1511 86.5594 24.329 86.44 24.55C86.3231 24.7686 86.2634 25.0087 86.2609 25.2704V26.0823C86.2609 26.4228 86.3231 26.715 86.4476 26.959C86.5722 27.2004 86.7462 27.3859 86.9698 27.5155C87.1934 27.6425 87.4552 27.706 87.755 27.706C87.9558 27.706 88.1375 27.6781 88.3001 27.6222C88.4627 27.5637 88.6037 27.4786 88.7232 27.3668C88.8426 27.255 88.9328 27.1165 88.9938 26.9513L90.2821 27.0962C90.2008 27.4367 90.0458 27.734 89.8171 27.9881C89.591 28.2397 89.3013 28.4353 88.9481 28.5751C88.5949 28.7123 88.1908 28.7809 87.736 28.7809Z" fill="white"/>
<defs>
<radialGradient id="paint0_radial_1312_115691" cx="0" cy="0" r="1" gradientUnits="userSpaceOnUse" gradientTransform="translate(56.5 20) rotate(76.9341) scale(39.2208 105.846)">
<stop stop-color="#C1C1C1"/>
<stop offset="1" stop-color="#EDEDED"/>
</radialGradient>
</defs>
</svg>
