<svg width="113" height="40" viewBox="0 0 113 40" fill="none" xmlns="http://www.w3.org/2000/svg">
<rect opacity="0.88" width="113" height="40" rx="8" fill="url(#paint0_radial_1312_115697)"/>
<path fill-rule="evenodd" clip-rule="evenodd" d="M8.35156 13.0666C8.35156 10.4319 10.4874 8.29614 13.122 8.29614H27.1352C29.7698 8.29614 31.9057 10.4319 31.9057 13.0666V26.9331C31.9057 29.5677 29.7698 31.7036 27.1352 31.7036H13.122C10.4874 31.7036 8.35156 29.5677 8.35156 26.9331V13.0666ZM17.1763 13.2553C16.6397 12.9605 16.0097 12.9674 15.4766 13.2595L21.7251 18.9879L23.8242 16.9018L17.1763 13.2553ZM14.6133 14.6777C14.6133 14.377 14.7007 14.0933 14.8533 13.8455L21.1207 19.5909L14.837 25.8354C14.693 25.5926 14.6133 25.315 14.6133 25.0236V14.6777ZM26.6077 18.4279L24.6055 17.33L22.3555 19.5651L25.1129 22.0924L26.6086 21.2721C27.1469 20.9757 27.4692 20.4442 27.4692 19.8496C27.4683 19.255 27.1469 18.7235 26.6077 18.4279ZM15.4453 26.4299L21.7461 20.1683L24.3193 22.5269L17.1733 26.4461C16.905 26.5934 16.6119 26.6667 16.3205 26.6667C16.0187 26.6667 15.7187 26.5849 15.4453 26.4299Z" fill="white"/>
<path d="M39.8985 15.2962H39.2378L41.1487 10.0921H41.7992L43.7101 15.2962H43.0494L41.4943 10.9154H41.4536L39.8985 15.2962ZM40.1424 13.2633H42.8055V13.8224H40.1424V13.2633Z" fill="white"/>
<path d="M47.1418 11.3931L45.6985 15.2962H45.0886L43.6453 11.3931H44.2958L45.3732 14.5034H45.4139L46.4913 11.3931H47.1418Z" fill="white"/>
<path d="M48.9631 15.3877C48.7158 15.3877 48.4913 15.3411 48.2897 15.2479C48.0882 15.1531 47.9281 15.0167 47.8095 14.8388C47.6909 14.6592 47.6316 14.4424 47.6316 14.1883C47.6316 13.9647 47.6757 13.7834 47.7637 13.6445C47.8518 13.5039 47.9696 13.3938 48.117 13.3142C48.2643 13.2345 48.427 13.1752 48.6048 13.1363C48.7844 13.0956 48.9648 13.0634 49.1461 13.0397C49.3833 13.0092 49.5755 12.9864 49.7229 12.9711C49.872 12.9542 49.9804 12.9262 50.0482 12.8873C50.1176 12.8483 50.1524 12.7805 50.1524 12.684V12.6636C50.1524 12.4129 50.0837 12.2181 49.9465 12.0792C49.811 11.9403 49.6052 11.8708 49.329 11.8708C49.0428 11.8708 48.8183 11.9335 48.6557 12.0589C48.493 12.1842 48.3787 12.3181 48.3126 12.4604L47.7434 12.2571C47.8451 12.0199 47.9806 11.8353 48.15 11.7031C48.3211 11.5693 48.5074 11.4761 48.709 11.4236C48.9123 11.3694 49.1122 11.3423 49.3087 11.3423C49.4341 11.3423 49.5781 11.3575 49.7407 11.388C49.905 11.4168 50.0634 11.477 50.2159 11.5684C50.37 11.6599 50.4979 11.798 50.5996 11.9826C50.7012 12.1673 50.752 12.4146 50.752 12.7246V15.2962H50.1524V14.7677H50.1219C50.0812 14.8524 50.0134 14.943 49.9186 15.0395C49.8237 15.1361 49.6975 15.2183 49.54 15.286C49.3824 15.3538 49.1901 15.3877 48.9631 15.3877ZM49.0546 14.849C49.2918 14.849 49.4917 14.8024 49.6543 14.7092C49.8186 14.616 49.9423 14.4958 50.0253 14.3484C50.11 14.201 50.1524 14.046 50.1524 13.8834V13.3345C50.1269 13.365 50.071 13.3929 49.9846 13.4183C49.8999 13.4421 49.8017 13.4632 49.6899 13.4819C49.5798 13.4988 49.4722 13.5141 49.3672 13.5276C49.2638 13.5395 49.18 13.5496 49.1156 13.5581C48.9597 13.5784 48.8141 13.6115 48.6785 13.6572C48.5447 13.7012 48.4363 13.7682 48.3533 13.8579C48.272 13.946 48.2313 14.0663 48.2313 14.2188C48.2313 14.4271 48.3084 14.5847 48.4625 14.6914C48.6184 14.7965 48.8157 14.849 49.0546 14.849Z" fill="white"/>
<path d="M51.8466 15.2962V11.3931H52.4463V15.2962H51.8466ZM52.1515 10.7426C52.0347 10.7426 51.9339 10.7028 51.8492 10.6232C51.7661 10.5435 51.7246 10.4478 51.7246 10.336C51.7246 10.2242 51.7661 10.1285 51.8492 10.0489C51.9339 9.96925 52.0347 9.92944 52.1515 9.92944C52.2684 9.92944 52.3684 9.96925 52.4514 10.0489C52.5361 10.1285 52.5784 10.2242 52.5784 10.336C52.5784 10.4478 52.5361 10.5435 52.4514 10.6232C52.3684 10.7028 52.2684 10.7426 52.1515 10.7426Z" fill="white"/>
<path d="M54.1444 10.0921V15.2962H53.5447V10.0921H54.1444Z" fill="white"/>
<path d="M56.3913 15.3877C56.144 15.3877 55.9195 15.3411 55.7179 15.2479C55.5164 15.1531 55.3563 15.0167 55.2377 14.8388C55.1191 14.6592 55.0598 14.4424 55.0598 14.1883C55.0598 13.9647 55.1039 13.7834 55.1919 13.6445C55.28 13.5039 55.3978 13.3938 55.5452 13.3142C55.6925 13.2345 55.8552 13.1752 56.033 13.1363C56.2126 13.0956 56.393 13.0634 56.5743 13.0397C56.8115 13.0092 57.0037 12.9864 57.1511 12.9711C57.3002 12.9542 57.4086 12.9262 57.4764 12.8873C57.5458 12.8483 57.5806 12.7805 57.5806 12.684V12.6636C57.5806 12.4129 57.5119 12.2181 57.3747 12.0792C57.2392 11.9403 57.0334 11.8708 56.7572 11.8708C56.471 11.8708 56.2465 11.9335 56.0839 12.0589C55.9212 12.1842 55.8069 12.3181 55.7408 12.4604L55.1716 12.2571C55.2733 12.0199 55.4088 11.8353 55.5782 11.7031C55.7493 11.5693 55.9356 11.4761 56.1372 11.4236C56.3405 11.3694 56.5404 11.3423 56.7369 11.3423C56.8623 11.3423 57.0063 11.3575 57.1689 11.388C57.3332 11.4168 57.4916 11.477 57.6441 11.5684C57.7982 11.6599 57.9261 11.798 58.0278 11.9826C58.1294 12.1673 58.1803 12.4146 58.1803 12.7246V15.2962H57.5806V14.7677H57.5501C57.5094 14.8524 57.4416 14.943 57.3468 15.0395C57.2519 15.1361 57.1257 15.2183 56.9682 15.286C56.8106 15.3538 56.6183 15.3877 56.3913 15.3877ZM56.4828 14.849C56.72 14.849 56.9199 14.8024 57.0825 14.7092C57.2468 14.616 57.3705 14.4958 57.4535 14.3484C57.5382 14.201 57.5806 14.046 57.5806 13.8834V13.3345C57.5551 13.365 57.4992 13.3929 57.4128 13.4183C57.3281 13.4421 57.2299 13.4632 57.1181 13.4819C57.008 13.4988 56.9004 13.5141 56.7954 13.5276C56.692 13.5395 56.6082 13.5496 56.5438 13.5581C56.3879 13.5784 56.2423 13.6115 56.1067 13.6572C55.9729 13.7012 55.8645 13.7682 55.7815 13.8579C55.7002 13.946 55.6595 14.0663 55.6595 14.2188C55.6595 14.4271 55.7366 14.5847 55.8907 14.6914C56.0466 14.7965 56.244 14.849 56.4828 14.849Z" fill="white"/>
<path d="M59.3561 15.2962V10.0921H59.9558V12.0131H60.0067C60.0507 11.9454 60.1117 11.859 60.1896 11.7539C60.2692 11.6472 60.3827 11.5523 60.5301 11.4693C60.6792 11.3846 60.8808 11.3423 61.1349 11.3423C61.4635 11.3423 61.7532 11.4244 62.0039 11.5888C62.2547 11.7531 62.4503 11.986 62.5909 12.2876C62.7315 12.5891 62.8018 12.9449 62.8018 13.3548C62.8018 13.7682 62.7315 14.1265 62.5909 14.4297C62.4503 14.7312 62.2555 14.965 62.0065 15.131C61.7575 15.2954 61.4703 15.3775 61.1451 15.3775C60.8943 15.3775 60.6936 15.336 60.5428 15.253C60.392 15.1683 60.276 15.0726 60.1947 14.9659C60.1134 14.8574 60.0507 14.7677 60.0067 14.6965H59.9355V15.2962H59.3561ZM59.9457 13.3447C59.9457 13.6394 59.9889 13.8995 60.0753 14.1248C60.1617 14.3484 60.2879 14.5237 60.4539 14.6508C60.6199 14.7761 60.8232 14.8388 61.0637 14.8388C61.3145 14.8388 61.5237 14.7727 61.6914 14.6406C61.8608 14.5068 61.9878 14.3272 62.0725 14.1019C62.1589 13.8749 62.2021 13.6225 62.2021 13.3447C62.2021 13.0702 62.1598 12.8229 62.0751 12.6027C61.9921 12.3807 61.8659 12.2054 61.6965 12.0767C61.5288 11.9462 61.3178 11.881 61.0637 11.881C60.8198 11.881 60.6148 11.9428 60.4488 12.0665C60.2828 12.1885 60.1574 12.3596 60.0727 12.5798C59.988 12.7983 59.9457 13.0533 59.9457 13.3447Z" fill="white"/>
<path d="M64.3189 10.0921V15.2962H63.7192V10.0921H64.3189Z" fill="white"/>
<path d="M67.0537 15.3775C66.6776 15.3775 66.3532 15.2945 66.0805 15.1285C65.8094 14.9608 65.6002 14.727 65.4528 14.4271C65.3071 14.1256 65.2343 13.7749 65.2343 13.3751C65.2343 12.9753 65.3071 12.623 65.4528 12.3181C65.6002 12.0114 65.8052 11.7726 66.0678 11.6015C66.332 11.4287 66.6403 11.3423 66.9927 11.3423C67.196 11.3423 67.3967 11.3762 67.5949 11.4439C67.7931 11.5117 67.9736 11.6218 68.1362 11.7743C68.2988 11.925 68.4284 12.1249 68.525 12.374C68.6215 12.623 68.6698 12.9296 68.6698 13.2938V13.5479H65.6612V13.0296H68.06C68.06 12.8093 68.0159 12.6128 67.9278 12.44C67.8414 12.2672 67.7178 12.1309 67.5568 12.0309C67.3976 11.931 67.2095 11.881 66.9927 11.881C66.7538 11.881 66.5472 11.9403 66.3727 12.0589C66.1999 12.1758 66.0669 12.3282 65.9737 12.5163C65.8806 12.7043 65.834 12.9059 65.834 13.121V13.4666C65.834 13.7614 65.8848 14.0113 65.9864 14.2162C66.0898 14.4195 66.2329 14.5745 66.4159 14.6813C66.5988 14.7863 66.8114 14.8388 67.0537 14.8388C67.2112 14.8388 67.3535 14.8168 67.4806 14.7727C67.6093 14.727 67.7203 14.6592 67.8135 14.5695C67.9066 14.478 67.9786 14.3645 68.0295 14.2289L68.6088 14.3916C68.5478 14.5881 68.4454 14.7609 68.3014 14.91C68.1574 15.0573 67.9795 15.1725 67.7677 15.2555C67.556 15.3369 67.318 15.3775 67.0537 15.3775Z" fill="white"/>
<path d="M73.1802 15.3775C72.8279 15.3775 72.5187 15.2937 72.2527 15.1259C71.9885 14.9582 71.7818 14.7236 71.6327 14.4221C71.4853 14.1205 71.4116 13.7682 71.4116 13.365C71.4116 12.9584 71.4853 12.6035 71.6327 12.3003C71.7818 11.997 71.9885 11.7616 72.2527 11.5938C72.5187 11.4261 72.8279 11.3423 73.1802 11.3423C73.5326 11.3423 73.8409 11.4261 74.1052 11.5938C74.3711 11.7616 74.5778 11.997 74.7252 12.3003C74.8743 12.6035 74.9488 12.9584 74.9488 13.365C74.9488 13.7682 74.8743 14.1205 74.7252 14.4221C74.5778 14.7236 74.3711 14.9582 74.1052 15.1259C73.8409 15.2937 73.5326 15.3775 73.1802 15.3775ZM73.1802 14.8388C73.4479 14.8388 73.6681 14.7702 73.8409 14.633C74.0137 14.4958 74.1416 14.3153 74.2246 14.0917C74.3076 13.8681 74.3491 13.6259 74.3491 13.365C74.3491 13.1041 74.3076 12.861 74.2246 12.6357C74.1416 12.4104 74.0137 12.2283 73.8409 12.0894C73.6681 11.9504 73.4479 11.881 73.1802 11.881C72.9126 11.881 72.6923 11.9504 72.5196 12.0894C72.3468 12.2283 72.2189 12.4104 72.1358 12.6357C72.0528 12.861 72.0113 13.1041 72.0113 13.365C72.0113 13.6259 72.0528 13.8681 72.1358 14.0917C72.2189 14.3153 72.3468 14.4958 72.5196 14.633C72.6923 14.7702 72.9126 14.8388 73.1802 14.8388Z" fill="white"/>
<path d="M76.4639 12.9482V15.2962H75.8642V11.3931H76.4436V12.003H76.4944C76.5859 11.8048 76.7248 11.6455 76.9112 11.5252C77.0975 11.4033 77.3381 11.3423 77.6328 11.3423C77.8971 11.3423 78.1283 11.3965 78.3265 11.5049C78.5247 11.6116 78.6789 11.7743 78.789 11.9928C78.8991 12.2096 78.9542 12.4841 78.9542 12.8161V15.2962H78.3545V12.8568C78.3545 12.5501 78.2749 12.3113 78.1156 12.1402C77.9564 11.9674 77.7379 11.881 77.46 11.881C77.2686 11.881 77.0975 11.9225 76.9467 12.0055C76.7977 12.0885 76.6799 12.2096 76.5935 12.3689C76.5071 12.5281 76.4639 12.7212 76.4639 12.9482Z" fill="white"/>
<path d="M83.76 11.3931V11.9013H81.7373V11.3931H83.76ZM82.3268 10.458H82.9265V14.1781C82.9265 14.3475 82.9511 14.4746 83.0002 14.5593C83.051 14.6423 83.1154 14.6982 83.1933 14.727C83.273 14.7541 83.3568 14.7677 83.4449 14.7677C83.511 14.7677 83.5652 14.7643 83.6075 14.7575C83.6499 14.749 83.6838 14.7422 83.7092 14.7372L83.8312 15.2759C83.7905 15.2911 83.7337 15.3064 83.6609 15.3216C83.5881 15.3385 83.4957 15.347 83.3839 15.347C83.2145 15.347 83.0485 15.3106 82.8859 15.2378C82.7249 15.1649 82.5911 15.0539 82.4844 14.9049C82.3794 14.7558 82.3268 14.5678 82.3268 14.3408V10.458Z" fill="white"/>
<path d="M85.3456 12.9482V15.2962H84.7459V10.0921H85.3456V12.003H85.3965C85.4879 11.8014 85.6252 11.6413 85.8081 11.5227C85.9928 11.4024 86.2384 11.3423 86.545 11.3423C86.811 11.3423 87.0439 11.3956 87.2438 11.5024C87.4437 11.6074 87.5987 11.7692 87.7088 11.9877C87.8206 12.2046 87.8766 12.4807 87.8766 12.8161V15.2962H87.2769V12.8568C87.2769 12.5468 87.1964 12.307 87.0355 12.1376C86.8762 11.9665 86.6551 11.881 86.3722 11.881C86.1757 11.881 85.9995 11.9225 85.8437 12.0055C85.6895 12.0885 85.5676 12.2096 85.4778 12.3689C85.3897 12.5281 85.3456 12.7212 85.3456 12.9482Z" fill="white"/>
<path d="M90.6101 15.3775C90.234 15.3775 89.9096 15.2945 89.6369 15.1285C89.3658 14.9608 89.1566 14.727 89.0092 14.4271C88.8635 14.1256 88.7907 13.7749 88.7907 13.3751C88.7907 12.9753 88.8635 12.623 89.0092 12.3181C89.1566 12.0114 89.3616 11.7726 89.6242 11.6015C89.8884 11.4287 90.1968 11.3423 90.5491 11.3423C90.7524 11.3423 90.9532 11.3762 91.1514 11.4439C91.3496 11.5117 91.53 11.6218 91.6926 11.7743C91.8552 11.925 91.9848 12.1249 92.0814 12.374C92.178 12.623 92.2262 12.9296 92.2262 13.2938V13.5479H89.2176V13.0296H91.6164C91.6164 12.8093 91.5723 12.6128 91.4842 12.44C91.3978 12.2672 91.2742 12.1309 91.1132 12.0309C90.954 11.931 90.766 11.881 90.5491 11.881C90.3103 11.881 90.1036 11.9403 89.9291 12.0589C89.7563 12.1758 89.6233 12.3282 89.5302 12.5163C89.437 12.7043 89.3904 12.9059 89.3904 13.121V13.4666C89.3904 13.7614 89.4412 14.0113 89.5429 14.2162C89.6462 14.4195 89.7893 14.5745 89.9723 14.6813C90.1553 14.7863 90.3679 14.8388 90.6101 14.8388C90.7677 14.8388 90.91 14.8168 91.037 14.7727C91.1658 14.727 91.2767 14.6592 91.3699 14.5695C91.4631 14.478 91.5351 14.3645 91.5859 14.2289L92.1653 14.3916C92.1043 14.5881 92.0018 14.7609 91.8578 14.91C91.7138 15.0573 91.5359 15.1725 91.3242 15.2555C91.1124 15.3369 90.8744 15.3775 90.6101 15.3775Z" fill="white"/>
<path d="M45.0542 23.3532C44.9907 23.1474 44.903 22.9631 44.7912 22.8005C44.6819 22.6353 44.5498 22.4943 44.3948 22.3774C44.2423 22.2605 44.067 22.1729 43.8688 22.1144C43.6706 22.0534 43.4546 22.0229 43.2208 22.0229C42.8015 22.0229 42.428 22.1284 42.1002 22.3393C41.7724 22.5502 41.5145 22.8602 41.3264 23.2693C41.1409 23.6759 41.0482 24.1714 41.0482 24.7559C41.0482 25.3454 41.1409 25.8447 41.3264 26.2538C41.5119 26.6629 41.7699 26.9742 42.1002 27.1877C42.4305 27.3986 42.8142 27.504 43.2513 27.504C43.6477 27.504 43.9908 27.4278 44.2804 27.2753C44.5727 27.1229 44.7976 26.9069 44.9551 26.6274C45.1127 26.3453 45.1914 26.015 45.1914 25.6363L45.5116 25.6859H43.3923V24.5805H46.5598V25.5182C46.5598 26.1865 46.4175 26.7646 46.1329 27.2525C45.8483 27.7404 45.457 28.1164 44.9589 28.3807C44.4609 28.6424 43.8891 28.7733 43.2437 28.7733C42.5246 28.7733 41.8931 28.6119 41.3493 28.2892C40.8081 27.964 40.385 27.5028 40.08 26.9056C39.7777 26.3059 39.6265 25.5944 39.6265 24.7711C39.6265 24.1409 39.7154 23.5781 39.8933 23.0826C40.0737 22.587 40.3253 22.1665 40.648 21.8209C40.9707 21.4728 41.3493 21.2085 41.7838 21.0281C42.2184 20.8451 42.691 20.7537 43.2018 20.7537C43.6337 20.7537 44.0365 20.8172 44.41 20.9442C44.7836 21.0688 45.1152 21.2466 45.4049 21.4779C45.6971 21.7091 45.9372 21.9835 46.1253 22.3012C46.3133 22.6188 46.4366 22.9695 46.495 23.3532H45.0542Z" fill="white"/>
<path d="M50.42 28.7809C49.8483 28.7809 49.3528 28.6551 48.9335 28.4036C48.5142 28.152 48.1889 27.8001 47.9577 27.3478C47.729 26.8954 47.6147 26.3669 47.6147 25.7621C47.6147 25.1573 47.729 24.6275 47.9577 24.1727C48.1889 23.7178 48.5142 23.3646 48.9335 23.1131C49.3528 22.8615 49.8483 22.7357 50.42 22.7357C50.9917 22.7357 51.4873 22.8615 51.9065 23.1131C52.3258 23.3646 52.6498 23.7178 52.8785 24.1727C53.1097 24.6275 53.2254 25.1573 53.2254 25.7621C53.2254 26.3669 53.1097 26.8954 52.8785 27.3478C52.6498 27.8001 52.3258 28.152 51.9065 28.4036C51.4873 28.6551 50.9917 28.7809 50.42 28.7809ZM50.4276 27.6756C50.7376 27.6756 50.9968 27.5904 51.2052 27.4202C51.4136 27.2474 51.5686 27.0161 51.6702 26.7265C51.7744 26.4368 51.8265 26.1141 51.8265 25.7583C51.8265 25.4 51.7744 25.076 51.6702 24.7864C51.5686 24.4941 51.4136 24.2616 51.2052 24.0888C50.9968 23.916 50.7376 23.8296 50.4276 23.8296C50.11 23.8296 49.8457 23.916 49.6348 24.0888C49.4264 24.2616 49.2702 24.4941 49.166 24.7864C49.0643 25.076 49.0135 25.4 49.0135 25.7583C49.0135 26.1141 49.0643 26.4368 49.166 26.7265C49.2702 27.0161 49.4264 27.2474 49.6348 27.4202C49.8457 27.5904 50.11 27.6756 50.4276 27.6756Z" fill="white"/>
<path d="M56.9503 28.7809C56.3785 28.7809 55.883 28.6551 55.4637 28.4036C55.0444 28.152 54.7192 27.8001 54.488 27.3478C54.2593 26.8954 54.1449 26.3669 54.1449 25.7621C54.1449 25.1573 54.2593 24.6275 54.488 24.1727C54.7192 23.7178 55.0444 23.3646 55.4637 23.1131C55.883 22.8615 56.3785 22.7357 56.9503 22.7357C57.522 22.7357 58.0175 22.8615 58.4368 23.1131C58.8561 23.3646 59.1801 23.7178 59.4087 24.1727C59.64 24.6275 59.7556 25.1573 59.7556 25.7621C59.7556 26.3669 59.64 26.8954 59.4087 27.3478C59.1801 27.8001 58.8561 28.152 58.4368 28.4036C58.0175 28.6551 57.522 28.7809 56.9503 28.7809ZM56.9579 27.6756C57.2679 27.6756 57.5271 27.5904 57.7354 27.4202C57.9438 27.2474 58.0988 27.0161 58.2005 26.7265C58.3046 26.4368 58.3567 26.1141 58.3567 25.7583C58.3567 25.4 58.3046 25.076 58.2005 24.7864C58.0988 24.4941 57.9438 24.2616 57.7354 24.0888C57.5271 23.916 57.2679 23.8296 56.9579 23.8296C56.6402 23.8296 56.376 23.916 56.1651 24.0888C55.9567 24.2616 55.8004 24.4941 55.6962 24.7864C55.5946 25.076 55.5438 25.4 55.5438 25.7583C55.5438 26.1141 55.5946 26.4368 55.6962 26.7265C55.8004 27.0161 55.9567 27.2474 56.1651 27.4202C56.376 27.5904 56.6402 27.6756 56.9579 27.6756Z" fill="white"/>
<path d="M63.4729 30.984C62.9774 30.984 62.5517 30.9167 62.196 30.782C61.8402 30.6499 61.5544 30.472 61.3384 30.2484C61.1224 30.0248 60.9725 29.777 60.8886 29.5051L62.1312 29.204C62.1871 29.3184 62.2684 29.4314 62.3751 29.5432C62.4819 29.6576 62.6254 29.7516 62.8059 29.8253C62.9888 29.9015 63.2188 29.9397 63.4958 29.9397C63.8871 29.9397 64.2111 29.8444 64.4677 29.6538C64.7244 29.4657 64.8527 29.1557 64.8527 28.7238V27.6146H64.7841C64.7129 27.7569 64.6087 27.903 64.4715 28.0529C64.3368 28.2028 64.1577 28.3286 63.9341 28.4303C63.713 28.5319 63.4348 28.5827 63.0993 28.5827C62.6496 28.5827 62.2417 28.4773 61.8758 28.2664C61.5124 28.0529 61.2228 27.7353 61.0068 27.3135C60.7933 26.8891 60.6866 26.358 60.6866 25.7202C60.6866 25.0773 60.7933 24.5348 61.0068 24.0926C61.2228 23.6479 61.5137 23.3113 61.8796 23.0826C62.2455 22.8513 62.6534 22.7357 63.1032 22.7357C63.4462 22.7357 63.7283 22.7941 63.9493 22.911C64.173 23.0254 64.3508 23.1639 64.483 23.3265C64.6151 23.4866 64.7155 23.6378 64.7841 23.7801H64.8603V22.8119H66.2211V28.7619C66.2211 29.2625 66.1016 29.6767 65.8628 30.0045C65.6239 30.3323 65.2974 30.5775 64.8832 30.7401C64.469 30.9027 63.9989 30.984 63.4729 30.984ZM63.4843 27.5002C63.7765 27.5002 64.0256 27.4291 64.2314 27.2868C64.4372 27.1445 64.5935 26.9399 64.7002 26.6731C64.8069 26.4063 64.8603 26.0861 64.8603 25.7126C64.8603 25.3441 64.8069 25.0214 64.7002 24.7444C64.596 24.4674 64.441 24.2527 64.2352 24.1003C64.0319 23.9453 63.7816 23.8678 63.4843 23.8678C63.1768 23.8678 62.9202 23.9478 62.7144 24.1079C62.5085 24.268 62.3535 24.4878 62.2494 24.7673C62.1452 25.0443 62.0931 25.3594 62.0931 25.7126C62.0931 26.0709 62.1452 26.3847 62.2494 26.654C62.3561 26.9209 62.5124 27.1292 62.7182 27.2791C62.9266 27.4265 63.1819 27.5002 63.4843 27.5002Z" fill="white"/>
<path d="M69.015 20.8604V28.6666H67.6352V20.8604H69.015Z" fill="white"/>
<path d="M73.0257 28.7809C72.4388 28.7809 71.9318 28.659 71.5049 28.415C71.0805 28.1685 70.754 27.8204 70.5253 27.3706C70.2966 26.9183 70.1823 26.386 70.1823 25.7736C70.1823 25.1713 70.2966 24.6428 70.5253 24.1879C70.7566 23.7305 71.0793 23.3748 71.4935 23.1207C71.9077 22.864 72.3943 22.7357 72.9533 22.7357C73.3142 22.7357 73.6547 22.7941 73.9748 22.911C74.2976 23.0254 74.5822 23.2033 74.8286 23.4447C75.0777 23.6861 75.2733 23.9935 75.4156 24.3671C75.5579 24.7381 75.6291 25.1802 75.6291 25.6935V26.1166H70.8303V25.1866H74.3064C74.3039 24.9223 74.2467 24.6872 74.1349 24.4814C74.0231 24.2731 73.8668 24.1092 73.6661 23.9897C73.4679 23.8703 73.2367 23.8106 72.9724 23.8106C72.6903 23.8106 72.4426 23.8792 72.2291 24.0164C72.0157 24.1511 71.8492 24.329 71.7298 24.55C71.6129 24.7686 71.5532 25.0087 71.5507 25.2704V26.0823C71.5507 26.4228 71.6129 26.715 71.7374 26.959C71.8619 27.2004 72.036 27.3859 72.2596 27.5155C72.4832 27.6425 72.745 27.706 73.0448 27.706C73.2455 27.706 73.4272 27.6781 73.5899 27.6222C73.7525 27.5637 73.8935 27.4786 74.013 27.3668C74.1324 27.255 74.2226 27.1165 74.2836 26.9513L75.5719 27.0962C75.4906 27.4367 75.3356 27.734 75.1069 27.9881C74.8807 28.2397 74.591 28.4353 74.2378 28.5751C73.8846 28.7123 73.4806 28.7809 73.0257 28.7809Z" fill="white"/>
<path d="M79.5198 28.6666V20.8604H82.4471C83.0468 20.8604 83.5499 20.9722 83.9565 21.1958C84.3656 21.4194 84.6744 21.7269 84.8827 22.1182C85.0936 22.507 85.1991 22.9492 85.1991 23.4447C85.1991 23.9453 85.0936 24.3899 84.8827 24.7787C84.6718 25.1675 84.3605 25.4737 83.9489 25.6973C83.5372 25.9184 83.0303 26.0289 82.428 26.0289H80.4879V24.8664H82.2375C82.5881 24.8664 82.8753 24.8054 83.0989 24.6834C83.3225 24.5615 83.4877 24.3938 83.5944 24.1803C83.7037 23.9669 83.7583 23.7216 83.7583 23.4447C83.7583 23.1677 83.7037 22.9237 83.5944 22.7128C83.4877 22.5019 83.3212 22.338 83.0951 22.2211C82.8715 22.1017 82.5831 22.042 82.2298 22.042H80.9339V28.6666H79.5198Z" fill="white"/>
<path d="M87.7462 20.8604V28.6666H86.3664V20.8604H87.7462Z" fill="white"/>
<path d="M90.8498 28.7847C90.4788 28.7847 90.1447 28.7187 89.8474 28.5865C89.5526 28.4519 89.3188 28.2537 89.146 27.9919C88.9758 27.7302 88.8906 27.4075 88.8906 27.0238C88.8906 26.6934 88.9516 26.4203 89.0736 26.2043C89.1956 25.9883 89.362 25.8155 89.5729 25.6859C89.7838 25.5563 90.0214 25.4585 90.2857 25.3924C90.5525 25.3238 90.8282 25.2742 91.1128 25.2437C91.4559 25.2082 91.7341 25.1764 91.9476 25.1485C92.161 25.118 92.316 25.0722 92.4126 25.0112C92.5117 24.9477 92.5612 24.8499 92.5612 24.7177V24.6949C92.5612 24.4077 92.4761 24.1854 92.3058 24.0278C92.1356 23.8703 91.8904 23.7915 91.5702 23.7915C91.2322 23.7915 90.9642 23.8652 90.766 24.0126C90.5703 24.16 90.4382 24.334 90.3695 24.5348L89.0812 24.3518C89.1829 23.9961 89.3506 23.6988 89.5844 23.4599C89.8181 23.2185 90.104 23.0381 90.442 22.9187C90.7799 22.7967 91.1535 22.7357 91.5626 22.7357C91.8446 22.7357 92.1254 22.7687 92.4049 22.8348C92.6845 22.9009 92.9398 23.0101 93.1711 23.1626C93.4023 23.3125 93.5878 23.5171 93.7276 23.7763C93.8699 24.0355 93.941 24.3595 93.941 24.7482V28.6666H92.6146V27.8623H92.5688C92.485 28.025 92.3668 28.1774 92.2144 28.3197C92.0644 28.4595 91.8751 28.5726 91.6464 28.659C91.4203 28.7428 91.1547 28.7847 90.8498 28.7847ZM91.2081 27.7708C91.4851 27.7708 91.7252 27.7162 91.9285 27.6069C92.1318 27.4951 92.2881 27.3478 92.3973 27.1648C92.5091 26.9818 92.565 26.7824 92.565 26.5664V25.8765C92.5218 25.912 92.4481 25.9451 92.344 25.9756C92.2423 26.0061 92.128 26.0327 92.0009 26.0556C91.8739 26.0785 91.7481 26.0988 91.6236 26.1166C91.4991 26.1344 91.3911 26.1496 91.2996 26.1623C91.0938 26.1903 90.9095 26.236 90.7469 26.2996C90.5843 26.3631 90.4559 26.452 90.3619 26.5664C90.2679 26.6782 90.2209 26.823 90.2209 27.0009C90.2209 27.255 90.3136 27.4469 90.4991 27.5765C90.6846 27.706 90.921 27.7708 91.2081 27.7708Z" fill="white"/>
<path d="M95.9764 30.8621C95.7884 30.8621 95.6143 30.8468 95.4542 30.8163C95.2967 30.7884 95.1709 30.7553 95.0769 30.7172L95.3971 29.6424C95.5978 29.7008 95.777 29.7287 95.9345 29.7262C96.0921 29.7237 96.2305 29.6741 96.35 29.5776C96.4719 29.4835 96.5749 29.326 96.6587 29.1049L96.7769 28.7885L94.6538 22.8119H96.1175L97.4668 27.2334H97.5278L98.8809 22.8119H100.348L98.0042 29.3755C97.8949 29.6855 97.7501 29.9511 97.5697 30.1722C97.3893 30.3958 97.1682 30.566 96.9065 30.6829C96.6473 30.8024 96.3373 30.8621 95.9764 30.8621Z" fill="white"/>
<defs>
<radialGradient id="paint0_radial_1312_115697" cx="0" cy="0" r="1" gradientUnits="userSpaceOnUse" gradientTransform="translate(56.5 20) rotate(76.9341) scale(39.2208 105.846)">
<stop stop-color="#C1C1C1"/>
<stop offset="1" stop-color="#EDEDED"/>
</radialGradient>
</defs>
</svg>
