<svg width="32" height="32" viewBox="0 0 32 32" fill="none" xmlns="http://www.w3.org/2000/svg">
<path opacity="0.88" d="M23.1631 10.5818C23.0159 10.1829 22.781 9.82178 22.4758 9.52539C22.1794 9.22021 21.8186 8.98535 21.4194 8.83813C21.0957 8.7124 20.6094 8.56274 19.7136 8.52197C18.7446 8.47778 18.4541 8.46826 16.001 8.46826C13.5476 8.46826 13.2571 8.47754 12.2883 8.52173C11.3926 8.56274 10.906 8.7124 10.5825 8.83813C10.1833 8.98535 9.82227 9.22021 9.52612 9.52539C9.22095 9.82178 8.98608 10.1826 8.83862 10.5818C8.71289 10.9055 8.56323 11.3921 8.52246 12.2878C8.47827 13.2566 8.46875 13.5471 8.46875 16.0005C8.46875 18.4536 8.47827 18.7441 8.52246 19.7131C8.56323 20.6089 8.71289 21.0952 8.83862 21.4189C8.98608 21.8181 9.2207 22.179 9.52588 22.4753C9.82227 22.7805 10.1831 23.0154 10.5823 23.1626C10.906 23.2886 11.3926 23.4382 12.2883 23.479C13.2571 23.5232 13.5474 23.5325 16.0007 23.5325C18.4543 23.5325 18.7449 23.5232 19.7134 23.479C20.6091 23.4382 21.0957 23.2886 21.4194 23.1626C22.2207 22.8535 22.854 22.2202 23.1631 21.4189C23.2888 21.0952 23.4385 20.6089 23.4795 19.7131C23.5237 18.7441 23.533 18.4536 23.533 16.0005C23.533 13.5471 23.5237 13.2566 23.4795 12.2878C23.4387 11.3921 23.2891 10.9055 23.1631 10.5818ZM16.001 20.718C13.3953 20.718 11.283 18.606 11.283 16.0002C11.283 13.3945 13.3953 11.2825 16.001 11.2825C18.6064 11.2825 20.7188 13.3945 20.7188 16.0002C20.7188 18.606 18.6064 20.718 16.001 20.718ZM20.9053 12.1985C20.2964 12.1985 19.8027 11.7048 19.8027 11.0959C19.8027 10.4871 20.2964 9.99341 20.9053 9.99341C21.5142 9.99341 22.0078 10.4871 22.0078 11.0959C22.0076 11.7048 21.5142 12.1985 20.9053 12.1985Z" fill="url(#paint0_radial_1312_115686)"/>
<path opacity="0.88" d="M19.0625 16C19.0625 17.6914 17.6914 19.0625 16 19.0625C14.3086 19.0625 12.9375 17.6914 12.9375 16C12.9375 14.3086 14.3086 12.9375 16 12.9375C17.6914 12.9375 19.0625 14.3086 19.0625 16Z" fill="url(#paint1_radial_1312_115686)"/>
<path opacity="0.88" d="M29.6921 0H2.30786C1.0332 0 0 1.0332 0 2.30786V29.6921C0 30.9668 1.0332 32 2.30786 32H29.6921C30.9668 32 32 30.9668 32 29.6921V2.30786C32 1.0332 30.9668 0 29.6921 0ZM25.1321 19.7878C25.0876 20.7659 24.9321 21.4336 24.7051 22.0181C24.2278 23.2522 23.2522 24.2278 22.0181 24.7051C21.4338 24.9321 20.7659 25.0874 19.7881 25.1321C18.8083 25.1768 18.4954 25.1875 16.0002 25.1875C13.5049 25.1875 13.1921 25.1768 12.2122 25.1321C11.2344 25.0874 10.5664 24.9321 9.98218 24.7051C9.3689 24.4744 8.81372 24.1128 8.35474 23.6453C7.88745 23.1865 7.52588 22.6311 7.29517 22.0181C7.06812 21.4338 6.9126 20.7659 6.86816 19.7881C6.823 18.8081 6.8125 18.4951 6.8125 16C6.8125 13.5049 6.823 13.1919 6.86792 12.2122C6.91235 11.2341 7.06763 10.5664 7.29468 9.98193C7.52539 9.3689 7.88721 8.81348 8.35474 8.35474C8.81348 7.88721 9.3689 7.52563 9.98193 7.29492C10.5664 7.06787 11.2341 6.9126 12.2122 6.86792C13.1919 6.82324 13.5049 6.8125 16 6.8125C18.4951 6.8125 18.8081 6.82324 19.7878 6.86816C20.7659 6.9126 21.4336 7.06787 22.0181 7.29468C22.6311 7.52539 23.1865 7.88721 23.6455 8.35474C24.1128 8.81372 24.4746 9.3689 24.7051 9.98193C24.9324 10.5664 25.0876 11.2341 25.1323 12.2122C25.177 13.1919 25.1875 13.5049 25.1875 16C25.1875 18.4951 25.177 18.8081 25.1321 19.7878Z" fill="url(#paint2_radial_1312_115686)"/>
<defs>
<radialGradient id="paint0_radial_1312_115686" cx="0" cy="0" r="1" gradientUnits="userSpaceOnUse" gradientTransform="translate(16.0009 16.0004) rotate(85.3036) scale(14.4368)">
<stop stop-color="#C1C1C1"/>
<stop offset="1" stop-color="#EDEDED"/>
</radialGradient>
<radialGradient id="paint1_radial_1312_115686" cx="0" cy="0" r="1" gradientUnits="userSpaceOnUse" gradientTransform="translate(16 16) rotate(85.3036) scale(5.86991)">
<stop stop-color="#C1C1C1"/>
<stop offset="1" stop-color="#EDEDED"/>
</radialGradient>
<radialGradient id="paint2_radial_1312_115686" cx="0" cy="0" r="1" gradientUnits="userSpaceOnUse" gradientTransform="translate(16 16) rotate(85.3036) scale(30.6673)">
<stop stop-color="#C1C1C1"/>
<stop offset="1" stop-color="#EDEDED"/>
</radialGradient>
</defs>
</svg>
