<svg width="32" height="32" viewBox="0 0 32 32" fill="none" xmlns="http://www.w3.org/2000/svg">
<path opacity="0.88" d="M29.6921 0C29.6921 0 29.6921 0 29.6921 0H2.30786C1.0332 0 0 1.0332 0 2.30786V29.6921C0 30.9668 1.0332 32 2.30786 32H29.6921C30.9668 32 32 30.9668 32 29.6921V2.30786C32 1.0332 30.9668 0 29.6921 0C29.6921 0 29.6921 0 29.6921 0ZM11.3506 22.2391C11.3506 23.3152 10.4783 24.1875 9.40222 24.1875C8.32617 24.1875 7.45386 23.3152 7.45386 22.2391V14.4125C7.45386 13.3364 8.32617 12.4641 9.40222 12.4641C10.4783 12.4641 11.3506 13.3364 11.3506 14.4125V22.2391ZM9.40234 10.8633H9.37695C8.06934 10.8633 7.22363 9.96313 7.22363 8.83813C7.22363 7.68774 8.09521 6.8125 9.42822 6.8125C10.7612 6.8125 11.5815 7.68774 11.6069 8.83813C11.6069 9.96313 10.7612 10.8633 9.40234 10.8633ZM25.4014 22.2394C25.4014 23.3153 24.5292 24.1875 23.4532 24.1875C22.3773 24.1875 21.5051 23.3153 21.5051 22.2394V17.9158C21.5051 16.3396 20.9409 15.2646 19.531 15.2646C18.4546 15.2646 17.8135 15.9897 17.5317 16.6897C17.4287 16.9402 17.4036 17.2903 17.4036 17.6406V22.2439C17.4036 23.3173 16.5334 24.1875 15.46 24.1875C14.383 24.1875 13.5112 23.3149 13.5153 22.2378C13.5235 20.091 13.5341 16.6528 13.5279 14.4545C13.5248 13.3689 14.4148 12.4641 15.5005 12.4641H17.0247C17.2339 12.4641 17.4036 12.6337 17.4036 12.843C17.4036 13.2204 17.9379 13.3931 18.2188 13.1411C18.7978 12.6219 19.6392 12.189 20.9153 12.189C23.479 12.189 25.4014 13.8645 25.4014 17.4653V22.2394Z" fill="url(#paint0_radial_1312_115685)"/>
<defs>
<radialGradient id="paint0_radial_1312_115685" cx="0" cy="0" r="1" gradientUnits="userSpaceOnUse" gradientTransform="translate(16 16) rotate(85.3036) scale(30.6673)">
<stop stop-color="#C1C1C1"/>
<stop offset="1" stop-color="#EDEDED"/>
</radialGradient>
</defs>
</svg>
