<svg width="51" height="44" viewBox="0 0 54 48" fill="none" xmlns="http://www.w3.org/2000/svg">
<mask id="mask0_1312_115719" style="mask-type:alpha" maskUnits="userSpaceOnUse" x="0" y="0" width="54" height="48">
<path d="M29.9433 21.0371H24.4878C24.4878 21.0371 23.7085 24.498 27.2156 24.498C30.7227 24.498 29.9433 21.0371 29.9433 21.0371Z" fill="#3E3E3E"/>
<path d="M37.2188 24.2743C37.2188 24.2743 38.8629 31.344 44.6173 29.9353C49.0958 28.839 45.4394 19.4841 48.3166 16.4358C49.7921 14.8725 52.4269 15.5649 52.4269 15.5649" stroke="#212121" stroke-width="2.67568" stroke-linecap="round"/>
<path d="M17.209 24.2743C17.209 24.2743 15.5649 31.344 9.81043 29.9353C5.3319 28.839 8.98836 19.4841 6.11115 16.4358C4.63561 14.8725 2.00084 15.5649 2.00084 15.5649" stroke="#3E3E3E" stroke-width="2.67568" stroke-linecap="round"/>
<path d="M16.5516 17.5741C16.5516 17.5741 14.3696 1.99993 27.0269 2C39.6842 2.00007 37.9381 17.5741 37.9381 17.5741" stroke="#3E3E3E" stroke-width="2.67568" stroke-linecap="round"/>
<path d="M36.6086 17.4092C36.5176 18.1425 37.0382 18.8107 37.7714 18.9018C38.5046 18.9928 39.1729 18.4722 39.2639 17.739L36.6086 17.4092ZM27.2129 3.33784C30.0782 3.33786 31.9985 4.20884 33.326 5.42132C34.6807 6.65862 35.5259 8.35155 36.0335 10.1504C36.5402 11.9459 36.6873 13.7662 36.7029 15.1557C36.7107 15.8461 36.686 16.4196 36.6597 16.8166C36.6466 17.0149 36.6332 17.1685 36.6233 17.2699C36.6184 17.3206 36.6144 17.3582 36.6118 17.3817C36.6105 17.3935 36.6095 17.4018 36.609 17.4064C36.6087 17.4087 36.6085 17.4101 36.6085 17.4106C36.6084 17.4108 36.6084 17.4108 36.6085 17.4106C36.6085 17.4105 36.6085 17.4102 36.6085 17.4101C36.6086 17.4097 36.6086 17.4092 37.9363 17.5741C39.2639 17.739 39.264 17.7384 39.2641 17.7378C39.2641 17.7375 39.2642 17.7368 39.2643 17.7362C39.2644 17.735 39.2646 17.7336 39.2648 17.7319C39.2652 17.7287 39.2657 17.7244 39.2663 17.7192C39.2675 17.7089 39.2691 17.6948 39.2711 17.6771C39.275 17.6417 39.2803 17.5919 39.2865 17.5285C39.2988 17.4018 39.3145 17.2208 39.3296 16.9932C39.3596 16.5385 39.3871 15.8953 39.3784 15.1256C39.3612 13.595 39.2007 11.5218 38.6086 9.42376C38.0176 7.32909 36.973 5.1285 35.1304 3.44565C33.2607 1.73798 30.6763 0.662179 27.2129 0.66216L27.2129 3.33784Z" fill="#212121"/>
<path d="M27.2129 28.9658V46.0001" stroke="#3E3E3E" stroke-width="2.67568" stroke-linecap="round"/>
<path d="M33.4704 26.6533C33.4704 26.6533 31.3211 41.3622 39.4885 41.3622C47.6559 41.3622 46.7961 33.7849 46.7961 33.7849" stroke="#212121" stroke-width="2.67568" stroke-linecap="round"/>
<path d="M20.9553 26.6533C20.9553 26.6533 23.1047 41.3622 14.9373 41.3622C6.76992 41.3622 7.62965 33.7849 7.62965 33.7849" stroke="#3E3E3E" stroke-width="2.67568" stroke-linecap="round"/>
<ellipse cx="32.4192" cy="18.8696" rx="1.60086" ry="1.73046" fill="#212121"/>
<ellipse cx="22.011" cy="18.8696" rx="1.60086" ry="1.73046" fill="#3E3E3E"/>
</mask>
<g mask="url(#mask0_1312_115719)">
<rect x="-1.23242" y="-2.19238" width="28.4747" height="52.4545" fill="#FF474D"/>
<rect x="27.2461" y="-2.19238" width="28.4747" height="52.4545" fill="#D61414"/>
</g>
</svg>
