<svg width="70" height="23" viewBox="0 0 70 23" fill="none" xmlns="http://www.w3.org/2000/svg">
<path d="M9.4227 6.7684V9.33181H5.61626V17.6019C5.61626 18.3546 5.74982 18.8937 6.01694 19.2193C6.30313 19.5244 6.73243 19.6872 7.30483 19.7075C7.87722 19.7075 8.58318 19.6872 9.4227 19.6465V22.0268C7.22851 22.332 5.6258 22.1387 4.61456 21.447C3.62241 20.7553 3.12633 19.4736 3.12633 17.6019V9.33181H0.292969V6.7684H3.12633V3.28948L5.61626 2.49604V6.7684H9.4227Z" fill="#3E3E3E"/>
<path d="M13.6298 3.99137C13.1528 3.99137 12.7521 3.81844 12.4278 3.47258C12.1034 3.12672 11.9412 2.70966 11.9412 2.22139C11.9412 1.73312 12.1034 1.31606 12.4278 0.9702C12.7521 0.603999 13.1528 0.420898 13.6298 0.420898C14.0877 0.420898 14.4789 0.603999 14.8032 0.9702C15.1276 1.31606 15.2898 1.73312 15.2898 2.22139C15.2898 2.70966 15.1276 3.12672 14.8032 3.47258C14.4789 3.81844 14.0877 3.99137 13.6298 3.99137ZM14.8605 22.0268H12.3705V6.7684H14.8605V22.0268Z" fill="#3E3E3E"/>
<path d="M25.7854 6.37168C27.4644 6.37168 28.8096 6.94132 29.8208 8.08062C30.832 9.19957 31.3377 10.7254 31.3377 12.6581V22.0268H28.8477V12.8107C28.8477 11.5901 28.5329 10.6339 27.9033 9.94214C27.2736 9.25043 26.4055 8.90457 25.2989 8.90457C24.0205 8.90457 23.0093 9.33181 22.2652 10.1863C21.5211 11.0204 21.149 12.2716 21.149 13.9398V22.0268H18.6591V6.7684H21.149V8.96561C22.1412 7.23632 23.6866 6.37168 25.7854 6.37168Z" fill="#3E3E3E"/>
<path d="M40.1416 19.1887L44.6349 6.7684H47.3252L41.6012 22.0268H38.682L32.958 6.7684H35.6483L40.1416 19.1887Z" fill="#3E3E3E"/>
<path d="M50.6903 3.99137C50.2133 3.99137 49.8126 3.81844 49.4882 3.47258C49.1639 3.12672 49.0017 2.70966 49.0017 2.22139C49.0017 1.73312 49.1639 1.31606 49.4882 0.9702C49.8126 0.603999 50.2133 0.420898 50.6903 0.420898C51.1482 0.420898 51.5393 0.603999 51.8637 0.9702C52.188 1.31606 52.3502 1.73312 52.3502 2.22139C52.3502 2.70966 52.188 3.12672 51.8637 3.47258C51.5393 3.81844 51.1482 3.99137 50.6903 3.99137ZM51.9209 22.0268H49.431V6.7684H51.9209V22.0268Z" fill="#3E3E3E"/>
<path d="M67.7971 20.1042C66.347 21.6504 64.5631 22.4235 62.4452 22.4235C60.3273 22.4235 58.5434 21.6504 57.0933 20.1042C55.6432 18.5581 54.9182 16.6558 54.9182 14.3976C54.9182 12.1394 55.6432 10.2371 57.0933 8.69096C58.5434 7.14477 60.3273 6.37168 62.4452 6.37168C64.5631 6.37168 66.347 7.14477 67.7971 8.69096C69.2663 10.2575 70.0008 12.1597 70.0008 14.3976C70.0008 16.6355 69.2663 18.5377 67.7971 20.1042ZM62.4452 19.8296C63.8762 19.8296 65.0782 19.3108 66.0513 18.2732C67.0244 17.2357 67.5109 15.9438 67.5109 14.3976C67.5109 12.8514 67.0244 11.5595 66.0513 10.522C65.0782 9.48439 63.8762 8.96561 62.4452 8.96561C61.0333 8.96561 59.8408 9.48439 58.8677 10.522C57.8946 11.5595 57.4081 12.8514 57.4081 14.3976C57.4081 15.9438 57.8946 17.2357 58.8677 18.2732C59.8408 19.3108 61.0333 19.8296 62.4452 19.8296Z" fill="#3E3E3E"/>
<path d="M40.1416 19.1887L44.6349 6.7684H47.3252L41.6012 22.0268H38.682L32.958 6.7684H35.6483L40.1416 19.1887Z" fill="#212121"/>
<path d="M50.6903 3.99137C50.2133 3.99137 49.8126 3.81844 49.4882 3.47258C49.1639 3.12672 49.0017 2.70966 49.0017 2.22139C49.0017 1.73312 49.1639 1.31606 49.4882 0.9702C49.8126 0.603999 50.2133 0.420898 50.6903 0.420898C51.1482 0.420898 51.5393 0.603999 51.8637 0.9702C52.188 1.31606 52.3502 1.73312 52.3502 2.22139C52.3502 2.70966 52.188 3.12672 51.8637 3.47258C51.5393 3.81844 51.1482 3.99137 50.6903 3.99137ZM51.9209 22.0268H49.431V6.7684H51.9209V22.0268Z" fill="#212121"/>
<path d="M67.7971 20.1042C66.347 21.6504 64.5631 22.4235 62.4452 22.4235C60.3273 22.4235 58.5434 21.6504 57.0933 20.1042C55.6432 18.5581 54.9182 16.6558 54.9182 14.3976C54.9182 12.1394 55.6432 10.2371 57.0933 8.69096C58.5434 7.14477 60.3273 6.37168 62.4452 6.37168C64.5631 6.37168 66.347 7.14477 67.7971 8.69096C69.2663 10.2575 70.0008 12.1597 70.0008 14.3976C70.0008 16.6355 69.2663 18.5377 67.7971 20.1042ZM62.4452 19.8296C63.8762 19.8296 65.0782 19.3108 66.0513 18.2732C67.0244 17.2357 67.5109 15.9438 67.5109 14.3976C67.5109 12.8514 67.0244 11.5595 66.0513 10.522C65.0782 9.48439 63.8762 8.96561 62.4452 8.96561C61.0333 8.96561 59.8408 9.48439 58.8677 10.522C57.8946 11.5595 57.4081 12.8514 57.4081 14.3976C57.4081 15.9438 57.8946 17.2357 58.8677 18.2732C59.8408 19.3108 61.0333 19.8296 62.4452 19.8296Z" fill="#212121"/>
<ellipse cx="50.8219" cy="2.3282" rx="1.78874" ry="1.9073" fill="#D61414"/>
<ellipse cx="13.7106" cy="2.3282" rx="1.78874" ry="1.9073" fill="#FF474D"/>
</svg>
