<svg width="35" height="27" viewBox="0 0 35 27" fill="none" xmlns="http://www.w3.org/2000/svg">
<path d="M28.8999 5.91363C29.575 7.11808 31.0985 7.54713 32.3029 6.87195C33.5072 6.19676 33.9363 4.67302 33.2613 3.46857C32.5863 2.26411 31.0627 1.83506 29.8584 2.51025C28.654 3.18543 28.2249 4.70917 28.8999 5.91363Z" fill="#3897FF"/>
<path d="M17.2797 25.8376L19.2552 21.9709L17.8605 17.8587L21.7273 19.8344L25.8394 18.4397L23.8641 22.3065L25.2586 26.4186L21.3918 24.443L17.2797 25.8376Z" fill="#FFCC00"/>
<path d="M4.76453 11.5673L4.28256 7.25183L0.853326 4.58861L5.16858 4.10641L7.83154 0.676514L8.31351 4.99201L11.7427 7.65523L7.42781 8.13753L4.76453 11.5673Z" fill="#00A98F"/>
</svg>
