<svg width="56" height="43" viewBox="0 0 56 43" fill="none" xmlns="http://www.w3.org/2000/svg">
<path d="M46.4227 8.40145C47.5027 10.3286 49.9404 11.0151 51.8674 9.93476C53.7944 8.85447 54.481 6.41648 53.4009 4.48935C52.3209 2.56223 49.8832 1.87575 47.9562 2.95605C46.0292 4.03634 45.3426 6.47433 46.4227 8.40145Z" fill="#3897FF"/>
<path d="M27.3952 41.0763L30.6055 34.7928L28.339 28.1106L34.6225 31.321L41.3047 29.0547L38.0948 35.3382L40.3609 42.0204L34.0774 38.81L27.3952 41.0763Z" fill="#FFCC00"/>
<path d="M6.72246 17.4385L6.01187 10.5553L0.51196 6.35715L7.49359 5.51886L11.8516 0L12.5622 6.88315L18.0621 11.0813L11.081 11.9198L6.72246 17.4385Z" fill="#00A98F"/>
</svg>
