<svg width="52" height="39" viewBox="0 0 52 39" fill="none" xmlns="http://www.w3.org/2000/svg">
<path d="M43.7092 7.40327C44.6543 9.0895 46.7872 9.69018 48.4733 8.74492C50.1594 7.79966 50.7602 5.66642 49.8152 3.98019C48.8701 2.29396 46.7371 1.69328 45.051 2.63854C43.3649 3.5838 42.7642 5.71704 43.7092 7.40327Z" fill="#3897FF"/>
<path d="M25.8622 38.0368L28.8255 32.2367L26.7333 26.0685L32.5335 29.0319L38.7017 26.9399L35.7387 32.7401L37.8305 38.9083L32.0303 35.9448L25.8622 38.0368Z" fill="#FFCC00"/>
<path d="M6.78961 16.3362L6.06666 9.86297L0.92281 5.86814L7.3957 5.14484L11.3901 0L12.1131 6.47325L17.2569 10.4681L10.7845 11.1915L6.78961 16.3362Z" fill="#00A98F"/>
</svg>
