<svg width="87" height="87" viewBox="0 0 87 87" fill="none" xmlns="http://www.w3.org/2000/svg">
<g filter="url(#filter0_f_743_116916)">
<ellipse cx="22.9999" cy="23.0001" rx="22.9999" ry="23.0001" transform="matrix(0.955166 -0.296089 0.296004 0.955181 15.197 28.1744)" fill="#212121" fill-opacity="0.1"/>
</g>
<circle cx="28" cy="28" r="28" transform="matrix(0.977118 -0.212698 0.212637 0.977131 7 13)" fill="#C5EDDC"/>
<path d="M36.8912 25.4321L38.037 30.6976L25.6677 33.3901C24.7004 33.6007 23.3552 31.228 23.1451 30.2626C22.9351 29.2973 23.5546 28.3352 24.5219 28.1246L36.8912 25.4321Z" fill="#285059"/>
<path d="M51.0608 27.5888L48.6921 23.949L41.39 22.3096L36.8323 25.185L24.6075 32.8732C24.2374 33.1063 24.0883 33.5705 24.2552 33.974C24.4203 34.377 24.8525 34.6025 25.2785 34.5098L25.2802 34.5094L38.2391 31.6498L50.4926 28.9458C50.7793 28.8824 51.0168 28.6845 51.1305 28.4137C51.2428 28.1443 51.2171 27.8357 51.0608 27.5888Z" fill="#3DCE9E"/>
<path d="M51.1337 28.4136C51.2459 28.1441 51.2201 27.8356 51.0639 27.5886L48.6951 23.9489L41.3931 22.3094L36.8354 25.1848L38.2422 31.6497L50.4957 28.9456C50.7823 28.8823 51.0198 28.6843 51.1337 28.4136Z" fill="#21A28C"/>
<path d="M51.9756 26.7437L55.7951 44.2955C55.9021 44.7869 55.5993 45.2573 55.1068 45.3645L30.3681 50.7496C28.9084 51.0673 27.4742 50.1478 27.1572 48.691L23.1467 30.2617C23.3568 31.2271 24.3201 31.8446 25.2873 31.6341L50.9053 26.0576C51.3978 25.9504 51.8687 26.2522 51.9756 26.7437Z" fill="#3F6A73"/>
<path d="M51.9725 26.7446L55.792 44.2963C55.899 44.7877 55.5962 45.2581 55.1037 45.3653L41.855 48.2493L37.6536 28.9424L50.9022 26.0584C51.3947 25.9512 51.8656 26.2531 51.9725 26.7446Z" fill="#285059"/>
<path d="M45.801 19.9058C45.5698 19.852 45.3254 19.8944 45.1231 20.0228L41.3928 22.3097C41.9526 23.732 43.0981 24.6715 44.306 25.0296C45.8003 25.4712 47.4572 25.1173 48.6949 23.9491L46.3639 20.302C46.2374 20.1007 46.0337 19.9583 45.801 19.9058Z" fill="#3DCE9E"/>
<path d="M53.9565 40.0991L48.6219 41.2603C46.1968 41.7882 43.7968 40.2488 43.2703 37.8295C42.7438 35.4101 44.2871 33.0123 46.7121 32.4845L52.0467 31.3232C53.5014 31.0066 54.9418 31.93 55.2577 33.3817L56.0216 36.8921C56.3375 38.3439 55.4111 39.7824 53.9565 40.0991Z" fill="#3F6A73"/>
<path d="M47.85 37.7528C48.3359 37.647 48.6442 37.1682 48.5387 36.6834C48.4332 36.1985 47.9538 35.8912 47.4679 35.997C46.982 36.1027 46.6737 36.5815 46.7792 37.0664C46.8847 37.5512 47.3641 37.8585 47.85 37.7528Z" fill="#FFBB33"/>
<defs>
<filter id="filter0_f_743_116916" x="0.968262" y="0.327026" width="86.0112" height="86.0134" filterUnits="userSpaceOnUse" color-interpolation-filters="sRGB">
<feFlood flood-opacity="0" result="BackgroundImageFix"/>
<feBlend mode="normal" in="SourceGraphic" in2="BackgroundImageFix" result="shape"/>
<feGaussianBlur stdDeviation="10" result="effect1_foregroundBlur_743_116916"/>
</filter>
</defs>
</svg>
