<svg width="130" height="85" viewBox="0 0 130 85" fill="none" xmlns="http://www.w3.org/2000/svg">
<path d="M7.06338 83.9417C6.64443 84.2359 6.06611 84.1347 5.77166 83.7155L0.973376 76.8847C0.678929 76.4655 0.779859 75.8871 1.19881 75.5928C1.61776 75.2985 2.19608 75.3998 2.49052 75.8189L6.75567 81.8908L12.8243 77.628C13.2432 77.3337 13.8215 77.435 14.116 77.8541C14.4104 78.2733 14.3095 78.8517 13.8905 79.146L7.06338 83.9417ZM7.62188 82.321L7.44361 83.3426L5.61685 83.0228L5.79511 82.0012L7.62188 82.321Z" fill="url(#paint0_linear_743_116854)"/>
<rect width="2.78182" height="2.78182" rx="0.463636" transform="matrix(-0.706542 -0.707671 -0.706542 0.707671 9.5144 75.2617)" fill="url(#paint1_radial_743_116854)"/>
<rect width="2.78182" height="2.78182" rx="0.463636" transform="matrix(-0.706542 -0.707671 -0.706542 0.707671 10.7964 69.0675)" fill="url(#paint2_radial_743_116854)"/>
<rect width="2.78182" height="2.78182" rx="0.463636" transform="matrix(-0.706542 -0.707671 -0.706542 0.707671 12.3452 62.7509)" fill="url(#paint3_radial_743_116854)"/>
<rect width="2.78182" height="2.78182" rx="0.463636" transform="matrix(-0.706542 -0.707671 -0.706542 0.707671 14.1016 56.4889)" fill="url(#paint4_radial_743_116854)"/>
<rect width="2.78182" height="2.78182" rx="0.463636" transform="matrix(-0.706542 -0.707671 -0.706542 0.707671 16.0781 50.2935)" fill="url(#paint5_radial_743_116854)"/>
<rect width="2.78182" height="2.78182" rx="0.463636" transform="matrix(-0.706542 -0.707671 -0.706542 0.707671 18.3047 44.1843)" fill="url(#paint6_radial_743_116854)"/>
<rect width="2.78182" height="2.78182" rx="0.463636" transform="matrix(-0.706542 -0.707671 -0.706542 0.707671 20.8315 38.1909)" fill="url(#paint7_radial_743_116854)"/>
<rect width="2.78182" height="2.78182" rx="0.463636" transform="matrix(-0.706542 -0.707671 -0.706542 0.707671 23.7134 32.3622)" fill="url(#paint8_radial_743_116854)"/>
<rect width="2.78182" height="2.78182" rx="0.463636" transform="matrix(-0.706542 -0.707671 -0.706542 0.707671 27.0442 26.7798)" fill="url(#paint9_radial_743_116854)"/>
<rect width="2.78182" height="2.78182" rx="0.463636" transform="matrix(-0.706542 -0.707671 -0.706542 0.707671 31.6963 21.0951)" fill="url(#paint10_radial_743_116854)"/>
<rect width="2.78182" height="2.78182" rx="0.463636" transform="matrix(-0.706542 -0.707671 -0.706542 0.707671 36.595 16.2721)" fill="url(#paint11_radial_743_116854)"/>
<rect width="2.78182" height="2.78182" rx="0.463636" transform="matrix(-0.706542 -0.707671 -0.706542 0.707671 41.9963 12.6677)" fill="url(#paint12_radial_743_116854)"/>
<rect width="2.78182" height="2.78182" rx="0.463636" transform="matrix(-0.706542 -0.707671 -0.706542 0.707671 47.821 9.78711)" fill="url(#paint13_radial_743_116854)"/>
<rect width="2.78182" height="2.78182" rx="0.463636" transform="matrix(-0.706542 -0.707671 -0.706542 0.707671 53.9141 7.53687)" fill="url(#paint14_radial_743_116854)"/>
<rect width="2.78182" height="2.78182" rx="0.463636" transform="matrix(-0.706542 -0.707671 -0.706542 0.707671 60.1775 5.82214)" fill="url(#paint15_radial_743_116854)"/>
<rect width="2.78182" height="2.78182" rx="0.463636" transform="matrix(-0.706542 -0.707671 -0.706542 0.707671 66.5488 4.55872)" fill="url(#paint16_radial_743_116854)"/>
<rect width="2.78182" height="2.78182" rx="0.463636" transform="matrix(-0.706542 -0.707671 -0.706542 0.707671 72.9785 3.67761)" fill="url(#paint17_radial_743_116854)"/>
<rect width="2.78182" height="2.78182" rx="0.463636" transform="matrix(-0.706542 -0.707671 -0.706542 0.707671 79.4524 3.12354)" fill="url(#paint18_radial_743_116854)"/>
<rect width="2.78182" height="2.78182" rx="0.463636" transform="matrix(-0.706542 -0.707671 -0.706542 0.707671 85.9395 2.85181)" fill="url(#paint19_radial_743_116854)"/>
<rect width="2.78182" height="2.78182" rx="0.463636" transform="matrix(-0.706542 -0.707671 -0.706542 0.707671 92.4351 2.828)" fill="url(#paint20_radial_743_116854)"/>
<rect width="2.78182" height="2.78182" rx="0.463636" transform="matrix(-0.706542 -0.707671 -0.706542 0.707671 98.9224 3.02417)" fill="url(#paint21_radial_743_116854)"/>
<rect width="2.78182" height="2.78182" rx="0.463636" transform="matrix(-0.706542 -0.707671 -0.706542 0.707671 105.406 3.41895)" fill="url(#paint22_radial_743_116854)"/>
<rect width="2.78182" height="2.78182" rx="0.463636" transform="matrix(-0.706542 -0.707671 -0.706542 0.707671 111.876 3.99585)" fill="url(#paint23_radial_743_116854)"/>
<rect width="2.78182" height="2.78182" rx="0.463636" transform="matrix(-0.706542 -0.707671 -0.706542 0.707671 118.324 4.74341)" fill="url(#paint24_radial_743_116854)"/>
<rect width="2.78182" height="2.78182" rx="0.463636" transform="matrix(-0.706542 -0.707671 -0.706542 0.707671 124.243 6.26416)" fill="url(#paint25_radial_743_116854)"/>
<rect width="2.78182" height="2.78182" rx="0.463636" transform="matrix(-0.706542 -0.707671 -0.706542 0.707671 129.796 8.11792)" fill="url(#paint26_radial_743_116854)"/>
<defs>
<linearGradient id="paint0_linear_743_116854" x1="6.42094" y1="84.215" x2="8.58335" y2="72.4761" gradientUnits="userSpaceOnUse">
<stop stop-color="#FF474D"/>
<stop offset="1" stop-color="#FFD7D7"/>
</linearGradient>
<radialGradient id="paint1_radial_743_116854" cx="0" cy="0" r="1" gradientUnits="userSpaceOnUse" gradientTransform="translate(1.39091 1.39091) rotate(85.3036) scale(2.66596)">
<stop stop-color="#FF474D"/>
<stop offset="1" stop-color="#FFD7D7"/>
</radialGradient>
<radialGradient id="paint2_radial_743_116854" cx="0" cy="0" r="1" gradientUnits="userSpaceOnUse" gradientTransform="translate(1.39091 1.39091) rotate(85.3036) scale(2.66596)">
<stop stop-color="#FF474D"/>
<stop offset="1" stop-color="#FFD7D7"/>
</radialGradient>
<radialGradient id="paint3_radial_743_116854" cx="0" cy="0" r="1" gradientUnits="userSpaceOnUse" gradientTransform="translate(1.39091 1.39091) rotate(85.3036) scale(2.66596)">
<stop stop-color="#FF474D"/>
<stop offset="1" stop-color="#FFD7D7"/>
</radialGradient>
<radialGradient id="paint4_radial_743_116854" cx="0" cy="0" r="1" gradientUnits="userSpaceOnUse" gradientTransform="translate(1.39091 1.39091) rotate(85.3036) scale(2.66596)">
<stop stop-color="#FF474D"/>
<stop offset="1" stop-color="#FFD7D7"/>
</radialGradient>
<radialGradient id="paint5_radial_743_116854" cx="0" cy="0" r="1" gradientUnits="userSpaceOnUse" gradientTransform="translate(1.39091 1.39091) rotate(85.3036) scale(2.66596)">
<stop stop-color="#FF474D"/>
<stop offset="1" stop-color="#FFD7D7"/>
</radialGradient>
<radialGradient id="paint6_radial_743_116854" cx="0" cy="0" r="1" gradientUnits="userSpaceOnUse" gradientTransform="translate(1.39091 1.39091) rotate(85.3036) scale(2.66596)">
<stop stop-color="#FF474D"/>
<stop offset="1" stop-color="#FFD7D7"/>
</radialGradient>
<radialGradient id="paint7_radial_743_116854" cx="0" cy="0" r="1" gradientUnits="userSpaceOnUse" gradientTransform="translate(1.39091 1.39091) rotate(85.3036) scale(2.66596)">
<stop stop-color="#FF474D"/>
<stop offset="1" stop-color="#FFD7D7"/>
</radialGradient>
<radialGradient id="paint8_radial_743_116854" cx="0" cy="0" r="1" gradientUnits="userSpaceOnUse" gradientTransform="translate(1.39091 1.39091) rotate(85.3036) scale(2.66596)">
<stop stop-color="#FF474D"/>
<stop offset="1" stop-color="#FFD7D7"/>
</radialGradient>
<radialGradient id="paint9_radial_743_116854" cx="0" cy="0" r="1" gradientUnits="userSpaceOnUse" gradientTransform="translate(1.39091 1.39091) rotate(85.3036) scale(2.66596)">
<stop stop-color="#FF474D"/>
<stop offset="1" stop-color="#FFD7D7"/>
</radialGradient>
<radialGradient id="paint10_radial_743_116854" cx="0" cy="0" r="1" gradientUnits="userSpaceOnUse" gradientTransform="translate(1.39091 1.39091) rotate(85.3036) scale(2.66596)">
<stop stop-color="#FF474D"/>
<stop offset="1" stop-color="#FFD7D7"/>
</radialGradient>
<radialGradient id="paint11_radial_743_116854" cx="0" cy="0" r="1" gradientUnits="userSpaceOnUse" gradientTransform="translate(1.39091 1.39091) rotate(85.3036) scale(2.66596)">
<stop stop-color="#FF474D"/>
<stop offset="1" stop-color="#FFD7D7"/>
</radialGradient>
<radialGradient id="paint12_radial_743_116854" cx="0" cy="0" r="1" gradientUnits="userSpaceOnUse" gradientTransform="translate(1.39091 1.39091) rotate(85.3036) scale(2.66596)">
<stop stop-color="#FF474D"/>
<stop offset="1" stop-color="#FFD7D7"/>
</radialGradient>
<radialGradient id="paint13_radial_743_116854" cx="0" cy="0" r="1" gradientUnits="userSpaceOnUse" gradientTransform="translate(1.39091 1.39091) rotate(85.3036) scale(2.66596)">
<stop stop-color="#FF474D"/>
<stop offset="1" stop-color="#FFD7D7"/>
</radialGradient>
<radialGradient id="paint14_radial_743_116854" cx="0" cy="0" r="1" gradientUnits="userSpaceOnUse" gradientTransform="translate(1.39091 1.39091) rotate(85.3036) scale(2.66596)">
<stop stop-color="#FF474D"/>
<stop offset="1" stop-color="#FFD7D7"/>
</radialGradient>
<radialGradient id="paint15_radial_743_116854" cx="0" cy="0" r="1" gradientUnits="userSpaceOnUse" gradientTransform="translate(1.39091 1.39091) rotate(85.3036) scale(2.66596)">
<stop stop-color="#FF474D"/>
<stop offset="1" stop-color="#FFD7D7"/>
</radialGradient>
<radialGradient id="paint16_radial_743_116854" cx="0" cy="0" r="1" gradientUnits="userSpaceOnUse" gradientTransform="translate(1.39091 1.39091) rotate(85.3036) scale(2.66596)">
<stop stop-color="#FF474D"/>
<stop offset="1" stop-color="#FFD7D7"/>
</radialGradient>
<radialGradient id="paint17_radial_743_116854" cx="0" cy="0" r="1" gradientUnits="userSpaceOnUse" gradientTransform="translate(1.39091 1.39091) rotate(85.3036) scale(2.66596)">
<stop stop-color="#FF474D"/>
<stop offset="1" stop-color="#FFD7D7"/>
</radialGradient>
<radialGradient id="paint18_radial_743_116854" cx="0" cy="0" r="1" gradientUnits="userSpaceOnUse" gradientTransform="translate(1.39091 1.39091) rotate(85.3036) scale(2.66596)">
<stop stop-color="#FF474D"/>
<stop offset="1" stop-color="#FFD7D7"/>
</radialGradient>
<radialGradient id="paint19_radial_743_116854" cx="0" cy="0" r="1" gradientUnits="userSpaceOnUse" gradientTransform="translate(1.39091 1.39091) rotate(85.3036) scale(2.66596)">
<stop stop-color="#FF474D"/>
<stop offset="1" stop-color="#FFD7D7"/>
</radialGradient>
<radialGradient id="paint20_radial_743_116854" cx="0" cy="0" r="1" gradientUnits="userSpaceOnUse" gradientTransform="translate(1.39091 1.39091) rotate(85.3036) scale(2.66596)">
<stop stop-color="#FF474D"/>
<stop offset="1" stop-color="#FFD7D7"/>
</radialGradient>
<radialGradient id="paint21_radial_743_116854" cx="0" cy="0" r="1" gradientUnits="userSpaceOnUse" gradientTransform="translate(1.39091 1.39091) rotate(85.3036) scale(2.66596)">
<stop stop-color="#FF474D"/>
<stop offset="1" stop-color="#FFD7D7"/>
</radialGradient>
<radialGradient id="paint22_radial_743_116854" cx="0" cy="0" r="1" gradientUnits="userSpaceOnUse" gradientTransform="translate(1.39091 1.39091) rotate(85.3036) scale(2.66596)">
<stop stop-color="#FF474D"/>
<stop offset="1" stop-color="#FFD7D7"/>
</radialGradient>
<radialGradient id="paint23_radial_743_116854" cx="0" cy="0" r="1" gradientUnits="userSpaceOnUse" gradientTransform="translate(1.39091 1.39091) rotate(85.3036) scale(2.66596)">
<stop stop-color="#FF474D"/>
<stop offset="1" stop-color="#FFD7D7"/>
</radialGradient>
<radialGradient id="paint24_radial_743_116854" cx="0" cy="0" r="1" gradientUnits="userSpaceOnUse" gradientTransform="translate(1.39091 1.39091) rotate(85.3036) scale(2.66596)">
<stop stop-color="#FF474D"/>
<stop offset="1" stop-color="#FFD7D7"/>
</radialGradient>
<radialGradient id="paint25_radial_743_116854" cx="0" cy="0" r="1" gradientUnits="userSpaceOnUse" gradientTransform="translate(1.39091 1.39091) rotate(85.3036) scale(2.66596)">
<stop stop-color="#FF474D"/>
<stop offset="1" stop-color="#FFD7D7"/>
</radialGradient>
<radialGradient id="paint26_radial_743_116854" cx="0" cy="0" r="1" gradientUnits="userSpaceOnUse" gradientTransform="translate(1.39091 1.39091) rotate(85.3036) scale(2.66596)">
<stop stop-color="#FF474D"/>
<stop offset="1" stop-color="#FFD7D7"/>
</radialGradient>
</defs>
</svg>
