<svg width="141" height="91" viewBox="0 0 141 91" fill="none" xmlns="http://www.w3.org/2000/svg">
<path d="M133.269 89.846C133.721 90.1634 134.344 90.0544 134.662 89.6025L139.835 82.2377C140.153 81.7857 140.044 81.162 139.592 80.8446C139.14 80.5271 138.516 80.6361 138.199 81.0881L133.6 87.6346L127.054 83.0363C126.602 82.7188 125.978 82.8279 125.661 83.2798C125.343 83.7317 125.452 84.3555 125.904 84.6729L133.269 89.846ZM132.666 88.098L132.858 89.1999L134.829 88.8555L134.636 87.7536L132.666 88.098Z" fill="url(#paint0_linear_1312_115892)"/>
<rect width="3" height="3" rx="0.5" transform="matrix(0.707054 -0.70716 0.707054 0.70716 130.62 80.7773)" fill="url(#paint1_radial_1312_115892)"/>
<rect width="3" height="3" rx="0.5" transform="matrix(0.707054 -0.70716 0.707054 0.70716 129.235 74.0977)" fill="url(#paint2_radial_1312_115892)"/>
<rect width="3" height="3" rx="0.5" transform="matrix(0.707054 -0.70716 0.707054 0.70716 127.563 67.2852)" fill="url(#paint3_radial_1312_115892)"/>
<rect width="3" height="3" rx="0.5" transform="matrix(0.707054 -0.70716 0.707054 0.70716 125.67 60.5352)" fill="url(#paint4_radial_1312_115892)"/>
<rect width="3" height="3" rx="0.5" transform="matrix(0.707054 -0.70716 0.707054 0.70716 123.53 53.8516)" fill="url(#paint5_radial_1312_115892)"/>
<rect width="3" height="3" rx="0.5" transform="matrix(0.707054 -0.70716 0.707054 0.70716 121.125 47.2656)" fill="url(#paint6_radial_1312_115892)"/>
<rect width="3" height="3" rx="0.5" transform="matrix(0.707054 -0.70716 0.707054 0.70716 118.401 40.8008)" fill="url(#paint7_radial_1312_115892)"/>
<rect width="3" height="3" rx="0.5" transform="matrix(0.707054 -0.70716 0.707054 0.70716 115.288 34.5156)" fill="url(#paint8_radial_1312_115892)"/>
<rect width="3" height="3" rx="0.5" transform="matrix(0.707054 -0.70716 0.707054 0.70716 111.688 28.4961)" fill="url(#paint9_radial_1312_115892)"/>
<rect width="3" height="3" rx="0.5" transform="matrix(0.707054 -0.70716 0.707054 0.70716 106.665 22.3633)" fill="url(#paint10_radial_1312_115892)"/>
<rect width="3" height="3" rx="0.5" transform="matrix(0.707054 -0.70716 0.707054 0.70716 101.377 17.1641)" fill="url(#paint11_radial_1312_115892)"/>
<rect width="3" height="3" rx="0.5" transform="matrix(0.707054 -0.70716 0.707054 0.70716 95.5376 13.2773)" fill="url(#paint12_radial_1312_115892)"/>
<rect width="3" height="3" rx="0.5" transform="matrix(0.707054 -0.70716 0.707054 0.70716 89.2505 10.168)" fill="url(#paint13_radial_1312_115892)"/>
<rect width="3" height="3" rx="0.5" transform="matrix(0.707054 -0.70716 0.707054 0.70716 82.6685 7.74219)" fill="url(#paint14_radial_1312_115892)"/>
<rect width="3" height="3" rx="0.5" transform="matrix(0.707054 -0.70716 0.707054 0.70716 75.9048 5.89453)" fill="url(#paint15_radial_1312_115892)"/>
<rect width="3" height="3" rx="0.5" transform="matrix(0.707054 -0.70716 0.707054 0.70716 69.0259 4.53125)" fill="url(#paint16_radial_1312_115892)"/>
<rect width="3" height="3" rx="0.5" transform="matrix(0.707054 -0.70716 0.707054 0.70716 62.0767 3.58203)" fill="url(#paint17_radial_1312_115892)"/>
<rect width="3" height="3" rx="0.5" transform="matrix(0.707054 -0.70716 0.707054 0.70716 55.0884 2.98438)" fill="url(#paint18_radial_1312_115892)"/>
<rect width="3" height="3" rx="0.5" transform="matrix(0.707054 -0.70716 0.707054 0.70716 48.0845 2.69141)" fill="url(#paint19_radial_1312_115892)"/>
<rect width="3" height="3" rx="0.5" transform="matrix(0.707054 -0.70716 0.707054 0.70716 41.0728 2.66406)" fill="url(#paint20_radial_1312_115892)"/>
<rect width="3" height="3" rx="0.5" transform="matrix(0.707054 -0.70716 0.707054 0.70716 34.0591 2.875)" fill="url(#paint21_radial_1312_115892)"/>
<rect width="3" height="3" rx="0.5" transform="matrix(0.707054 -0.70716 0.707054 0.70716 27.0591 3.30078)" fill="url(#paint22_radial_1312_115892)"/>
<rect width="3" height="3" rx="0.5" transform="matrix(0.707054 -0.70716 0.707054 0.70716 20.0747 3.92578)" fill="url(#paint23_radial_1312_115892)"/>
<rect width="3" height="3" rx="0.5" transform="matrix(0.707054 -0.70716 0.707054 0.70716 13.1099 4.73047)" fill="url(#paint24_radial_1312_115892)"/>
<rect width="3" height="3" rx="0.5" transform="matrix(0.707054 -0.70716 0.707054 0.70716 6.71338 6.37109)" fill="url(#paint25_radial_1312_115892)"/>
<rect width="3" height="3" rx="0.5" transform="matrix(0.707054 -0.70716 0.707054 0.70716 0.717285 8.37109)" fill="url(#paint26_radial_1312_115892)"/>
<defs>
<linearGradient id="paint0_linear_1312_115892" x1="133.967" y1="90.1403" x2="131.629" y2="77.4784" gradientUnits="userSpaceOnUse">
<stop stop-color="#FF474D"/>
<stop offset="1" stop-color="#FFD7D7"/>
</linearGradient>
<radialGradient id="paint1_radial_1312_115892" cx="0" cy="0" r="1" gradientUnits="userSpaceOnUse" gradientTransform="translate(1.5 1.5) rotate(85.3036) scale(2.87506)">
<stop stop-color="#FF474D"/>
<stop offset="1" stop-color="#FFD7D7"/>
</radialGradient>
<radialGradient id="paint2_radial_1312_115892" cx="0" cy="0" r="1" gradientUnits="userSpaceOnUse" gradientTransform="translate(1.5 1.5) rotate(85.3036) scale(2.87506)">
<stop stop-color="#FF474D"/>
<stop offset="1" stop-color="#FFD7D7"/>
</radialGradient>
<radialGradient id="paint3_radial_1312_115892" cx="0" cy="0" r="1" gradientUnits="userSpaceOnUse" gradientTransform="translate(1.5 1.5) rotate(85.3036) scale(2.87506)">
<stop stop-color="#FF474D"/>
<stop offset="1" stop-color="#FFD7D7"/>
</radialGradient>
<radialGradient id="paint4_radial_1312_115892" cx="0" cy="0" r="1" gradientUnits="userSpaceOnUse" gradientTransform="translate(1.5 1.5) rotate(85.3036) scale(2.87506)">
<stop stop-color="#FF474D"/>
<stop offset="1" stop-color="#FFD7D7"/>
</radialGradient>
<radialGradient id="paint5_radial_1312_115892" cx="0" cy="0" r="1" gradientUnits="userSpaceOnUse" gradientTransform="translate(1.5 1.5) rotate(85.3036) scale(2.87506)">
<stop stop-color="#FF474D"/>
<stop offset="1" stop-color="#FFD7D7"/>
</radialGradient>
<radialGradient id="paint6_radial_1312_115892" cx="0" cy="0" r="1" gradientUnits="userSpaceOnUse" gradientTransform="translate(1.5 1.5) rotate(85.3036) scale(2.87506)">
<stop stop-color="#FF474D"/>
<stop offset="1" stop-color="#FFD7D7"/>
</radialGradient>
<radialGradient id="paint7_radial_1312_115892" cx="0" cy="0" r="1" gradientUnits="userSpaceOnUse" gradientTransform="translate(1.5 1.5) rotate(85.3036) scale(2.87506)">
<stop stop-color="#FF474D"/>
<stop offset="1" stop-color="#FFD7D7"/>
</radialGradient>
<radialGradient id="paint8_radial_1312_115892" cx="0" cy="0" r="1" gradientUnits="userSpaceOnUse" gradientTransform="translate(1.5 1.5) rotate(85.3036) scale(2.87506)">
<stop stop-color="#FF474D"/>
<stop offset="1" stop-color="#FFD7D7"/>
</radialGradient>
<radialGradient id="paint9_radial_1312_115892" cx="0" cy="0" r="1" gradientUnits="userSpaceOnUse" gradientTransform="translate(1.5 1.5) rotate(85.3036) scale(2.87506)">
<stop stop-color="#FF474D"/>
<stop offset="1" stop-color="#FFD7D7"/>
</radialGradient>
<radialGradient id="paint10_radial_1312_115892" cx="0" cy="0" r="1" gradientUnits="userSpaceOnUse" gradientTransform="translate(1.5 1.5) rotate(85.3036) scale(2.87506)">
<stop stop-color="#FF474D"/>
<stop offset="1" stop-color="#FFD7D7"/>
</radialGradient>
<radialGradient id="paint11_radial_1312_115892" cx="0" cy="0" r="1" gradientUnits="userSpaceOnUse" gradientTransform="translate(1.5 1.5) rotate(85.3036) scale(2.87506)">
<stop stop-color="#FF474D"/>
<stop offset="1" stop-color="#FFD7D7"/>
</radialGradient>
<radialGradient id="paint12_radial_1312_115892" cx="0" cy="0" r="1" gradientUnits="userSpaceOnUse" gradientTransform="translate(1.5 1.5) rotate(85.3036) scale(2.87506)">
<stop stop-color="#FF474D"/>
<stop offset="1" stop-color="#FFD7D7"/>
</radialGradient>
<radialGradient id="paint13_radial_1312_115892" cx="0" cy="0" r="1" gradientUnits="userSpaceOnUse" gradientTransform="translate(1.5 1.5) rotate(85.3036) scale(2.87506)">
<stop stop-color="#FF474D"/>
<stop offset="1" stop-color="#FFD7D7"/>
</radialGradient>
<radialGradient id="paint14_radial_1312_115892" cx="0" cy="0" r="1" gradientUnits="userSpaceOnUse" gradientTransform="translate(1.5 1.5) rotate(85.3036) scale(2.87506)">
<stop stop-color="#FF474D"/>
<stop offset="1" stop-color="#FFD7D7"/>
</radialGradient>
<radialGradient id="paint15_radial_1312_115892" cx="0" cy="0" r="1" gradientUnits="userSpaceOnUse" gradientTransform="translate(1.5 1.5) rotate(85.3036) scale(2.87506)">
<stop stop-color="#FF474D"/>
<stop offset="1" stop-color="#FFD7D7"/>
</radialGradient>
<radialGradient id="paint16_radial_1312_115892" cx="0" cy="0" r="1" gradientUnits="userSpaceOnUse" gradientTransform="translate(1.5 1.5) rotate(85.3036) scale(2.87506)">
<stop stop-color="#FF474D"/>
<stop offset="1" stop-color="#FFD7D7"/>
</radialGradient>
<radialGradient id="paint17_radial_1312_115892" cx="0" cy="0" r="1" gradientUnits="userSpaceOnUse" gradientTransform="translate(1.5 1.5) rotate(85.3036) scale(2.87506)">
<stop stop-color="#FF474D"/>
<stop offset="1" stop-color="#FFD7D7"/>
</radialGradient>
<radialGradient id="paint18_radial_1312_115892" cx="0" cy="0" r="1" gradientUnits="userSpaceOnUse" gradientTransform="translate(1.5 1.5) rotate(85.3036) scale(2.87506)">
<stop stop-color="#FF474D"/>
<stop offset="1" stop-color="#FFD7D7"/>
</radialGradient>
<radialGradient id="paint19_radial_1312_115892" cx="0" cy="0" r="1" gradientUnits="userSpaceOnUse" gradientTransform="translate(1.5 1.5) rotate(85.3036) scale(2.87506)">
<stop stop-color="#FF474D"/>
<stop offset="1" stop-color="#FFD7D7"/>
</radialGradient>
<radialGradient id="paint20_radial_1312_115892" cx="0" cy="0" r="1" gradientUnits="userSpaceOnUse" gradientTransform="translate(1.5 1.5) rotate(85.3036) scale(2.87506)">
<stop stop-color="#FF474D"/>
<stop offset="1" stop-color="#FFD7D7"/>
</radialGradient>
<radialGradient id="paint21_radial_1312_115892" cx="0" cy="0" r="1" gradientUnits="userSpaceOnUse" gradientTransform="translate(1.5 1.5) rotate(85.3036) scale(2.87506)">
<stop stop-color="#FF474D"/>
<stop offset="1" stop-color="#FFD7D7"/>
</radialGradient>
<radialGradient id="paint22_radial_1312_115892" cx="0" cy="0" r="1" gradientUnits="userSpaceOnUse" gradientTransform="translate(1.5 1.5) rotate(85.3036) scale(2.87506)">
<stop stop-color="#FF474D"/>
<stop offset="1" stop-color="#FFD7D7"/>
</radialGradient>
<radialGradient id="paint23_radial_1312_115892" cx="0" cy="0" r="1" gradientUnits="userSpaceOnUse" gradientTransform="translate(1.5 1.5) rotate(85.3036) scale(2.87506)">
<stop stop-color="#FF474D"/>
<stop offset="1" stop-color="#FFD7D7"/>
</radialGradient>
<radialGradient id="paint24_radial_1312_115892" cx="0" cy="0" r="1" gradientUnits="userSpaceOnUse" gradientTransform="translate(1.5 1.5) rotate(85.3036) scale(2.87506)">
<stop stop-color="#FF474D"/>
<stop offset="1" stop-color="#FFD7D7"/>
</radialGradient>
<radialGradient id="paint25_radial_1312_115892" cx="0" cy="0" r="1" gradientUnits="userSpaceOnUse" gradientTransform="translate(1.5 1.5) rotate(85.3036) scale(2.87506)">
<stop stop-color="#FF474D"/>
<stop offset="1" stop-color="#FFD7D7"/>
</radialGradient>
<radialGradient id="paint26_radial_1312_115892" cx="0" cy="0" r="1" gradientUnits="userSpaceOnUse" gradientTransform="translate(1.5 1.5) rotate(85.3036) scale(2.87506)">
<stop stop-color="#FF474D"/>
<stop offset="1" stop-color="#FFD7D7"/>
</radialGradient>
</defs>
</svg>
