<svg width="86" height="56" viewBox="0 0 86 56" fill="none" xmlns="http://www.w3.org/2000/svg">
<path d="M81.2643 55.145C81.5406 55.3391 81.922 55.2724 82.1161 54.9961L85.2791 50.4932C85.4732 50.2169 85.4066 49.8355 85.1303 49.6414C84.8539 49.4473 84.4726 49.514 84.2785 49.7903L81.4669 53.7929L77.4646 50.9815C77.1883 50.7874 76.8069 50.854 76.6128 51.1304C76.4187 51.4067 76.4854 51.788 76.7617 51.9821L81.2643 55.145ZM80.8958 54.0762L81.0135 54.7499L82.2181 54.5394L82.1003 53.8657L80.8958 54.0762Z" fill="url(#paint0_linear_703_1585)"/>
<rect width="1.83422" height="1.83422" rx="0.305703" transform="matrix(0.707054 -0.70716 0.707054 0.70716 79.645 49.6007)" fill="url(#paint1_radial_703_1585)"/>
<rect width="1.83422" height="1.83422" rx="0.305703" transform="matrix(0.707054 -0.70716 0.707054 0.70716 78.7983 45.5166)" fill="url(#paint2_radial_703_1585)"/>
<rect width="1.83422" height="1.83422" rx="0.305703" transform="matrix(0.707054 -0.70716 0.707054 0.70716 77.7769 41.3516)" fill="url(#paint3_radial_703_1585)"/>
<rect width="1.83422" height="1.83422" rx="0.305703" transform="matrix(0.707054 -0.70716 0.707054 0.70716 76.6182 37.2227)" fill="url(#paint4_radial_703_1585)"/>
<rect width="1.83422" height="1.83422" rx="0.305703" transform="matrix(0.707054 -0.70716 0.707054 0.70716 75.3101 33.1377)" fill="url(#paint5_radial_703_1585)"/>
<rect width="1.83422" height="1.83422" rx="0.305703" transform="matrix(0.707054 -0.70716 0.707054 0.70716 73.8394 29.1095)" fill="url(#paint6_radial_703_1585)"/>
<rect width="1.83422" height="1.83422" rx="0.305703" transform="matrix(0.707054 -0.70716 0.707054 0.70716 72.1738 25.1578)" fill="url(#paint7_radial_703_1585)"/>
<rect width="1.83422" height="1.83422" rx="0.305703" transform="matrix(0.707054 -0.70716 0.707054 0.70716 70.271 21.3146)" fill="url(#paint8_radial_703_1585)"/>
<rect width="1.83422" height="1.83422" rx="0.305703" transform="matrix(0.707054 -0.70716 0.707054 0.70716 68.0708 17.6335)" fill="url(#paint9_radial_703_1585)"/>
<rect width="1.83422" height="1.83422" rx="0.305703" transform="matrix(0.707054 -0.70716 0.707054 0.70716 64.9985 13.8855)" fill="url(#paint10_radial_703_1585)"/>
<rect width="1.83422" height="1.83422" rx="0.305703" transform="matrix(0.707054 -0.70716 0.707054 0.70716 61.7656 10.7054)" fill="url(#paint11_radial_703_1585)"/>
<rect width="1.83422" height="1.83422" rx="0.305703" transform="matrix(0.707054 -0.70716 0.707054 0.70716 58.1943 8.32898)" fill="url(#paint12_radial_703_1585)"/>
<rect width="1.83422" height="1.83422" rx="0.305703" transform="matrix(0.707054 -0.70716 0.707054 0.70716 54.3516 6.4292)" fill="url(#paint13_radial_703_1585)"/>
<rect width="1.83422" height="1.83422" rx="0.305703" transform="matrix(0.707054 -0.70716 0.707054 0.70716 50.3267 4.94568)" fill="url(#paint14_radial_703_1585)"/>
<rect width="1.83422" height="1.83422" rx="0.305703" transform="matrix(0.707054 -0.70716 0.707054 0.70716 46.1919 3.81494)" fill="url(#paint15_radial_703_1585)"/>
<rect width="1.83422" height="1.83422" rx="0.305703" transform="matrix(0.707054 -0.70716 0.707054 0.70716 41.9873 2.98206)" fill="url(#paint16_radial_703_1585)"/>
<rect width="1.83422" height="1.83422" rx="0.305703" transform="matrix(0.707054 -0.70716 0.707054 0.70716 37.7378 2.40125)" fill="url(#paint17_radial_703_1585)"/>
<rect width="1.83422" height="1.83422" rx="0.305703" transform="matrix(0.707054 -0.70716 0.707054 0.70716 33.4644 2.03564)" fill="url(#paint18_radial_703_1585)"/>
<rect width="1.83422" height="1.83422" rx="0.305703" transform="matrix(0.707054 -0.70716 0.707054 0.70716 29.1812 1.85657)" fill="url(#paint19_radial_703_1585)"/>
<rect width="1.83422" height="1.83422" rx="0.305703" transform="matrix(0.707054 -0.70716 0.707054 0.70716 24.895 1.84106)" fill="url(#paint20_radial_703_1585)"/>
<rect width="1.83422" height="1.83422" rx="0.305703" transform="matrix(0.707054 -0.70716 0.707054 0.70716 20.6074 1.97021)" fill="url(#paint21_radial_703_1585)"/>
<rect width="1.83422" height="1.83422" rx="0.305703" transform="matrix(0.707054 -0.70716 0.707054 0.70716 16.3267 2.23059)" fill="url(#paint22_radial_703_1585)"/>
<rect width="1.83422" height="1.83422" rx="0.305703" transform="matrix(0.707054 -0.70716 0.707054 0.70716 12.0571 2.61108)" fill="url(#paint23_radial_703_1585)"/>
<rect width="1.83422" height="1.83422" rx="0.305703" transform="matrix(0.707054 -0.70716 0.707054 0.70716 7.79785 3.10352)" fill="url(#paint24_radial_703_1585)"/>
<rect width="1.83422" height="1.83422" rx="0.305703" transform="matrix(0.707054 -0.70716 0.707054 0.70716 3.88818 4.10645)" fill="url(#paint25_radial_703_1585)"/>
<rect width="1.83422" height="1.83422" rx="0.305703" transform="matrix(0.707054 -0.70716 0.707054 0.70716 0.22168 5.32874)" fill="url(#paint26_radial_703_1585)"/>
<defs>
<linearGradient id="paint0_linear_703_1585" x1="81.6646" y1="55.3296" x2="80.2637" y2="47.5826" gradientUnits="userSpaceOnUse">
<stop stop-color="#FF474D"/>
<stop offset="1" stop-color="#FFD7D7"/>
</linearGradient>
<radialGradient id="paint1_radial_703_1585" cx="0" cy="0" r="1" gradientUnits="userSpaceOnUse" gradientTransform="translate(0.91711 0.91711) rotate(85.3036) scale(1.75783)">
<stop stop-color="#FF474D"/>
<stop offset="1" stop-color="#FFD7D7"/>
</radialGradient>
<radialGradient id="paint2_radial_703_1585" cx="0" cy="0" r="1" gradientUnits="userSpaceOnUse" gradientTransform="translate(0.91711 0.91711) rotate(85.3036) scale(1.75783)">
<stop stop-color="#FF474D"/>
<stop offset="1" stop-color="#FFD7D7"/>
</radialGradient>
<radialGradient id="paint3_radial_703_1585" cx="0" cy="0" r="1" gradientUnits="userSpaceOnUse" gradientTransform="translate(0.91711 0.91711) rotate(85.3036) scale(1.75783)">
<stop stop-color="#FF474D"/>
<stop offset="1" stop-color="#FFD7D7"/>
</radialGradient>
<radialGradient id="paint4_radial_703_1585" cx="0" cy="0" r="1" gradientUnits="userSpaceOnUse" gradientTransform="translate(0.91711 0.91711) rotate(85.3036) scale(1.75783)">
<stop stop-color="#FF474D"/>
<stop offset="1" stop-color="#FFD7D7"/>
</radialGradient>
<radialGradient id="paint5_radial_703_1585" cx="0" cy="0" r="1" gradientUnits="userSpaceOnUse" gradientTransform="translate(0.91711 0.91711) rotate(85.3036) scale(1.75783)">
<stop stop-color="#FF474D"/>
<stop offset="1" stop-color="#FFD7D7"/>
</radialGradient>
<radialGradient id="paint6_radial_703_1585" cx="0" cy="0" r="1" gradientUnits="userSpaceOnUse" gradientTransform="translate(0.91711 0.91711) rotate(85.3036) scale(1.75783)">
<stop stop-color="#FF474D"/>
<stop offset="1" stop-color="#FFD7D7"/>
</radialGradient>
<radialGradient id="paint7_radial_703_1585" cx="0" cy="0" r="1" gradientUnits="userSpaceOnUse" gradientTransform="translate(0.91711 0.91711) rotate(85.3036) scale(1.75783)">
<stop stop-color="#FF474D"/>
<stop offset="1" stop-color="#FFD7D7"/>
</radialGradient>
<radialGradient id="paint8_radial_703_1585" cx="0" cy="0" r="1" gradientUnits="userSpaceOnUse" gradientTransform="translate(0.91711 0.91711) rotate(85.3036) scale(1.75783)">
<stop stop-color="#FF474D"/>
<stop offset="1" stop-color="#FFD7D7"/>
</radialGradient>
<radialGradient id="paint9_radial_703_1585" cx="0" cy="0" r="1" gradientUnits="userSpaceOnUse" gradientTransform="translate(0.91711 0.91711) rotate(85.3036) scale(1.75783)">
<stop stop-color="#FF474D"/>
<stop offset="1" stop-color="#FFD7D7"/>
</radialGradient>
<radialGradient id="paint10_radial_703_1585" cx="0" cy="0" r="1" gradientUnits="userSpaceOnUse" gradientTransform="translate(0.91711 0.91711) rotate(85.3036) scale(1.75783)">
<stop stop-color="#FF474D"/>
<stop offset="1" stop-color="#FFD7D7"/>
</radialGradient>
<radialGradient id="paint11_radial_703_1585" cx="0" cy="0" r="1" gradientUnits="userSpaceOnUse" gradientTransform="translate(0.91711 0.91711) rotate(85.3036) scale(1.75783)">
<stop stop-color="#FF474D"/>
<stop offset="1" stop-color="#FFD7D7"/>
</radialGradient>
<radialGradient id="paint12_radial_703_1585" cx="0" cy="0" r="1" gradientUnits="userSpaceOnUse" gradientTransform="translate(0.91711 0.91711) rotate(85.3036) scale(1.75783)">
<stop stop-color="#FF474D"/>
<stop offset="1" stop-color="#FFD7D7"/>
</radialGradient>
<radialGradient id="paint13_radial_703_1585" cx="0" cy="0" r="1" gradientUnits="userSpaceOnUse" gradientTransform="translate(0.91711 0.91711) rotate(85.3036) scale(1.75783)">
<stop stop-color="#FF474D"/>
<stop offset="1" stop-color="#FFD7D7"/>
</radialGradient>
<radialGradient id="paint14_radial_703_1585" cx="0" cy="0" r="1" gradientUnits="userSpaceOnUse" gradientTransform="translate(0.91711 0.91711) rotate(85.3036) scale(1.75783)">
<stop stop-color="#FF474D"/>
<stop offset="1" stop-color="#FFD7D7"/>
</radialGradient>
<radialGradient id="paint15_radial_703_1585" cx="0" cy="0" r="1" gradientUnits="userSpaceOnUse" gradientTransform="translate(0.91711 0.91711) rotate(85.3036) scale(1.75783)">
<stop stop-color="#FF474D"/>
<stop offset="1" stop-color="#FFD7D7"/>
</radialGradient>
<radialGradient id="paint16_radial_703_1585" cx="0" cy="0" r="1" gradientUnits="userSpaceOnUse" gradientTransform="translate(0.91711 0.91711) rotate(85.3036) scale(1.75783)">
<stop stop-color="#FF474D"/>
<stop offset="1" stop-color="#FFD7D7"/>
</radialGradient>
<radialGradient id="paint17_radial_703_1585" cx="0" cy="0" r="1" gradientUnits="userSpaceOnUse" gradientTransform="translate(0.91711 0.91711) rotate(85.3036) scale(1.75783)">
<stop stop-color="#FF474D"/>
<stop offset="1" stop-color="#FFD7D7"/>
</radialGradient>
<radialGradient id="paint18_radial_703_1585" cx="0" cy="0" r="1" gradientUnits="userSpaceOnUse" gradientTransform="translate(0.91711 0.91711) rotate(85.3036) scale(1.75783)">
<stop stop-color="#FF474D"/>
<stop offset="1" stop-color="#FFD7D7"/>
</radialGradient>
<radialGradient id="paint19_radial_703_1585" cx="0" cy="0" r="1" gradientUnits="userSpaceOnUse" gradientTransform="translate(0.91711 0.91711) rotate(85.3036) scale(1.75783)">
<stop stop-color="#FF474D"/>
<stop offset="1" stop-color="#FFD7D7"/>
</radialGradient>
<radialGradient id="paint20_radial_703_1585" cx="0" cy="0" r="1" gradientUnits="userSpaceOnUse" gradientTransform="translate(0.91711 0.91711) rotate(85.3036) scale(1.75783)">
<stop stop-color="#FF474D"/>
<stop offset="1" stop-color="#FFD7D7"/>
</radialGradient>
<radialGradient id="paint21_radial_703_1585" cx="0" cy="0" r="1" gradientUnits="userSpaceOnUse" gradientTransform="translate(0.91711 0.91711) rotate(85.3036) scale(1.75783)">
<stop stop-color="#FF474D"/>
<stop offset="1" stop-color="#FFD7D7"/>
</radialGradient>
<radialGradient id="paint22_radial_703_1585" cx="0" cy="0" r="1" gradientUnits="userSpaceOnUse" gradientTransform="translate(0.91711 0.91711) rotate(85.3036) scale(1.75783)">
<stop stop-color="#FF474D"/>
<stop offset="1" stop-color="#FFD7D7"/>
</radialGradient>
<radialGradient id="paint23_radial_703_1585" cx="0" cy="0" r="1" gradientUnits="userSpaceOnUse" gradientTransform="translate(0.91711 0.91711) rotate(85.3036) scale(1.75783)">
<stop stop-color="#FF474D"/>
<stop offset="1" stop-color="#FFD7D7"/>
</radialGradient>
<radialGradient id="paint24_radial_703_1585" cx="0" cy="0" r="1" gradientUnits="userSpaceOnUse" gradientTransform="translate(0.91711 0.91711) rotate(85.3036) scale(1.75783)">
<stop stop-color="#FF474D"/>
<stop offset="1" stop-color="#FFD7D7"/>
</radialGradient>
<radialGradient id="paint25_radial_703_1585" cx="0" cy="0" r="1" gradientUnits="userSpaceOnUse" gradientTransform="translate(0.91711 0.91711) rotate(85.3036) scale(1.75783)">
<stop stop-color="#FF474D"/>
<stop offset="1" stop-color="#FFD7D7"/>
</radialGradient>
<radialGradient id="paint26_radial_703_1585" cx="0" cy="0" r="1" gradientUnits="userSpaceOnUse" gradientTransform="translate(0.91711 0.91711) rotate(85.3036) scale(1.75783)">
<stop stop-color="#FF474D"/>
<stop offset="1" stop-color="#FFD7D7"/>
</radialGradient>
</defs>
</svg>
