<svg width="71" height="71" viewBox="0 0 71 71" fill="none" xmlns="http://www.w3.org/2000/svg">
<g filter="url(#filter0_f_703_1676)">
<ellipse cx="14.9999" cy="15.0001" rx="14.9999" ry="15.0001" transform="matrix(0.955166 -0.296089 0.296004 0.955181 17.2065 25.8087)" fill="#212121" fill-opacity="0.1"/>
</g>
<circle cx="18" cy="18" r="18" transform="matrix(0.977118 -0.212698 0.212637 0.977131 11.251 16.4995)" fill="#C5EDDC"/>
<path d="M31.0698 22.7845L31.8254 26.2564L23.6695 28.0317C23.0317 28.1705 22.1447 26.6061 22.0062 25.9695C21.8677 25.333 22.2762 24.6987 22.914 24.5598L31.0698 22.7845Z" fill="#285059"/>
<path d="M40.4123 24.2067L38.8504 21.8067L34.0357 20.7258L31.0306 22.6217L22.97 27.6909C22.726 27.8447 22.6277 28.1508 22.7378 28.4168C22.8466 28.6825 23.1316 28.8312 23.4124 28.7701L23.4136 28.7698L31.9582 26.8843L40.0376 25.1014C40.2267 25.0596 40.3833 24.9291 40.4583 24.7506C40.5323 24.5729 40.5153 24.3695 40.4123 24.2067Z" fill="#3DCE9E"/>
<path d="M40.4601 24.7504C40.5341 24.5728 40.5171 24.3693 40.4141 24.2065L38.8523 21.8066L34.0376 20.7256L31.0324 22.6215L31.96 26.8842L40.0395 25.1012C40.2285 25.0595 40.3851 24.9289 40.4601 24.7504Z" fill="#21A28C"/>
<path d="M41.015 23.6496L43.5334 35.2225C43.6039 35.5465 43.4043 35.8567 43.0795 35.9274L26.7679 39.4781C25.8053 39.6876 24.8597 39.0813 24.6507 38.1208L22.0063 25.9692C22.1449 26.6057 22.78 27.0129 23.4178 26.8741L40.3093 23.1972C40.634 23.1265 40.9445 23.3255 41.015 23.6496Z" fill="#3F6A73"/>
<path d="M41.0131 23.6501L43.5316 35.223C43.6021 35.547 43.4024 35.8572 43.0777 35.9279L34.342 37.8294L31.5718 25.0992L40.3074 23.1977C40.6321 23.127 40.9426 23.326 41.0131 23.6501Z" fill="#285059"/>
<path d="M36.944 19.1407C36.7916 19.1052 36.6304 19.1332 36.497 19.2179L34.0374 20.7258C34.4065 21.6636 35.1618 22.2831 35.9582 22.5192C36.9435 22.8104 38.036 22.577 38.8521 21.8067L37.3151 19.402C37.2317 19.2692 37.0974 19.1753 36.944 19.1407Z" fill="#3DCE9E"/>
<path d="M42.3226 32.4555L38.8052 33.2212C37.2062 33.5693 35.6237 32.5543 35.2766 30.959C34.9294 29.3638 35.947 27.7828 37.546 27.4347L41.0634 26.6691C42.0226 26.4603 42.9723 27.0691 43.1806 28.0264L43.6843 30.341C43.8926 31.2982 43.2818 32.2467 42.3226 32.4555Z" fill="#3F6A73"/>
<path d="M38.2959 30.9085C38.6163 30.8388 38.8196 30.5231 38.75 30.2034C38.6804 29.8837 38.3643 29.6811 38.044 29.7508C37.7236 29.8205 37.5203 30.1362 37.5898 30.4559C37.6594 30.7756 37.9755 30.9782 38.2959 30.9085Z" fill="#FFBB33"/>
<defs>
<filter id="filter0_f_703_1676" x="0.970215" y="0.690796" width="70.0073" height="70.0088" filterUnits="userSpaceOnUse" color-interpolation-filters="sRGB">
<feFlood flood-opacity="0" result="BackgroundImageFix"/>
<feBlend mode="normal" in="SourceGraphic" in2="BackgroundImageFix" result="shape"/>
<feGaussianBlur stdDeviation="10" result="effect1_foregroundBlur_703_1676"/>
</filter>
</defs>
</svg>
