<svg width="75" height="41" viewBox="0 0 75 41" fill="none" xmlns="http://www.w3.org/2000/svg">
<path d="M8.03038 30.7964C7.95779 28.8648 6.33304 27.3577 4.40141 27.4302C2.46977 27.5028 0.962721 29.1275 1.03531 31.0591C1.1079 32.9907 2.73264 34.4978 4.66428 34.4253C6.59592 34.3528 8.10297 32.7281 8.03038 30.7964Z" fill="#8E4DD5"/>
<path d="M33.983 0.771531L31.6756 6.86246L34.4334 12.7631L28.3425 10.4557L22.4419 13.2136L24.7489 7.12271L21.9915 1.22208L28.0824 3.52942L33.983 0.771531Z" fill="#FFCC00"/>
<path d="M74.0404 27.6215L71.7333 33.7124L74.4908 39.6131L68.3997 37.3057L62.4993 40.0636L64.8064 33.9727L62.0489 28.0721L68.1396 30.379L74.0404 27.6215Z" fill="#00A98F"/>
</svg>
