<svg width="46" height="54" viewBox="0 0 46 54" fill="none" xmlns="http://www.w3.org/2000/svg">
<path d="M1.09692 4.0245C1.22571 5.9532 2.89363 7.41222 4.82232 7.2833C6.75101 7.15438 8.21012 5.48635 8.08134 3.55765C7.95255 1.62895 6.28463 0.169938 4.35594 0.298855C2.42725 0.427772 0.968133 2.0958 1.09692 4.0245Z" fill="#3897FF"/>
<path d="M33.5189 32.304L35.6475 26.1486L32.7191 20.3307L38.8747 22.4595L44.6924 19.5306L42.5638 25.6864L45.4922 31.504L39.3366 29.3755L33.5189 32.304Z" fill="white"/>
<path d="M22.0244 45.6689L17.15 48.0555L15.4619 53.2143L13.0756 48.3388L7.91748 46.6506L12.792 44.264L14.48 39.1052L16.8663 43.9803L22.0244 45.6689Z" fill="#00A98F"/>
</svg>
