<svg width="86" height="56" viewBox="0 0 86 56" fill="none" xmlns="http://www.w3.org/2000/svg">
<path d="M4.24034 55.6552C3.9641 55.8492 3.58278 55.7825 3.38863 55.5061L0.224837 51.0021C0.0306906 50.7257 0.0972394 50.3444 0.373478 50.1503C0.649716 49.9563 1.03104 50.023 1.22518 50.2994L4.03745 54.303L8.03884 51.4922C8.31508 51.2982 8.6964 51.3649 8.89055 51.6413C9.08469 51.9177 9.01814 52.2991 8.74191 52.4931L4.24034 55.6552ZM4.6086 54.5866L4.49106 55.2602L3.28656 55.0493L3.4041 54.3758L4.6086 54.5866Z" fill="url(#paint0_linear_703_1614)"/>
<rect width="1.83422" height="1.83422" rx="0.305703" transform="matrix(-0.706542 -0.707671 -0.706542 0.707671 5.85596 49.9323)" fill="url(#paint1_radial_703_1614)"/>
<rect width="1.83422" height="1.83422" rx="0.305703" transform="matrix(-0.706542 -0.707671 -0.706542 0.707671 6.70166 45.848)" fill="url(#paint2_radial_703_1614)"/>
<rect width="1.83422" height="1.83422" rx="0.305703" transform="matrix(-0.706542 -0.707671 -0.706542 0.707671 7.72314 41.6831)" fill="url(#paint3_radial_703_1614)"/>
<rect width="1.83422" height="1.83422" rx="0.305703" transform="matrix(-0.706542 -0.707671 -0.706542 0.707671 8.88037 37.5541)" fill="url(#paint4_radial_703_1614)"/>
<rect width="1.83422" height="1.83422" rx="0.305703" transform="matrix(-0.706542 -0.707671 -0.706542 0.707671 10.1836 33.469)" fill="url(#paint5_radial_703_1614)"/>
<rect width="1.83422" height="1.83422" rx="0.305703" transform="matrix(-0.706542 -0.707671 -0.706542 0.707671 11.6519 29.4409)" fill="url(#paint6_radial_703_1614)"/>
<rect width="1.83422" height="1.83422" rx="0.305703" transform="matrix(-0.706542 -0.707671 -0.706542 0.707671 13.3179 25.4893)" fill="url(#paint7_radial_703_1614)"/>
<rect width="1.83422" height="1.83422" rx="0.305703" transform="matrix(-0.706542 -0.707671 -0.706542 0.707671 15.2178 21.6459)" fill="url(#paint8_radial_703_1614)"/>
<rect width="1.83422" height="1.83422" rx="0.305703" transform="matrix(-0.706542 -0.707671 -0.706542 0.707671 17.4146 17.9652)" fill="url(#paint9_radial_703_1614)"/>
<rect width="1.83422" height="1.83422" rx="0.305703" transform="matrix(-0.706542 -0.707671 -0.706542 0.707671 20.4819 14.2169)" fill="url(#paint10_radial_703_1614)"/>
<rect width="1.83422" height="1.83422" rx="0.305703" transform="matrix(-0.706542 -0.707671 -0.706542 0.707671 23.7114 11.0367)" fill="url(#paint11_radial_703_1614)"/>
<rect width="1.83422" height="1.83422" rx="0.305703" transform="matrix(-0.706542 -0.707671 -0.706542 0.707671 27.2734 8.66016)" fill="url(#paint12_radial_703_1614)"/>
<rect width="1.83422" height="1.83422" rx="0.305703" transform="matrix(-0.706542 -0.707671 -0.706542 0.707671 31.1133 6.76099)" fill="url(#paint13_radial_703_1614)"/>
<rect width="1.83422" height="1.83422" rx="0.305703" transform="matrix(-0.706542 -0.707671 -0.706542 0.707671 35.1309 5.2771)" fill="url(#paint14_radial_703_1614)"/>
<rect width="1.83422" height="1.83422" rx="0.305703" transform="matrix(-0.706542 -0.707671 -0.706542 0.707671 39.2607 4.14661)" fill="url(#paint15_radial_703_1614)"/>
<rect width="1.83422" height="1.83422" rx="0.305703" transform="matrix(-0.706542 -0.707671 -0.706542 0.707671 43.4619 3.31348)" fill="url(#paint16_radial_703_1614)"/>
<rect width="1.83422" height="1.83422" rx="0.305703" transform="matrix(-0.706542 -0.707671 -0.706542 0.707671 47.7021 2.73242)" fill="url(#paint17_radial_703_1614)"/>
<rect width="1.83422" height="1.83422" rx="0.305703" transform="matrix(-0.706542 -0.707671 -0.706542 0.707671 51.9697 2.36707)" fill="url(#paint18_radial_703_1614)"/>
<rect width="1.83422" height="1.83422" rx="0.305703" transform="matrix(-0.706542 -0.707671 -0.706542 0.707671 56.2476 2.18811)" fill="url(#paint19_radial_703_1614)"/>
<rect width="1.83422" height="1.83422" rx="0.305703" transform="matrix(-0.706542 -0.707671 -0.706542 0.707671 60.5303 2.17224)" fill="url(#paint20_radial_703_1614)"/>
<rect width="1.83422" height="1.83422" rx="0.305703" transform="matrix(-0.706542 -0.707671 -0.706542 0.707671 64.8081 2.30176)" fill="url(#paint21_radial_703_1614)"/>
<rect width="1.83422" height="1.83422" rx="0.305703" transform="matrix(-0.706542 -0.707671 -0.706542 0.707671 69.083 2.56189)" fill="url(#paint22_radial_703_1614)"/>
<rect width="1.83422" height="1.83422" rx="0.305703" transform="matrix(-0.706542 -0.707671 -0.706542 0.707671 73.3491 2.94214)" fill="url(#paint23_radial_703_1614)"/>
<rect width="1.83422" height="1.83422" rx="0.305703" transform="matrix(-0.706542 -0.707671 -0.706542 0.707671 77.6006 3.43518)" fill="url(#paint24_radial_703_1614)"/>
<rect width="1.83422" height="1.83422" rx="0.305703" transform="matrix(-0.706542 -0.707671 -0.706542 0.707671 81.5034 4.43787)" fill="url(#paint25_radial_703_1614)"/>
<rect width="1.83422" height="1.83422" rx="0.305703" transform="matrix(-0.706542 -0.707671 -0.706542 0.707671 85.165 5.66028)" fill="url(#paint26_radial_703_1614)"/>
<defs>
<linearGradient id="paint0_linear_703_1614" x1="3.84017" y1="55.8395" x2="5.24264" y2="48.0949" gradientUnits="userSpaceOnUse">
<stop stop-color="#FF474D"/>
<stop offset="1" stop-color="#FFD7D7"/>
</linearGradient>
<radialGradient id="paint1_radial_703_1614" cx="0" cy="0" r="1" gradientUnits="userSpaceOnUse" gradientTransform="translate(0.91711 0.91711) rotate(85.3036) scale(1.75783)">
<stop stop-color="#FF474D"/>
<stop offset="1" stop-color="#FFD7D7"/>
</radialGradient>
<radialGradient id="paint2_radial_703_1614" cx="0" cy="0" r="1" gradientUnits="userSpaceOnUse" gradientTransform="translate(0.91711 0.91711) rotate(85.3036) scale(1.75783)">
<stop stop-color="#FF474D"/>
<stop offset="1" stop-color="#FFD7D7"/>
</radialGradient>
<radialGradient id="paint3_radial_703_1614" cx="0" cy="0" r="1" gradientUnits="userSpaceOnUse" gradientTransform="translate(0.91711 0.91711) rotate(85.3036) scale(1.75783)">
<stop stop-color="#FF474D"/>
<stop offset="1" stop-color="#FFD7D7"/>
</radialGradient>
<radialGradient id="paint4_radial_703_1614" cx="0" cy="0" r="1" gradientUnits="userSpaceOnUse" gradientTransform="translate(0.91711 0.91711) rotate(85.3036) scale(1.75783)">
<stop stop-color="#FF474D"/>
<stop offset="1" stop-color="#FFD7D7"/>
</radialGradient>
<radialGradient id="paint5_radial_703_1614" cx="0" cy="0" r="1" gradientUnits="userSpaceOnUse" gradientTransform="translate(0.91711 0.91711) rotate(85.3036) scale(1.75783)">
<stop stop-color="#FF474D"/>
<stop offset="1" stop-color="#FFD7D7"/>
</radialGradient>
<radialGradient id="paint6_radial_703_1614" cx="0" cy="0" r="1" gradientUnits="userSpaceOnUse" gradientTransform="translate(0.91711 0.91711) rotate(85.3036) scale(1.75783)">
<stop stop-color="#FF474D"/>
<stop offset="1" stop-color="#FFD7D7"/>
</radialGradient>
<radialGradient id="paint7_radial_703_1614" cx="0" cy="0" r="1" gradientUnits="userSpaceOnUse" gradientTransform="translate(0.91711 0.91711) rotate(85.3036) scale(1.75783)">
<stop stop-color="#FF474D"/>
<stop offset="1" stop-color="#FFD7D7"/>
</radialGradient>
<radialGradient id="paint8_radial_703_1614" cx="0" cy="0" r="1" gradientUnits="userSpaceOnUse" gradientTransform="translate(0.91711 0.91711) rotate(85.3036) scale(1.75783)">
<stop stop-color="#FF474D"/>
<stop offset="1" stop-color="#FFD7D7"/>
</radialGradient>
<radialGradient id="paint9_radial_703_1614" cx="0" cy="0" r="1" gradientUnits="userSpaceOnUse" gradientTransform="translate(0.91711 0.91711) rotate(85.3036) scale(1.75783)">
<stop stop-color="#FF474D"/>
<stop offset="1" stop-color="#FFD7D7"/>
</radialGradient>
<radialGradient id="paint10_radial_703_1614" cx="0" cy="0" r="1" gradientUnits="userSpaceOnUse" gradientTransform="translate(0.91711 0.91711) rotate(85.3036) scale(1.75783)">
<stop stop-color="#FF474D"/>
<stop offset="1" stop-color="#FFD7D7"/>
</radialGradient>
<radialGradient id="paint11_radial_703_1614" cx="0" cy="0" r="1" gradientUnits="userSpaceOnUse" gradientTransform="translate(0.91711 0.91711) rotate(85.3036) scale(1.75783)">
<stop stop-color="#FF474D"/>
<stop offset="1" stop-color="#FFD7D7"/>
</radialGradient>
<radialGradient id="paint12_radial_703_1614" cx="0" cy="0" r="1" gradientUnits="userSpaceOnUse" gradientTransform="translate(0.91711 0.91711) rotate(85.3036) scale(1.75783)">
<stop stop-color="#FF474D"/>
<stop offset="1" stop-color="#FFD7D7"/>
</radialGradient>
<radialGradient id="paint13_radial_703_1614" cx="0" cy="0" r="1" gradientUnits="userSpaceOnUse" gradientTransform="translate(0.91711 0.91711) rotate(85.3036) scale(1.75783)">
<stop stop-color="#FF474D"/>
<stop offset="1" stop-color="#FFD7D7"/>
</radialGradient>
<radialGradient id="paint14_radial_703_1614" cx="0" cy="0" r="1" gradientUnits="userSpaceOnUse" gradientTransform="translate(0.91711 0.91711) rotate(85.3036) scale(1.75783)">
<stop stop-color="#FF474D"/>
<stop offset="1" stop-color="#FFD7D7"/>
</radialGradient>
<radialGradient id="paint15_radial_703_1614" cx="0" cy="0" r="1" gradientUnits="userSpaceOnUse" gradientTransform="translate(0.91711 0.91711) rotate(85.3036) scale(1.75783)">
<stop stop-color="#FF474D"/>
<stop offset="1" stop-color="#FFD7D7"/>
</radialGradient>
<radialGradient id="paint16_radial_703_1614" cx="0" cy="0" r="1" gradientUnits="userSpaceOnUse" gradientTransform="translate(0.91711 0.91711) rotate(85.3036) scale(1.75783)">
<stop stop-color="#FF474D"/>
<stop offset="1" stop-color="#FFD7D7"/>
</radialGradient>
<radialGradient id="paint17_radial_703_1614" cx="0" cy="0" r="1" gradientUnits="userSpaceOnUse" gradientTransform="translate(0.91711 0.91711) rotate(85.3036) scale(1.75783)">
<stop stop-color="#FF474D"/>
<stop offset="1" stop-color="#FFD7D7"/>
</radialGradient>
<radialGradient id="paint18_radial_703_1614" cx="0" cy="0" r="1" gradientUnits="userSpaceOnUse" gradientTransform="translate(0.91711 0.91711) rotate(85.3036) scale(1.75783)">
<stop stop-color="#FF474D"/>
<stop offset="1" stop-color="#FFD7D7"/>
</radialGradient>
<radialGradient id="paint19_radial_703_1614" cx="0" cy="0" r="1" gradientUnits="userSpaceOnUse" gradientTransform="translate(0.91711 0.91711) rotate(85.3036) scale(1.75783)">
<stop stop-color="#FF474D"/>
<stop offset="1" stop-color="#FFD7D7"/>
</radialGradient>
<radialGradient id="paint20_radial_703_1614" cx="0" cy="0" r="1" gradientUnits="userSpaceOnUse" gradientTransform="translate(0.91711 0.91711) rotate(85.3036) scale(1.75783)">
<stop stop-color="#FF474D"/>
<stop offset="1" stop-color="#FFD7D7"/>
</radialGradient>
<radialGradient id="paint21_radial_703_1614" cx="0" cy="0" r="1" gradientUnits="userSpaceOnUse" gradientTransform="translate(0.91711 0.91711) rotate(85.3036) scale(1.75783)">
<stop stop-color="#FF474D"/>
<stop offset="1" stop-color="#FFD7D7"/>
</radialGradient>
<radialGradient id="paint22_radial_703_1614" cx="0" cy="0" r="1" gradientUnits="userSpaceOnUse" gradientTransform="translate(0.91711 0.91711) rotate(85.3036) scale(1.75783)">
<stop stop-color="#FF474D"/>
<stop offset="1" stop-color="#FFD7D7"/>
</radialGradient>
<radialGradient id="paint23_radial_703_1614" cx="0" cy="0" r="1" gradientUnits="userSpaceOnUse" gradientTransform="translate(0.91711 0.91711) rotate(85.3036) scale(1.75783)">
<stop stop-color="#FF474D"/>
<stop offset="1" stop-color="#FFD7D7"/>
</radialGradient>
<radialGradient id="paint24_radial_703_1614" cx="0" cy="0" r="1" gradientUnits="userSpaceOnUse" gradientTransform="translate(0.91711 0.91711) rotate(85.3036) scale(1.75783)">
<stop stop-color="#FF474D"/>
<stop offset="1" stop-color="#FFD7D7"/>
</radialGradient>
<radialGradient id="paint25_radial_703_1614" cx="0" cy="0" r="1" gradientUnits="userSpaceOnUse" gradientTransform="translate(0.91711 0.91711) rotate(85.3036) scale(1.75783)">
<stop stop-color="#FF474D"/>
<stop offset="1" stop-color="#FFD7D7"/>
</radialGradient>
<radialGradient id="paint26_radial_703_1614" cx="0" cy="0" r="1" gradientUnits="userSpaceOnUse" gradientTransform="translate(0.91711 0.91711) rotate(85.3036) scale(1.75783)">
<stop stop-color="#FF474D"/>
<stop offset="1" stop-color="#FFD7D7"/>
</radialGradient>
</defs>
</svg>
