<svg width="130" height="83" viewBox="0 0 130 83" fill="none" xmlns="http://www.w3.org/2000/svg">
<path d="M123.342 82.8044C123.761 83.0987 124.339 82.9976 124.634 82.5786L129.431 75.7494C129.725 75.3303 129.624 74.7519 129.205 74.4576C128.786 74.1632 128.208 74.2643 127.913 74.6834L123.649 80.7538L117.579 76.4899C117.16 76.1955 116.582 76.2966 116.287 76.7157C115.993 77.1348 116.094 77.7131 116.513 78.0075L123.342 82.8044ZM122.783 81.1835L122.961 82.2052L124.788 81.8859L124.61 80.8641L122.783 81.1835Z" fill="url(#paint0_linear_743_116825)"/>
<rect width="2.78182" height="2.78182" rx="0.463636" transform="matrix(0.707054 -0.70716 0.707054 0.70716 120.886 74.396)" fill="url(#paint1_radial_743_116825)"/>
<rect width="2.78182" height="2.78182" rx="0.463636" transform="matrix(0.707054 -0.70716 0.707054 0.70716 119.602 68.2019)" fill="url(#paint2_radial_743_116825)"/>
<rect width="2.78182" height="2.78182" rx="0.463636" transform="matrix(0.707054 -0.70716 0.707054 0.70716 118.052 61.8851)" fill="url(#paint3_radial_743_116825)"/>
<rect width="2.78182" height="2.78182" rx="0.463636" transform="matrix(0.707054 -0.70716 0.707054 0.70716 116.296 55.6232)" fill="url(#paint4_radial_743_116825)"/>
<rect width="2.78182" height="2.78182" rx="0.463636" transform="matrix(0.707054 -0.70716 0.707054 0.70716 114.312 49.4279)" fill="url(#paint5_radial_743_116825)"/>
<rect width="2.78182" height="2.78182" rx="0.463636" transform="matrix(0.707054 -0.70716 0.707054 0.70716 112.082 43.3186)" fill="url(#paint6_radial_743_116825)"/>
<rect width="2.78182" height="2.78182" rx="0.463636" transform="matrix(0.707054 -0.70716 0.707054 0.70716 109.555 37.3253)" fill="url(#paint7_radial_743_116825)"/>
<rect width="2.78182" height="2.78182" rx="0.463636" transform="matrix(0.707054 -0.70716 0.707054 0.70716 106.669 31.4966)" fill="url(#paint8_radial_743_116825)"/>
<rect width="2.78182" height="2.78182" rx="0.463636" transform="matrix(0.707054 -0.70716 0.707054 0.70716 103.333 25.9138)" fill="url(#paint9_radial_743_116825)"/>
<rect width="2.78182" height="2.78182" rx="0.463636" transform="matrix(0.707054 -0.70716 0.707054 0.70716 98.6724 20.2294)" fill="url(#paint10_radial_743_116825)"/>
<rect width="2.78182" height="2.78182" rx="0.463636" transform="matrix(0.707054 -0.70716 0.707054 0.70716 93.77 15.4064)" fill="url(#paint11_radial_743_116825)"/>
<rect width="2.78182" height="2.78182" rx="0.463636" transform="matrix(0.707054 -0.70716 0.707054 0.70716 88.3545 11.802)" fill="url(#paint12_radial_743_116825)"/>
<rect width="2.78182" height="2.78182" rx="0.463636" transform="matrix(0.707054 -0.70716 0.707054 0.70716 82.5254 8.92139)" fill="url(#paint13_radial_743_116825)"/>
<rect width="2.78182" height="2.78182" rx="0.463636" transform="matrix(0.707054 -0.70716 0.707054 0.70716 76.4214 6.67114)" fill="url(#paint14_radial_743_116825)"/>
<rect width="2.78182" height="2.78182" rx="0.463636" transform="matrix(0.707054 -0.70716 0.707054 0.70716 70.1504 4.9563)" fill="url(#paint15_radial_743_116825)"/>
<rect width="2.78182" height="2.78182" rx="0.463636" transform="matrix(0.707054 -0.70716 0.707054 0.70716 63.7729 3.69299)" fill="url(#paint16_radial_743_116825)"/>
<rect width="2.78182" height="2.78182" rx="0.463636" transform="matrix(0.707054 -0.70716 0.707054 0.70716 57.3281 2.81201)" fill="url(#paint17_radial_743_116825)"/>
<rect width="2.78182" height="2.78182" rx="0.463636" transform="matrix(0.707054 -0.70716 0.707054 0.70716 50.8477 2.25769)" fill="url(#paint18_radial_743_116825)"/>
<rect width="2.78182" height="2.78182" rx="0.463636" transform="matrix(0.707054 -0.70716 0.707054 0.70716 44.3525 1.98621)" fill="url(#paint19_radial_743_116825)"/>
<rect width="2.78182" height="2.78182" rx="0.463636" transform="matrix(0.707054 -0.70716 0.707054 0.70716 37.8501 1.96228)" fill="url(#paint20_radial_743_116825)"/>
<rect width="2.78182" height="2.78182" rx="0.463636" transform="matrix(0.707054 -0.70716 0.707054 0.70716 31.3481 2.15845)" fill="url(#paint21_radial_743_116825)"/>
<rect width="2.78182" height="2.78182" rx="0.463636" transform="matrix(0.707054 -0.70716 0.707054 0.70716 24.8569 2.55322)" fill="url(#paint22_radial_743_116825)"/>
<rect width="2.78182" height="2.78182" rx="0.463636" transform="matrix(0.707054 -0.70716 0.707054 0.70716 18.3804 3.13025)" fill="url(#paint23_radial_743_116825)"/>
<rect width="2.78182" height="2.78182" rx="0.463636" transform="matrix(0.707054 -0.70716 0.707054 0.70716 11.9214 3.87756)" fill="url(#paint24_radial_743_116825)"/>
<rect width="2.78182" height="2.78182" rx="0.463636" transform="matrix(0.707054 -0.70716 0.707054 0.70716 5.9917 5.39832)" fill="url(#paint25_radial_743_116825)"/>
<rect width="2.78182" height="2.78182" rx="0.463636" transform="matrix(0.707054 -0.70716 0.707054 0.70716 0.430664 7.2522)" fill="url(#paint26_radial_743_116825)"/>
<defs>
<linearGradient id="paint0_linear_743_116825" x1="123.984" y1="83.0781" x2="121.824" y2="71.3355" gradientUnits="userSpaceOnUse">
<stop stop-color="#FF474D"/>
<stop offset="1" stop-color="#FFD7D7"/>
</linearGradient>
<radialGradient id="paint1_radial_743_116825" cx="0" cy="0" r="1" gradientUnits="userSpaceOnUse" gradientTransform="translate(1.39091 1.39091) rotate(85.3036) scale(2.66596)">
<stop stop-color="#FF474D"/>
<stop offset="1" stop-color="#FFD7D7"/>
</radialGradient>
<radialGradient id="paint2_radial_743_116825" cx="0" cy="0" r="1" gradientUnits="userSpaceOnUse" gradientTransform="translate(1.39091 1.39091) rotate(85.3036) scale(2.66596)">
<stop stop-color="#FF474D"/>
<stop offset="1" stop-color="#FFD7D7"/>
</radialGradient>
<radialGradient id="paint3_radial_743_116825" cx="0" cy="0" r="1" gradientUnits="userSpaceOnUse" gradientTransform="translate(1.39091 1.39091) rotate(85.3036) scale(2.66596)">
<stop stop-color="#FF474D"/>
<stop offset="1" stop-color="#FFD7D7"/>
</radialGradient>
<radialGradient id="paint4_radial_743_116825" cx="0" cy="0" r="1" gradientUnits="userSpaceOnUse" gradientTransform="translate(1.39091 1.39091) rotate(85.3036) scale(2.66596)">
<stop stop-color="#FF474D"/>
<stop offset="1" stop-color="#FFD7D7"/>
</radialGradient>
<radialGradient id="paint5_radial_743_116825" cx="0" cy="0" r="1" gradientUnits="userSpaceOnUse" gradientTransform="translate(1.39091 1.39091) rotate(85.3036) scale(2.66596)">
<stop stop-color="#FF474D"/>
<stop offset="1" stop-color="#FFD7D7"/>
</radialGradient>
<radialGradient id="paint6_radial_743_116825" cx="0" cy="0" r="1" gradientUnits="userSpaceOnUse" gradientTransform="translate(1.39091 1.39091) rotate(85.3036) scale(2.66596)">
<stop stop-color="#FF474D"/>
<stop offset="1" stop-color="#FFD7D7"/>
</radialGradient>
<radialGradient id="paint7_radial_743_116825" cx="0" cy="0" r="1" gradientUnits="userSpaceOnUse" gradientTransform="translate(1.39091 1.39091) rotate(85.3036) scale(2.66596)">
<stop stop-color="#FF474D"/>
<stop offset="1" stop-color="#FFD7D7"/>
</radialGradient>
<radialGradient id="paint8_radial_743_116825" cx="0" cy="0" r="1" gradientUnits="userSpaceOnUse" gradientTransform="translate(1.39091 1.39091) rotate(85.3036) scale(2.66596)">
<stop stop-color="#FF474D"/>
<stop offset="1" stop-color="#FFD7D7"/>
</radialGradient>
<radialGradient id="paint9_radial_743_116825" cx="0" cy="0" r="1" gradientUnits="userSpaceOnUse" gradientTransform="translate(1.39091 1.39091) rotate(85.3036) scale(2.66596)">
<stop stop-color="#FF474D"/>
<stop offset="1" stop-color="#FFD7D7"/>
</radialGradient>
<radialGradient id="paint10_radial_743_116825" cx="0" cy="0" r="1" gradientUnits="userSpaceOnUse" gradientTransform="translate(1.39091 1.39091) rotate(85.3036) scale(2.66596)">
<stop stop-color="#FF474D"/>
<stop offset="1" stop-color="#FFD7D7"/>
</radialGradient>
<radialGradient id="paint11_radial_743_116825" cx="0" cy="0" r="1" gradientUnits="userSpaceOnUse" gradientTransform="translate(1.39091 1.39091) rotate(85.3036) scale(2.66596)">
<stop stop-color="#FF474D"/>
<stop offset="1" stop-color="#FFD7D7"/>
</radialGradient>
<radialGradient id="paint12_radial_743_116825" cx="0" cy="0" r="1" gradientUnits="userSpaceOnUse" gradientTransform="translate(1.39091 1.39091) rotate(85.3036) scale(2.66596)">
<stop stop-color="#FF474D"/>
<stop offset="1" stop-color="#FFD7D7"/>
</radialGradient>
<radialGradient id="paint13_radial_743_116825" cx="0" cy="0" r="1" gradientUnits="userSpaceOnUse" gradientTransform="translate(1.39091 1.39091) rotate(85.3036) scale(2.66596)">
<stop stop-color="#FF474D"/>
<stop offset="1" stop-color="#FFD7D7"/>
</radialGradient>
<radialGradient id="paint14_radial_743_116825" cx="0" cy="0" r="1" gradientUnits="userSpaceOnUse" gradientTransform="translate(1.39091 1.39091) rotate(85.3036) scale(2.66596)">
<stop stop-color="#FF474D"/>
<stop offset="1" stop-color="#FFD7D7"/>
</radialGradient>
<radialGradient id="paint15_radial_743_116825" cx="0" cy="0" r="1" gradientUnits="userSpaceOnUse" gradientTransform="translate(1.39091 1.39091) rotate(85.3036) scale(2.66596)">
<stop stop-color="#FF474D"/>
<stop offset="1" stop-color="#FFD7D7"/>
</radialGradient>
<radialGradient id="paint16_radial_743_116825" cx="0" cy="0" r="1" gradientUnits="userSpaceOnUse" gradientTransform="translate(1.39091 1.39091) rotate(85.3036) scale(2.66596)">
<stop stop-color="#FF474D"/>
<stop offset="1" stop-color="#FFD7D7"/>
</radialGradient>
<radialGradient id="paint17_radial_743_116825" cx="0" cy="0" r="1" gradientUnits="userSpaceOnUse" gradientTransform="translate(1.39091 1.39091) rotate(85.3036) scale(2.66596)">
<stop stop-color="#FF474D"/>
<stop offset="1" stop-color="#FFD7D7"/>
</radialGradient>
<radialGradient id="paint18_radial_743_116825" cx="0" cy="0" r="1" gradientUnits="userSpaceOnUse" gradientTransform="translate(1.39091 1.39091) rotate(85.3036) scale(2.66596)">
<stop stop-color="#FF474D"/>
<stop offset="1" stop-color="#FFD7D7"/>
</radialGradient>
<radialGradient id="paint19_radial_743_116825" cx="0" cy="0" r="1" gradientUnits="userSpaceOnUse" gradientTransform="translate(1.39091 1.39091) rotate(85.3036) scale(2.66596)">
<stop stop-color="#FF474D"/>
<stop offset="1" stop-color="#FFD7D7"/>
</radialGradient>
<radialGradient id="paint20_radial_743_116825" cx="0" cy="0" r="1" gradientUnits="userSpaceOnUse" gradientTransform="translate(1.39091 1.39091) rotate(85.3036) scale(2.66596)">
<stop stop-color="#FF474D"/>
<stop offset="1" stop-color="#FFD7D7"/>
</radialGradient>
<radialGradient id="paint21_radial_743_116825" cx="0" cy="0" r="1" gradientUnits="userSpaceOnUse" gradientTransform="translate(1.39091 1.39091) rotate(85.3036) scale(2.66596)">
<stop stop-color="#FF474D"/>
<stop offset="1" stop-color="#FFD7D7"/>
</radialGradient>
<radialGradient id="paint22_radial_743_116825" cx="0" cy="0" r="1" gradientUnits="userSpaceOnUse" gradientTransform="translate(1.39091 1.39091) rotate(85.3036) scale(2.66596)">
<stop stop-color="#FF474D"/>
<stop offset="1" stop-color="#FFD7D7"/>
</radialGradient>
<radialGradient id="paint23_radial_743_116825" cx="0" cy="0" r="1" gradientUnits="userSpaceOnUse" gradientTransform="translate(1.39091 1.39091) rotate(85.3036) scale(2.66596)">
<stop stop-color="#FF474D"/>
<stop offset="1" stop-color="#FFD7D7"/>
</radialGradient>
<radialGradient id="paint24_radial_743_116825" cx="0" cy="0" r="1" gradientUnits="userSpaceOnUse" gradientTransform="translate(1.39091 1.39091) rotate(85.3036) scale(2.66596)">
<stop stop-color="#FF474D"/>
<stop offset="1" stop-color="#FFD7D7"/>
</radialGradient>
<radialGradient id="paint25_radial_743_116825" cx="0" cy="0" r="1" gradientUnits="userSpaceOnUse" gradientTransform="translate(1.39091 1.39091) rotate(85.3036) scale(2.66596)">
<stop stop-color="#FF474D"/>
<stop offset="1" stop-color="#FFD7D7"/>
</radialGradient>
<radialGradient id="paint26_radial_743_116825" cx="0" cy="0" r="1" gradientUnits="userSpaceOnUse" gradientTransform="translate(1.39091 1.39091) rotate(85.3036) scale(2.66596)">
<stop stop-color="#FF474D"/>
<stop offset="1" stop-color="#FFD7D7"/>
</radialGradient>
</defs>
</svg>
