<svg width="31" height="36" viewBox="0 0 31 36" fill="none" xmlns="http://www.w3.org/2000/svg">
<path d="M0.631311 3.47732C0.723302 4.85497 1.91467 5.89712 3.29231 5.80504C4.66995 5.71295 5.71217 4.5215 5.62018 3.14386C5.52819 1.76621 4.33682 0.724063 2.95918 0.816146C1.58154 0.90823 0.539319 2.09968 0.631311 3.47732Z" fill="#3897FF"/>
<path d="M22.2971 21.9996L23.7162 17.896L21.7639 14.0174L25.8676 15.4365L29.7461 13.484L28.327 17.5879L30.2793 21.4662L26.1756 20.0473L22.2971 21.9996Z" fill="white"/>
<path d="M15.3739 30.6786L11.9618 32.3493L10.7801 35.9604L9.1097 32.5475L5.49902 31.3658L8.91116 29.6952L10.0928 26.0841L11.7632 29.4966L15.3739 30.6786Z" fill="#00A98F"/>
</svg>
