<svg width="49" height="27" viewBox="0 0 49 27" fill="none" xmlns="http://www.w3.org/2000/svg">
<path d="M5.36158 19.9769C5.30973 18.5971 4.14919 17.5206 2.76946 17.5724C1.38972 17.6242 0.313251 18.7847 0.365101 20.1645C0.416952 21.5442 1.57748 22.6207 2.95722 22.5689C4.33696 22.5171 5.41343 21.3566 5.36158 19.9769Z" fill="#8E4DD5"/>
<path d="M14.47 0.114818L12.9317 4.17544L14.7702 8.10918L10.7096 6.57095L6.77588 8.40955L8.31391 4.34894L6.4756 0.415183L10.5362 1.95341L14.47 0.114818Z" fill="#FFCC00"/>
<path d="M48.5935 17.9989L47.0554 22.0595L48.8938 25.9932L44.8331 24.455L40.8994 26.2936L42.4375 22.233L40.5991 18.2992L44.6596 19.8372L48.5935 17.9989Z" fill="#00A98F"/>
</svg>
